Fraunces-SemiboldOpMid.ufo
<glyph name="numbersign" format="2">
  <advance width="590.9513888888889"/>
  <unicode hex="0023"/>
  <outline>
    <contour>
      <point x="195.13888888888889" y="319.59027777777777" type="curve" smooth="yes"/>
      <point x="169.30555555555554" y="113.38194444444444"/>
      <point x="124.375" y="79.45138888888889"/>
      <point x="126.375" y="29.583333333333332" type="curve" smooth="yes"/>
      <point x="127.375" y="2.1944444444444446"/>
      <point x="146.35784313725492" y="-16.0"/>
      <point x="174.58333333333334" y="-16.0" type="curve" smooth="yes"/>
      <point x="196.02083333333334" y="-16.0"/>
      <point x="222.75694444444446" y="-6.402777777777778"/>
      <point x="226.31944444444446" y="27.583333333333332" type="curve" smooth="yes"/>
      <point x="231.31944444444446" y="74.41666666666667"/>
      <point x="203.53472222222223" y="113.5625"/>
      <point x="228.71527777777777" y="319.59027777777777" type="curve" smooth="yes"/>
      <point x="253.54861111111111" y="522.2708333333334"/>
      <point x="296.44444444444446" y="558.7638888888889"/>
      <point x="294.44444444444446" y="609.0694444444445" type="curve" smooth="yes"/>
      <point x="293.44444444444446" y="636.9861111111111"/>
      <point x="274.81597222222223" y="654.1805555555555"/>
      <point x="247.125" y="654.1805555555555" type="curve" smooth="yes"/>
      <point x="218.4333804143126" y="654.1805555555555"/>
      <point x="196.40972222222223" y="641.5486111111111"/>
      <point x="192.5" y="607.0694444444445" type="curve" smooth="yes"/>
      <point x="187.02777777777777" y="552.7291666666666"/>
      <point x="221.26388888888889" y="531.9166666666666"/>
    </contour>
    <contour>
      <point x="367.1458333333333" y="319.59027777777777" type="curve" smooth="yes"/>
      <point x="345.05555555555554" y="114.38194444444444"/>
      <point x="296.94444444444446" y="79.45138888888889"/>
      <point x="298.94444444444446" y="29.583333333333332" type="curve" smooth="yes"/>
      <point x="299.94444444444446" y="2.1944444444444446"/>
      <point x="320.27287581699346" y="-16.0"/>
      <point x="347.15277777777777" y="-16.0" type="curve" smooth="yes"/>
      <point x="369.21527777777777" y="-16.0"/>
      <point x="396.4166666666667" y="-6.402777777777778"/>
      <point x="399.8888888888889" y="27.583333333333332" type="curve" smooth="yes"/>
      <point x="404.8888888888889" y="74.94444444444444"/>
      <point x="377.1041666666667" y="109.77777777777777"/>
      <point x="401.28472222222223" y="319.59027777777777" type="curve" smooth="yes"/>
      <point x="424.5" y="522.2708333333334"/>
      <point x="469.5763888888889" y="558.7638888888889"/>
      <point x="467.5763888888889" y="609.0694444444445" type="curve" smooth="yes"/>
      <point x="466.5763888888889" y="636.9861111111111"/>
      <point x="447.8980496453901" y="654.1805555555555"/>
      <point x="421.34722222222223" y="654.1805555555555" type="curve" smooth="yes"/>
      <point x="389.7168079096045" y="654.1805555555555"/>
      <point x="371.19444444444446" y="641.0208333333334"/>
      <point x="366.63194444444446" y="607.0694444444445" type="curve" smooth="yes"/>
      <point x="359.06944444444446" y="554.8194444444445"/>
      <point x="391.1111111111111" y="537.0902777777778"/>
    </contour>
    <contour>
      <point x="300.19444444444446" y="392.5486111111111" type="curve" smooth="yes"/>
      <point x="443.6458333333333" y="392.5486111111111"/>
      <point x="476.3958333333333" y="357.18055555555554"/>
      <point x="514.6805555555555" y="357.18055555555554" type="curve" smooth="yes"/>
      <point x="553.5694444444445" y="357.18055555555554"/>
      <point x="571.4513888888889" y="383.875"/>
      <point x="571.4513888888889" y="408.9166666666667" type="curve" smooth="yes"/>
      <point x="571.4513888888889" y="434.19444444444446"/>
      <point x="554.5694444444445" y="457.2916666666667"/>
      <point x="519.2430555555555" y="457.2916666666667" type="curve" smooth="yes"/>
      <point x="482.3958333333333" y="457.2916666666667"/>
      <point x="446.6458333333333" y="424.6875"/>
      <point x="300.19444444444446" y="425.125" type="curve" smooth="yes"/>
      <point x="158.21527777777777" y="425.125"/>
      <point x="124.02777777777777" y="458.2916666666667"/>
      <point x="86.18055555555556" y="458.2916666666667" type="curve" smooth="yes"/>
      <point x="47.291666666666664" y="458.2916666666667"/>
      <point x="30.97222222222222" y="435.6666666666667"/>
      <point x="30.97222222222222" y="410.44444444444446" type="curve" smooth="yes"/>
      <point x="30.97222222222222" y="380.75"/>
      <point x="48.291666666666664" y="360.18055555555554"/>
      <point x="87.18055555555556" y="359.18055555555554" type="curve" smooth="yes"/>
      <point x="124.02777777777777" y="358.18055555555554"/>
      <point x="158.21527777777777" y="392.5486111111111"/>
    </contour>
    <contour>
      <point x="288.19444444444446" y="215.77083333333334" type="curve" smooth="yes"/>
      <point x="431.6458333333333" y="215.77083333333334"/>
      <point x="463.8333333333333" y="185.69444444444446"/>
      <point x="502.68055555555554" y="185.69444444444446" type="curve" smooth="yes"/>
      <point x="541.5694444444445" y="185.69444444444446"/>
      <point x="558.8888888888889" y="210.73611111111111"/>
      <point x="558.8888888888889" y="236.90277777777777" type="curve" smooth="yes"/>
      <point x="558.8888888888889" y="259.47222222222223"/>
      <point x="542.5694444444445" y="282.6388888888889"/>
      <point x="505.68055555555554" y="282.6388888888889" type="curve" smooth="yes"/>
      <point x="470.3958333333333" y="282.6388888888889"/>
      <point x="435.6458333333333" y="249.47222222222223"/>
      <point x="288.19444444444446" y="249.90972222222223" type="curve" smooth="yes"/>
      <point x="146.21527777777777" y="249.90972222222223"/>
      <point x="111.46527777777777" y="283.6388888888889"/>
      <point x="73.18055555555556" y="283.6388888888889" type="curve" smooth="yes"/>
      <point x="35.291666666666664" y="283.6388888888889"/>
      <point x="18.97222222222222" y="260.94444444444446"/>
      <point x="18.97222222222222" y="237.90277777777777" type="curve" smooth="yes"/>
      <point x="18.97222222222222" y="208.13888888888889"/>
      <point x="36.291666666666664" y="188.16666666666666"/>
      <point x="73.125" y="187.69444444444446" type="curve" smooth="yes"/>
      <point x="111.99305555555556" y="187.22222222222223"/>
      <point x="145.21527777777777" y="215.77083333333334"/>
    </contour>
  </outline>
</glyph>
<glyph name="dollar" format="2">
  <advance width="503.1388888888889"/>
  <unicode hex="0024"/>
  <outline>
    <contour>
      <point x="257.38194444444446" y="0.0" type="curve" smooth="yes"/>
      <point x="390.0169983416252" y="0.0"/>
      <point x="469.2291666666667" y="77.8038684871312"/>
      <point x="469.2291666666667" y="169.98611111111111" type="curve" smooth="yes"/>
      <point x="469.2291666666667" y="236.641984605087"/>
      <point x="422.4162446744718" y="299.98678392107337"/>
      <point x="281.5" y="352.1388888888889" type="curve" smooth="yes"/>
      <point x="173.4613062894192" y="392.36067222127406"/>
      <point x="134.41666666666666" y="427.31664118246687"/>
      <point x="134.41666666666666" y="482.0" type="curve" smooth="yes"/>
      <point x="134.41666666666666" y="552.004669789498"/>
      <point x="189.52083333333334" y="593.8194444444445"/>
      <point x="256.59027777777777" y="593.8194444444445" type="curve" smooth="yes"/>
      <point x="313.53472222222223" y="593.8194444444445"/>
      <point x="349.44444444444446" y="558.0656572433948"/>
      <point x="349.44444444444446" y="511.30555555555554" type="curve" smooth="yes"/>
      <point x="349.44444444444446" y="480.02777777777777" type="line" smooth="yes"/>
      <point x="349.44444444444446" y="443.27777777777777"/>
      <point x="375.9236111111111" y="417.77777777777777"/>
      <point x="408.05555555555554" y="417.77777777777777" type="curve" smooth="yes"/>
      <point x="438.65972222222223" y="417.77777777777777"/>
      <point x="465.6666666666667" y="445.78472222222223"/>
      <point x="465.6666666666667" y="480.9166666666667" type="curve" smooth="yes"/>
      <point x="465.6666666666667" y="562.5208333333334"/>
      <point x="376.2546523378448" y="629.0"/>
      <point x="264.0138888888889" y="629.0" type="curve" smooth="yes"/>
      <point x="132.93938649533885" y="629.0"/>
      <point x="44.09722222222222" y="548.8263888888889"/>
      <point x="44.09722222222222" y="452.65277777777777" type="curve" smooth="yes"/>
      <point x="44.09722222222222" y="369.36805555555554"/>
      <point x="99.3125" y="313.7916666666667"/>
      <point x="232.11111111111111" y="264.8611111111111" type="curve" smooth="yes"/>
      <point x="339.8523076243349" y="224.7911896922644"/>
      <point x="376.28472222222223" y="188.12307288086038"/>
      <point x="376.28472222222223" y="137.63888888888889" type="curve" smooth="yes"/>
      <point x="376.28472222222223" y="73.70446773752539"/>
      <point x="328.8611111111111" y="35.09027777777778"/>
      <point x="261.06944444444446" y="35.09027777777778" type="curve" smooth="yes"/>
      <point x="196.00694444444446" y="35.09027777777778"/>
      <point x="155.69444444444446" y="71.79590365682138"/>
      <point x="155.69444444444446" y="122.41666666666667" type="curve" smooth="yes"/>
      <point x="155.69444444444446" y="158.97222222222223" type="line" smooth="yes"/>
      <point x="155.69444444444446" y="196.72222222222223"/>
      <point x="130.74305555555554" y="221.22222222222223"/>
      <point x="100.72222222222223" y="221.22222222222223" type="curve" smooth="yes"/>
      <point x="67.53472222222223" y="221.22222222222223"/>
      <point x="40.47222222222222" y="191.57638888888889"/>
      <point x="40.47222222222222" y="152.80555555555554" type="curve" smooth="yes"/>
      <point x="40.47222222222222" y="68.84027777777777"/>
      <point x="138.64174836601308" y="0.0"/>
    </contour>
    <contour>
      <point x="244.16666666666666" y="278.125" type="line"/>
      <point x="244.16666666666666" y="70.13888888888889"/>
      <point x="209.45833333333334" y="25.440349544072948"/>
      <point x="209.45833333333334" y="-21.541666666666668" type="curve" smooth="yes"/>
      <point x="209.45833333333334" y="-59.31057098765432"/>
      <point x="233.4594138730761" y="-75.625"/>
      <point x="259.06944444444446" y="-75.625" type="curve" smooth="yes"/>
      <point x="287.2026448510439" y="-75.625"/>
      <point x="305.7055939723122" y="-57.77407799783985"/>
      <point x="306.68055555555554" y="-21.541666666666668" type="curve" smooth="yes"/>
      <point x="307.68331969121306" y="25.441134623976637"/>
      <point x="270.9166666666667" y="69.13888888888889"/>
      <point x="270.9166666666667" y="278.125" type="curve"/>
    </contour>
    <contour>
      <point x="269.44444444444446" y="346.25" type="line"/>
      <point x="269.44444444444446" y="563.1736111111111"/>
      <point x="305.15277777777777" y="605.5528028028028"/>
      <point x="305.15277777777777" y="655.5416666666666" type="curve" smooth="yes"/>
      <point x="305.15277777777777" y="691.7731481481482"/>
      <point x="280.0705249841872" y="709.625"/>
      <point x="256.06944444444446" y="709.625" type="curve" smooth="yes"/>
      <point x="229.7425925925926" y="709.625"/>
      <point x="206.93055555555554" y="693.3267973856209"/>
      <point x="206.93055555555554" y="657.5416666666666" type="curve" smooth="yes"/>
      <point x="206.93055555555554" y="611.4419568822553"/>
      <point x="244.1666672123941" y="567.1737464869957"/>
      <point x="243.16666666666666" y="346.25" type="curve"/>
    </contour>
  </outline>
</glyph>
<glyph name="parenleft" format="2">
  <advance width="406.25"/>
  <unicode hex="0028"/>
  <outline>
    <contour>
      <point x="79.75" y="288.6875" type="curve" smooth="yes"/>
      <point x="79.75" y="54.845102505694754"/>
      <point x="205.7211493727316" y="-116.49999836184537"/>
      <point x="345.25" y="-166.375" type="curve" smooth="yes"/>
      <point x="356.6875" y="-170.1875"/>
      <point x="367.6875" y="-171.3125"/>
      <point x="374.625" y="-171.3125" type="curve" smooth="yes"/>
      <point x="387.0" y="-171.3125"/>
      <point x="395.25" y="-161.0625"/>
      <point x="395.25" y="-147.6875" type="curve" smooth="yes"/>
      <point x="395.25" y="-139.4375"/>
      <point x="391.125" y="-130.875"/>
      <point x="377.625" y="-125.0625" type="curve" smooth="yes"/>
      <point x="269.2858466983897" y="-74.90865735941892"/>
      <point x="201.5" y="75.98688271604938"/>
      <point x="201.5" y="288.6875" type="curve" smooth="yes"/>
      <point x="201.5" y="501.2847222222222"/>
      <point x="269.86211570556804" y="652.7313919330566"/>
      <point x="377.625" y="702.4375" type="curve" smooth="yes"/>
      <point x="391.125" y="708.6875"/>
      <point x="395.25" y="717.375"/>
      <point x="395.25" y="727.1875" type="curve" smooth="yes"/>
      <point x="395.25" y="738.4375"/>
      <point x="387.0" y="749.6875"/>
      <point x="375.1875" y="749.6875" type="curve" smooth="yes"/>
      <point x="368.25" y="749.6875"/>
      <point x="360.625" y="746.875"/>
      <point x="346.9375" y="741.9375" type="curve" smooth="yes"/>
      <point x="200.64786556188253" y="685.9935695407027"/>
      <point x="79.75" y="509.4772727272727"/>
    </contour>
  </outline>
</glyph>
<glyph name="plus" format="2">
  <advance width="498.0"/>
  <unicode hex="002B"/>
  <outline>
    <contour>
      <point x="38.75" y="303.0" type="curve" smooth="yes"/>
      <point x="38.75" y="278.8125"/>
      <point x="60.8125" y="259.75"/>
      <point x="86.0" y="259.75" type="curve" smooth="yes"/>
      <point x="143.0" y="259.75"/>
      <point x="210.0" y="273.75"/>
      <point x="252.0" y="273.75" type="curve" smooth="yes"/>
      <point x="295.0" y="273.75"/>
      <point x="359.0" y="259.75"/>
      <point x="412.0" y="259.75" type="curve" smooth="yes"/>
      <point x="440.75" y="259.75"/>
      <point x="459.25" y="278.8125"/>
      <point x="459.25" y="303.0" type="curve" smooth="yes"/>
      <point x="459.25" y="328.1875"/>
      <point x="439.75" y="348.25"/>
      <point x="412.0" y="348.25" type="curve" smooth="yes"/>
      <point x="359.0" y="348.25"/>
      <point x="295.0" y="334.25"/>
      <point x="252.0" y="334.25" type="curve" smooth="yes"/>
      <point x="203.0" y="334.25"/>
      <point x="143.0" y="348.25"/>
      <point x="87.0" y="348.25" type="curve" smooth="yes"/>
      <point x="63.375" y="348.25"/>
      <point x="38.75" y="328.1875"/>
    </contour>
    <contour>
      <point x="253.0" y="91.75" type="curve" smooth="yes"/>
      <point x="277.1875" y="91.75"/>
      <point x="296.25" y="113.8125"/>
      <point x="296.25" y="139.0" type="curve" smooth="yes"/>
      <point x="296.25" y="196.0"/>
      <point x="282.25" y="263.0"/>
      <point x="282.25" y="305.0" type="curve" smooth="yes"/>
      <point x="282.25" y="348.0"/>
      <point x="296.25" y="412.0"/>
      <point x="296.25" y="465.0" type="curve" smooth="yes"/>
      <point x="296.25" y="493.75"/>
      <point x="277.1875" y="512.25"/>
      <point x="253.0" y="512.25" type="curve" smooth="yes"/>
      <point x="227.8125" y="512.25"/>
      <point x="207.75" y="492.75"/>
      <point x="207.75" y="465.0" type="curve" smooth="yes"/>
      <point x="207.75" y="412.0"/>
      <point x="221.75" y="348.0"/>
      <point x="221.75" y="305.0" type="curve" smooth="yes"/>
      <point x="221.75" y="256.0"/>
      <point x="207.75" y="196.0"/>
      <point x="207.75" y="140.0" type="curve" smooth="yes"/>
      <point x="207.75" y="116.375"/>
      <point x="227.8125" y="91.75"/>
    </contour>
  </outline>
</glyph>
<glyph name="comma" format="2">
  <advance width="273.40277777777777"/>
  <unicode hex="002C"/>
  <outline>
    <contour>
      <point x="118.02083333333333" y="-8.680555555555555" type="curve" smooth="yes"/>
      <point x="151.21527777777777" y="-13.743055555555555" type="line" smooth="yes"/>
      <point x="168.16666666666666" y="-17.680555555555557"/>
      <point x="174.23611111111111" y="-29.125"/>
      <point x="174.23611111111111" y="-48.854166666666664" type="curve" smooth="yes"/>
      <point x="174.23611111111111" y="-113.40972222222223"/>
      <point x="126.75694444444444" y="-155.85416666666666"/>
      <point x="73.32638888888889" y="-161.59722222222223" type="curve" smooth="yes"/>
      <point x="54.59722222222222" y="-163.95833333333334"/>
      <point x="48.02083333333333" y="-173.1731150793651"/>
      <point x="48.02083333333333" y="-184.28472222222223" type="curve" smooth="yes"/>
      <point x="48.02083333333333" y="-197.42572463768116"/>
      <point x="56.463541666666664" y="-206.46527777777777"/>
      <point x="73.09027777777777" y="-206.46527777777777" type="curve" smooth="yes"/>
      <point x="146.96527777777777" y="-206.46527777777777"/>
      <point x="233.86805555555554" y="-136.9874751984127"/>
      <point x="233.86805555555554" y="-1.9236111111111112" type="curve" smooth="yes"/>
      <point x="233.86805555555554" y="92.95833333333333"/>
      <point x="189.94468954248367" y="139.22222222222223"/>
      <point x="135.8125" y="139.22222222222223" type="curve" smooth="yes"/>
      <point x="91.76657196969697" y="139.22222222222223"/>
      <point x="57.40972222222222" y="106.50928932178931"/>
      <point x="57.40972222222222" y="65.97916666666667" type="curve" smooth="yes"/>
      <point x="57.40972222222222" y="28.289583333333333"/>
      <point x="80.06529148659152" y="-1.412643001533013"/>
    </contour>
  </outline>
</glyph>
<glyph name="hyphen" format="2">
  <advance width="403.5625"/>
  <unicode hex="002D"/>
  <outline>
    <contour>
      <point x="333.625" y="290.25" type="curve" smooth="yes"/>
      <point x="98.25" y="290.25" type="line" smooth="yes"/>
      <point x="77.0" y="290.25"/>
      <point x="63.625" y="283.25"/>
      <point x="52.25" y="258.5" type="curve" smooth="yes"/>
      <point x="45.5625" y="244.125" type="line" smooth="yes"/>
      <point x="40.875" y="234.3125"/>
      <point x="38.75" y="225.8125"/>
      <point x="38.75" y="220.125" type="curve" smooth="yes"/>
      <point x="38.75" y="204.875"/>
      <point x="48.0625" y="195.75"/>
      <point x="67.6875" y="195.75" type="curve" smooth="yes"/>
      <point x="303.0625" y="195.75" type="line" smooth="yes"/>
      <point x="328.25" y="195.75"/>
      <point x="342.1875" y="205.0"/>
      <point x="351.875" y="226.9375" type="curve" smooth="yes"/>
      <point x="359.125" y="243.5625" type="line" smooth="yes"/>
      <point x="363.25" y="253.375"/>
      <point x="364.8125" y="260.1875"/>
      <point x="364.8125" y="266.4375" type="curve" smooth="yes"/>
      <point x="364.8125" y="281.6875"/>
      <point x="350.4375" y="290.25"/>
    </contour>
  </outline>
</glyph>
<glyph name="one" format="2">
  <advance width="418.4166666666667"/>
  <unicode hex="0031"/>
  <outline>
    <contour>
      <point x="58.5" y="561.3263888888889" type="line" smooth="yes"/>
      <point x="39.78472222222222" y="561.3263888888889"/>
      <point x="31.208333333333332" y="570.9375"/>
      <point x="31.208333333333332" y="584.6180555555555" type="curve" smooth="yes"/>
      <point x="31.208333333333332" y="598.2986111111111"/>
      <point x="42.291666666666664" y="608.3819444444445"/>
      <point x="60.388888888888886" y="608.3819444444445" type="curve" smooth="yes"/>
      <point x="100.93055555555556" y="608.3819444444445" type="line" smooth="yes"/>
      <point x="153.29861111111111" y="608.3819444444445"/>
      <point x="187.19280451683898" y="616.9741057645766"/>
      <point x="219.81944444444446" y="648.4097222222222" type="curve" smooth="yes"/>
      <point x="229.90277777777777" y="657.7152777777778"/>
      <point x="238.33333333333334" y="661.6041666666666"/>
      <point x="251.30555555555554" y="661.6041666666666" type="curve" smooth="yes"/>
      <point x="266.40277777777777" y="661.6041666666666"/>
      <point x="275.4861111111111" y="653.0277777777778"/>
      <point x="275.4861111111111" y="632.9513888888889" type="curve" smooth="yes"/>
      <point x="275.4861111111111" y="106.5" type="line" smooth="yes"/>
      <point x="275.4861111111111" y="76.00694444444444"/>
      <point x="294.2171503018087" y="55.23585283193443"/>
      <point x="318.68055555555554" y="51.111111111111114" type="curve" smooth="yes"/>
      <point x="370.8333333333333" y="41.83333333333333" type="line" smooth="yes"/>
      <point x="385.7810115985054" y="39.63197732740922"/>
      <point x="395.9583333333333" y="33.69886363636363"/>
      <point x="395.9583333333333" y="21.59722222222222" type="curve" smooth="yes"/>
      <point x="395.9583333333333" y="6.564102564102564"/>
      <point x="387.713122605364" y="0.0"/>
      <point x="370.8333333333333" y="0.0" type="curve" smooth="yes"/>
      <point x="53.111111111111114" y="0.0" type="line" smooth="yes"/>
      <point x="36.541666666666664" y="0.0"/>
      <point x="26.458333333333332" y="7.0918803418803416"/>
      <point x="26.458333333333332" y="22.65277777777778" type="curve" smooth="yes"/>
      <point x="26.458333333333332" y="36.27777777777778"/>
      <point x="36.41867627093618" y="42.126911733990184"/>
      <point x="54.111111111111114" y="44.83333333333333" type="curve" smooth="yes"/>
      <point x="102.20833333333333" y="52.52777777777778" type="line" smooth="yes"/>
      <point x="131.79077417069837" y="57.261614829680084"/>
      <point x="155.93055555555554" y="74.47916666666667"/>
      <point x="155.93055555555554" y="106.5" type="curve" smooth="yes"/>
      <point x="155.93055555555554" y="484.1041666666667" type="line" smooth="yes"/>
      <point x="155.93055555555554" y="538.3125"/>
      <point x="133.68055555555554" y="561.3263888888889"/>
      <point x="97.30555555555556" y="561.3263888888889" type="curve" smooth="yes"/>
    </contour>
  </outline>
</glyph>
<glyph name="three" format="2">
  <advance width="486.5625"/>
  <unicode hex="0033"/>
  <outline>
    <contour>
      <point x="222.64583333333334" y="338.53472222222223" type="line"/>
      <point x="436.5486111111111" y="578.0" type="line" smooth="yes"/>
      <point x="449.4861111111111" y="591.2847222222222"/>
      <point x="456.19444444444446" y="606.9097222222222"/>
      <point x="456.19444444444446" y="618.6319444444445" type="curve" smooth="yes"/>
      <point x="456.19444444444446" y="634.3611111111111"/>
      <point x="443.3125" y="645.5138888888889"/>
      <point x="423.9375" y="645.5138888888889" type="curve" smooth="yes"/>
      <point x="102.3125" y="645.5138888888889" type="line" smooth="yes"/>
      <point x="77.63194444444444" y="645.5138888888889"/>
      <point x="61.486111111111114" y="631.6527777777778"/>
      <point x="59.541666666666664" y="611.2708333333334" type="curve" smooth="yes"/>
      <point x="44.263888888888886" y="486.4166666666667" type="line" smooth="yes"/>
      <point x="42.263888888888886" y="470.4791666666667"/>
      <point x="52.4375" y="463.0833333333333"/>
      <point x="64.71527777777777" y="463.0833333333333" type="curve" smooth="yes"/>
      <point x="76.15972222222223" y="463.0833333333333"/>
      <point x="84.59027777777777" y="471.93055555555554"/>
      <point x="89.54861111111111" y="480.72222222222223" type="curve" smooth="yes"/>
      <point x="113.55555555555556" y="528.1944444444445" type="line" smooth="yes"/>
      <point x="123.95138888888889" y="548.4791666666666"/>
      <point x="140.50694444444446" y="555.8958333333334"/>
      <point x="165.02083333333334" y="555.8958333333334" type="curve" smooth="yes"/>
      <point x="392.30555555555554" y="555.8958333333334" type="line"/>
      <point x="382.2638888888889" y="593.0347222222222" type="line"/>
      <point x="173.47222222222223" y="357.88194444444446" type="line" smooth="yes"/>
      <point x="165.11805555555554" y="349.61805555555554"/>
      <point x="158.79861111111111" y="340.31944444444446"/>
      <point x="158.79861111111111" y="329.9861111111111" type="curve" smooth="yes"/>
      <point x="158.79861111111111" y="317.9236111111111"/>
      <point x="170.00694444444446" y="309.40277777777777"/>
      <point x="185.25" y="309.40277777777777" type="curve" smooth="yes"/>
      <point x="218.17361111111111" y="309.40277777777777" type="line" smooth="yes"/>
      <point x="292.0540806293019" y="309.40277777777777"/>
      <point x="342.09027777777777" y="262.7361111111111"/>
      <point x="342.09027777777777" y="165.09027777777777" type="curve" smooth="yes"/>
      <point x="342.09027777777777" y="86.72222222222223"/>
      <point x="301.7043494763405" y="27.462797318989455"/>
      <point x="243.32638888888889" y="26.51388888888889" type="curve" smooth="yes"/>
      <point x="192.89308896521706" y="25.590566489766434"/>
      <point x="164.29166666666666" y="60.05975877192982"/>
      <point x="164.29166666666666" y="102.65972222222223" type="curve" smooth="yes"/>
      <point x="164.29166666666666" y="135.40972222222223" type="line" smooth="yes"/>
      <point x="164.29166666666666" y="176.55555555555554"/>
      <point x="135.79761904761904" y="205.50694444444446"/>
      <point x="101.02777777777777" y="205.50694444444446" type="curve" smooth="yes"/>
      <point x="61.90629183400267" y="205.50694444444446"/>
      <point x="29.28472222222222" y="174.76578282828282"/>
      <point x="29.28472222222222" y="133.47222222222223" type="curve" smooth="yes"/>
      <point x="29.28472222222222" y="52.76819444444444"/>
      <point x="99.80897085610201" y="-12.36111111111111"/>
      <point x="233.14583333333334" y="-12.36111111111111" type="curve" smooth="yes"/>
      <point x="363.2291666666667" y="-12.36111111111111"/>
      <point x="455.7361111111111" y="69.875"/>
      <point x="455.7361111111111" y="187.625" type="curve" smooth="yes"/>
      <point x="455.7361111111111" y="302.6388888888889"/>
      <point x="368.69444444444446" y="354.21527777777777"/>
      <point x="232.89583333333334" y="354.21527777777777" type="curve" smooth="yes"/>
      <point x="227.78472222222223" y="354.21527777777777"/>
      <point x="212.3125" y="354.21527777777777"/>
      <point x="205.67361111111111" y="354.21527777777777" type="curve"/>
    </contour>
  </outline>
</glyph>
<glyph name="five" format="2">
  <advance width="530.8125"/>
  <unicode hex="0035"/>
  <outline>
    <contour>
      <point x="42.75" y="129.25" type="curve" smooth="yes"/>
      <point x="42.75" y="49.4375"/>
      <point x="124.0" y="-15.0"/>
      <point x="232.8125" y="-15.0" type="curve" smooth="yes"/>
      <point x="379.375" y="-15.0"/>
      <point x="491.6875" y="73.80827014541342"/>
      <point x="491.6875" y="208.5625" type="curve" smooth="yes"/>
      <point x="491.6875" y="322.7460480093677"/>
      <point x="404.05747767857144" y="397.9375"/>
      <point x="273.1875" y="397.9375" type="curve" smooth="yes"/>
      <point x="204.71875" y="397.9375"/>
      <point x="145.6924079058249" y="372.19486185873734"/>
      <point x="106.5" y="312.75" type="curve"/>
      <point x="147.3125" y="314.0" type="line"/>
      <point x="147.3125" y="586.125" type="line"/>
      <point x="106.5" y="560.5625" type="line"/>
      <point x="140.72096623624742" y="511.46688700980803"/>
      <point x="211.125" y="468.875"/>
      <point x="302.5625" y="468.875" type="curve" smooth="yes"/>
      <point x="425.5" y="468.875"/>
      <point x="491.4375" y="539.1484375"/>
      <point x="491.4375" y="631.1875" type="curve" smooth="yes"/>
      <point x="491.4375" y="649.375"/>
      <point x="478.9375" y="658.3125"/>
      <point x="464.0" y="658.3125" type="curve" smooth="yes"/>
      <point x="448.8081395348837" y="658.3125"/>
      <point x="436.25" y="647.5"/>
      <point x="428.375" y="628.8125" type="curve" smooth="yes"/>
      <point x="414.6395387616879" y="598.1061162850636"/>
      <point x="389.5174050632911" y="580.875"/>
      <point x="352.3125" y="580.875" type="curve" smooth="yes"/>
      <point x="280.9155957943925" y="580.875"/>
      <point x="207.52862149532712" y="657.3125"/>
      <point x="139.3125" y="657.3125" type="curve" smooth="yes"/>
      <point x="95.875" y="657.3125"/>
      <point x="76.9375" y="632.8125"/>
      <point x="76.9375" y="593.5" type="curve" smooth="yes"/>
      <point x="76.9375" y="298.6875" type="line" smooth="yes"/>
      <point x="76.9375" y="278.75"/>
      <point x="93.875" y="261.8125"/>
      <point x="112.375" y="261.8125" type="curve" smooth="yes"/>
      <point x="128.75" y="261.8125"/>
      <point x="142.75" y="270.9375"/>
      <point x="158.6875" y="290.75" type="curve" smooth="yes"/>
      <point x="181.4547007864296" y="319.31067739579953"/>
      <point x="207.50704225352112" y="329.25"/>
      <point x="237.375" y="329.25" type="curve" smooth="yes"/>
      <point x="310.7123786407767" y="329.25"/>
      <point x="353.25" y="276.57394366197184"/>
      <point x="353.25" y="179.0" type="curve" smooth="yes"/>
      <point x="353.25" y="95.77754452054795"/>
      <point x="310.875" y="47.8125"/>
      <point x="251.1875" y="47.8125" type="curve" smooth="yes"/>
      <point x="212.6875" y="47.8125"/>
      <point x="190.125" y="73.5625"/>
      <point x="190.125" y="100.75" type="curve" smooth="yes"/>
      <point x="190.125" y="129.375" type="line" smooth="yes"/>
      <point x="190.125" y="176.9375"/>
      <point x="159.0625" y="208.6875"/>
      <point x="121.0" y="208.6875" type="curve" smooth="yes"/>
      <point x="77.625" y="208.6875"/>
      <point x="42.75" y="174.9375"/>
    </contour>
  </outline>
</glyph>
<glyph name="six" format="2">
  <advance width="567.4375"/>
  <unicode hex="0036"/>
  <outline>
    <contour>
      <point x="334.75" y="657.3125" type="curve" smooth="yes"/>
      <point x="168.45254237288137" y="657.3125"/>
      <point x="42.6875" y="550.2587809917355"/>
      <point x="42.6875" y="287.25" type="curve" smooth="yes"/>
      <point x="42.6875" y="78.97500000000001"/>
      <point x="142.16964285714286" y="-15.0"/>
      <point x="274.8125" y="-15.0" type="curve" smooth="yes"/>
      <point x="423.5231073943662" y="-15.0"/>
      <point x="531.4375" y="85.36584051724138"/>
      <point x="531.4375" y="220.4375" type="curve" smooth="yes"/>
      <point x="531.4375" y="341.94642857142856"/>
      <point x="458.2647235576923" y="409.5"/>
      <point x="352.75" y="409.5" type="curve" smooth="yes"/>
      <point x="234.99881452114425" y="409.5"/>
      <point x="139.5" y="325.9375"/>
      <point x="139.5" y="224.8125" type="curve"/>
      <point x="181.3125" y="210.25" type="line"/>
      <point x="181.3125" y="281.625"/>
      <point x="234.62909493065519" y="332.6875"/>
      <point x="301.375" y="332.6875" type="curve" smooth="yes"/>
      <point x="358.5811170212766" y="332.6875"/>
      <point x="406.625" y="283.4140625"/>
      <point x="406.625" y="186.875" type="curve" smooth="yes"/>
      <point x="406.625" y="102.40865384615384"/>
      <point x="365.4375" y="56.375"/>
      <point x="299.375" y="56.375" type="curve" smooth="yes"/>
      <point x="233.623031496063" y="56.375"/>
      <point x="178.125" y="113.80385375494072"/>
      <point x="178.125" y="305.8125" type="curve" smooth="yes"/>
      <point x="178.125" y="525.7116788321168"/>
      <point x="240.0492294520548" y="596.5"/>
      <point x="305.375" y="596.5" type="curve" smooth="yes"/>
      <point x="347.36647727272725" y="596.5"/>
      <point x="371.0" y="569.9375"/>
      <point x="371.0" y="542.9375" type="curve" smooth="yes"/>
      <point x="371.0" y="525.8125" type="line" smooth="yes"/>
      <point x="371.0" y="476.671875"/>
      <point x="406.12987012987014" y="447.625"/>
      <point x="446.1875" y="447.625" type="curve" smooth="yes"/>
      <point x="491.26610824742266" y="447.625"/>
      <point x="520.5" y="475.773097826087"/>
      <point x="520.5" y="523.25" type="curve" smooth="yes"/>
      <point x="520.5" y="593.5625"/>
      <point x="454.7625" y="657.3125"/>
    </contour>
  </outline>
</glyph>
<glyph name="seven" format="2">
  <advance width="472.875"/>
  <unicode hex="0037"/>
  <outline>
    <contour>
      <point x="381.3125" y="548.75" type="curve" smooth="yes"/>
      <point x="310.0" y="457.625" type="line" smooth="yes"/>
      <point x="161.75" y="268.625"/>
      <point x="140.375" y="183.0625"/>
      <point x="140.375" y="98.625" type="curve" smooth="yes"/>
      <point x="140.375" y="28.25"/>
      <point x="175.875" y="-15.0"/>
      <point x="230.1875" y="-15.0" type="curve" smooth="yes"/>
      <point x="292.9375" y="-15.0"/>
      <point x="324.9101791887873" y="24.25859241876808"/>
      <point x="325.375" y="68.75" type="curve" smooth="yes"/>
      <point x="325.375" y="122.49525862068965"/>
      <point x="271.1875" y="152.02066929133858"/>
      <point x="271.1875" y="214.8125" type="curve" smooth="yes"/>
      <point x="271.1875" y="277.9155138339921"/>
      <point x="292.68243965482867" y="335.5096432893492"/>
      <point x="352.25" y="414.9375" type="curve" smooth="yes"/>
      <point x="430.1875" y="517.5625" type="line" smooth="yes"/>
      <point x="461.4607146315806" y="558.0564378167661"/>
      <point x="465.875" y="576.9375"/>
      <point x="465.875" y="599.5" type="curve" smooth="yes"/>
      <point x="465.875" y="624.8125"/>
      <point x="446.03629032258067" y="642.875"/>
      <point x="414.625" y="642.875" type="curve" smooth="yes"/>
      <point x="85.75" y="642.875" type="line" smooth="yes"/>
      <point x="55.4375" y="642.875"/>
      <point x="38.9375" y="621.625"/>
      <point x="35.9375" y="590.6875" type="curve" smooth="yes"/>
      <point x="25.375" y="471.75" type="line" smooth="yes"/>
      <point x="23.375" y="447.6875"/>
      <point x="36.75" y="434.875"/>
      <point x="53.25" y="434.875" type="curve" smooth="yes"/>
      <point x="72.75" y="434.875"/>
      <point x="86.5625" y="449.5625"/>
      <point x="94.6875" y="467.5" type="curve" smooth="yes"/>
      <point x="110.8125" y="502.6875" type="line" smooth="yes"/>
      <point x="122.6875" y="528.25"/>
      <point x="141.8125" y="537.25"/>
      <point x="170.375" y="537.25" type="curve" smooth="yes"/>
      <point x="411.875" y="537.25" type="line"/>
      <point x="402.875" y="609.3125" type="line"/>
      <point x="402.875" y="591.3125"/>
      <point x="399.0" y="571.75"/>
    </contour>
  </outline>
</glyph>
<glyph name="eight" format="2">
  <advance width="542.375"/>
  <unicode hex="0038"/>
  <outline>
    <contour>
      <point x="258.125" y="-15.0" type="curve" smooth="yes"/>
      <point x="397.375" y="-15.0"/>
      <point x="498.375" y="56.6875"/>
      <point x="498.375" y="159.625" type="curve" smooth="yes"/>
      <point x="498.375" y="234.0"/>
      <point x="448.4375" y="299.8125"/>
      <point x="318.125" y="348.0625" type="curve" smooth="yes"/>
      <point x="197.125" y="389.5"/>
      <point x="162.4375" y="435.625"/>
      <point x="162.4375" y="495.0" type="curve" smooth="yes"/>
      <point x="162.4375" y="549.1875"/>
      <point x="200.25" y="588.5"/>
      <point x="264.125" y="588.5" type="curve" smooth="yes"/>
      <point x="326.9375" y="588.5"/>
      <point x="370.0" y="547.4375"/>
      <point x="370.0" y="480.625" type="curve" smooth="yes"/>
      <point x="370.0" y="425.3125"/>
      <point x="341.0625" y="361.75"/>
      <point x="293.125" y="333.5625" type="curve"/>
      <point x="314.9375" y="311.0" type="line"/>
      <point x="418.6875" y="335.6875"/>
      <point x="496.4375" y="414.75"/>
      <point x="496.4375" y="494.625" type="curve" smooth="yes"/>
      <point x="496.4375" y="583.75"/>
      <point x="417.3125" y="658.3125"/>
      <point x="288.6875" y="658.3125" type="curve" smooth="yes"/>
      <point x="134.625" y="658.3125"/>
      <point x="40.0" y="567.125"/>
      <point x="40.0" y="462.4375" type="curve" smooth="yes"/>
      <point x="40.0" y="366.5"/>
      <point x="101.75" y="303.375"/>
      <point x="237.125" y="253.4375" type="curve" smooth="yes"/>
      <point x="342.5" y="214.125"/>
      <point x="371.9375" y="183.4375"/>
      <point x="371.9375" y="132.0625" type="curve" smooth="yes"/>
      <point x="371.9375" y="80.125"/>
      <point x="341.1875" y="49.8125"/>
      <point x="276.6875" y="49.8125" type="curve" smooth="yes"/>
      <point x="209.0" y="49.8125"/>
      <point x="170.5" y="92.0625"/>
      <point x="170.5" y="156.0625" type="curve" smooth="yes"/>
      <point x="170.5" y="198.8125"/>
      <point x="188.5625" y="243.25"/>
      <point x="236.75" y="279.0" type="curve"/>
      <point x="218.9375" y="293.0" type="line"/>
      <point x="116.75" y="273.875"/>
      <point x="49.6875" y="219.8125"/>
      <point x="49.6875" y="138.625" type="curve" smooth="yes"/>
      <point x="49.6875" y="47.3125"/>
      <point x="119.3125" y="-15.0"/>
    </contour>
  </outline>
</glyph>
<glyph name="less" format="2">
  <advance width="523.625"/>
  <unicode hex="003C"/>
  <outline>
    <contour>
      <point x="470.8125" y="117.375" type="curve" smooth="yes"/>
      <point x="470.8125" y="144.22036082474227"/>
      <point x="452.014881268544" y="169.250681892156"/>
      <point x="406.75" y="191.25" type="curve" smooth="yes"/>
      <point x="328.28353002683593" y="231.72943378354086"/>
      <point x="209.83609066390804" y="274.5823189419076"/>
      <point x="83.0" y="311.0" type="curve"/>
      <point x="83.0" y="295.0" type="line"/>
      <point x="209.87730208725785" y="330.9012654651157"/>
      <point x="328.42454061289396" y="372.37827910328383"/>
      <point x="409.75" y="415.75" type="curve" smooth="yes"/>
      <point x="452.31242049683266" y="438.4206689162867"/>
      <point x="470.8125" y="462.0705539943798"/>
      <point x="470.8125" y="486.625" type="curve" smooth="yes"/>
      <point x="470.8125" y="510.0885416666667"/>
      <point x="458.6875" y="527.875"/>
      <point x="439.0" y="527.875" type="curve" smooth="yes"/>
      <point x="421.625" y="527.875"/>
      <point x="400.125" y="519.75"/>
      <point x="378.75" y="503.25" type="curve" smooth="yes"/>
      <point x="325.70519801525063" y="463.3588351144903"/>
      <point x="186.8306037907103" y="393.05568228696126"/>
      <point x="70.625" y="349.875" type="curve" smooth="yes"/>
      <point x="39.43560297586602" y="338.06545113783113"/>
      <point x="28.75" y="320.46875"/>
      <point x="28.75" y="303.0" type="curve" smooth="yes"/>
      <point x="28.75" y="285.53125"/>
      <point x="39.67997817975735" y="268.1033419291865"/>
      <point x="70.625" y="256.125" type="curve" smooth="yes"/>
      <point x="186.87659215499264" y="213.12979773564928"/>
      <point x="327.70767149440843" y="143.571499334665"/>
      <point x="378.75" y="102.75" type="curve" smooth="yes"/>
      <point x="400.93021233267115" y="84.51220775973752"/>
      <point x="422.07142857142856" y="78.125"/>
      <point x="436.0" y="78.125" type="curve" smooth="yes"/>
      <point x="457.6271551724138" y="78.125"/>
      <point x="470.8125" y="94.74342105263159"/>
    </contour>
  </outline>
</glyph>
<glyph name="A" format="2">
  <advance width="680.6319444444445"/>
  <unicode hex="0041"/>
  <anchor x="368.2083333333333" y="731.0" name="center"/>
  <outline>
    <contour>
      <point x="178.47222222222223" y="289.34722222222223" type="line"/>
      <point x="176.19444444444446" y="239.38888888888889" type="line"/>
      <point x="476.25" y="239.38888888888889" type="line"/>
      <point x="470.25" y="289.34722222222223" type="line"/>
    </contour>
    <contour>
      <point x="233.59027777777777" y="22.04861111111111" type="curve" smooth="yes"/>
      <point x="233.59027777777777" y="31.63888888888889"/>
      <point x="226.83333333333334" y="40.354166666666664"/>
      <point x="211.72916666666666" y="49.29166666666667" type="curve" smooth="yes"/>
      <point x="182.60416666666666" y="62.49305555555556" type="line" smooth="yes"/>
      <point x="157.46527777777777" y="75.64583333333333"/>
      <point x="153.32638888888889" y="102.02777777777777"/>
      <point x="169.83333333333334" y="157.70138888888889" type="curve" smooth="yes"/>
      <point x="304.4583333333333" y="599.1180555555555" type="line" smooth="yes"/>
      <point x="307.53869396254487" y="609.9062622022402"/>
      <point x="312.75694444444446" y="615.1180555555555"/>
      <point x="321.1458333333333" y="615.1180555555555" type="curve" smooth="yes"/>
      <point x="329.53472222222223" y="615.1180555555555"/>
      <point x="335.5062895612652" y="611.4632757001384"/>
      <point x="338.9236111111111" y="598.5902777777778" type="curve" smooth="yes"/>
      <point x="483.55555555555554" y="102.43055555555556" type="line" smooth="yes"/>
      <point x="490.2638888888889" y="77.40277777777777"/>
      <point x="481.6458333333333" y="59.24305555555556"/>
      <point x="465.0763888888889" y="53.68055555555556" type="curve" smooth="yes"/>
      <point x="442.34722222222223" y="46.513888888888886" type="line" smooth="yes"/>
      <point x="429.84722222222223" y="41.31944444444444"/>
      <point x="421.7638888888889" y="35.83333333333333"/>
      <point x="421.7638888888889" y="22.04861111111111" type="curve" smooth="yes"/>
      <point x="421.7638888888889" y="7.173611111111111"/>
      <point x="429.75694444444446" y="0.0"/>
      <point x="442.81944444444446" y="0.0" type="curve" smooth="yes"/>
      <point x="648.3055555555555" y="0.0" type="line" smooth="yes"/>
      <point x="665.0694444444445" y="0.0"/>
      <point x="675.6944444444445" y="7.701388888888889"/>
      <point x="675.6944444444445" y="22.104166666666664" type="curve" smooth="yes"/>
      <point x="675.6944444444445" y="33.25694444444444"/>
      <point x="672.669453539395" y="39.26527474612759"/>
      <point x="656.5416666666666" y="48.45833333333333" type="curve" smooth="yes"/>
      <point x="633.6041666666666" y="60.375"/>
      <point x="619.9073549906448" y="81.92295027638013"/>
      <point x="612.1527777777778" y="109.1875" type="curve" smooth="yes"/>
      <point x="460.40972222222223" y="611.5347222222222" type="line" smooth="yes"/>
      <point x="453.75694444444446" y="633.2152777777778"/>
      <point x="458.34722222222223" y="650.8819444444445"/>
      <point x="472.43055555555554" y="656.0972222222222" type="curve" smooth="yes"/>
      <point x="482.49305555555554" y="660.4930555555555"/>
      <point x="488.52777777777777" y="665.9236111111111"/>
      <point x="488.52777777777777" y="677.6944444444445" type="curve" smooth="yes"/>
      <point x="488.52777777777777" y="690.8819444444445"/>
      <point x="476.9375" y="700.0"/>
      <point x="461.24305555555554" y="700.0" type="curve" smooth="yes"/>
      <point x="236.33333333333334" y="700.0" type="line" smooth="yes"/>
      <point x="223.41666666666666" y="700.0"/>
      <point x="211.91666666666666" y="689.7916666666666"/>
      <point x="211.91666666666666" y="676.5694444444445" type="curve" smooth="yes"/>
      <point x="211.91666666666666" y="666.5"/>
      <point x="219.42361111111111" y="658.2916666666666"/>
      <point x="230.39583333333334" y="651.1736111111111" type="curve" smooth="yes"/>
      <point x="244.75587551388708" y="644.0957977824077"/>
      <point x="247.24977613087327" y="625.9182541975866"/>
      <point x="240.51388888888889" y="604.25" type="curve" smooth="yes"/>
      <point x="104.52777777777777" y="157.70138888888889" type="line" smooth="yes"/>
      <point x="87.3046061357613" y="99.39946744550365"/>
      <point x="62.406552001330084" y="68.35367185222131"/>
      <point x="28.069444444444443" y="50.50694444444444" type="curve" smooth="yes"/>
      <point x="13.07638888888889" y="41.44444444444444"/>
      <point x="6.083333333333334" y="31.67361111111111"/>
      <point x="6.083333333333334" y="22.354166666666664" type="curve" smooth="yes"/>
      <point x="6.083333333333334" y="6.229166666666666"/>
      <point x="13.54861111111111" y="0.0"/>
      <point x="32.513888888888886" y="0.0" type="curve" smooth="yes"/>
      <point x="211.20833333333334" y="0.0" type="line" smooth="yes"/>
      <point x="225.125" y="0.0"/>
      <point x="233.59027777777777" y="8.73611111111111"/>
    </contour>
  </outline>
</glyph>
<glyph name="C" format="2">
  <advance width="664.8055555555555"/>
  <unicode hex="0043"/>
  <anchor x="354.36805555555554" y="775.0" name="center"/>
  <outline>
    <contour>
      <point x="640.8958333333334" y="180.13194444444446" type="curve" smooth="yes"/>
      <point x="640.8958333333334" y="191.61111111111111"/>
      <point x="635.1388888888889" y="200.52777777777777"/>
      <point x="628.1805555555555" y="200.52777777777777" type="curve" smooth="yes"/>
      <point x="621.0972222222222" y="200.52777777777777"/>
      <point x="615.0833333333334" y="198.32638888888889"/>
      <point x="605.4583333333334" y="183.27083333333334" type="curve" smooth="yes"/>
      <point x="576.2410389068741" y="117.95776412193285"/>
      <point x="505.24535736579276" y="77.74305555555556"/>
      <point x="417.78472222222223" y="77.74305555555556" type="curve" smooth="yes"/>
      <point x="263.5971980255517" y="77.74305555555556"/>
      <point x="157.47916666666666" y="193.8361928104575"/>
      <point x="157.47916666666666" y="376.94444444444446" type="curve" smooth="yes"/>
      <point x="157.47916666666666" y="554.3842759727236"/>
      <point x="247.47222222222223" y="659.5416666666666"/>
      <point x="372.36805555555554" y="659.5416666666666" type="curve" smooth="yes"/>
      <point x="459.6735782768584" y="659.5416666666666"/>
      <point x="527.3062617929955" y="613.1769476909574"/>
      <point x="584.7847222222222" y="512.5694444444445" type="curve" smooth="yes"/>
      <point x="597.6891081161608" y="492.30823561213145"/>
      <point x="608.3369565217391" y="487.5208333333333"/>
      <point x="619.3125" y="487.5208333333333" type="curve" smooth="yes"/>
      <point x="632.625" y="487.5208333333333"/>
      <point x="641.1805555555555" y="497.1666666666667"/>
      <point x="641.1805555555555" y="509.28472222222223" type="curve" smooth="yes"/>
      <point x="641.1805555555555" y="517.4236111111111"/>
      <point x="640.6290177641785" y="522.3350873574517"/>
      <point x="634.7847222222222" y="542.1319444444445" type="curve" smooth="yes"/>
      <point x="593.3333333333334" y="677.9513888888889" type="line" smooth="yes"/>
      <point x="584.5972222222222" y="705.7916666666666"/>
      <point x="576.9861111111111" y="715.5625"/>
      <point x="563.1458333333334" y="715.5625" type="curve" smooth="yes"/>
      <point x="544.3611111111111" y="715.5625"/>
      <point x="528.6944444444445" y="685.6111111111111"/>
      <point x="505.2708333333333" y="685.6111111111111" type="curve" smooth="yes"/>
      <point x="487.62268518518516" y="685.6111111111111"/>
      <point x="445.83480379930995" y="713.0"/>
      <point x="379.99305555555554" y="713.0" type="curve" smooth="yes"/>
      <point x="180.76316334991708" y="713.0"/>
      <point x="34.645833333333336" y="558.0218413978495"/>
      <point x="34.645833333333336" y="338.0" type="curve" smooth="yes"/>
      <point x="34.645833333333336" y="130.0207943196005"/>
      <point x="161.5151439089692" y="-15.0"/>
      <point x="359.36805555555554" y="-15.0" type="curve" smooth="yes"/>
      <point x="519.7555399500625" y="-15.0"/>
      <point x="640.8958333333334" y="88.91188177506776"/>
    </contour>
  </outline>
</glyph>
<glyph name="E" format="2">
  <advance width="620.6111111111111"/>
  <unicode hex="0045"/>
  <outline>
    <contour>
      <point x="198.48611111111111" y="372.2013888888889" type="line"/>
      <point x="186.86111111111111" y="325.8611111111111" type="line"/>
      <point x="360.05555555555554" y="325.8611111111111" type="line" smooth="yes"/>
      <point x="407.40972222222223" y="325.8611111111111"/>
      <point x="432.31944444444446" y="314.8333333333333"/>
      <point x="449.5416666666667" y="283.7291666666667" type="curve" smooth="yes"/>
      <point x="465.0138888888889" y="262.00694444444446"/>
      <point x="472.5427927927928" y="253.36111111111111"/>
      <point x="486.8125" y="253.36111111111111" type="curve" smooth="yes"/>
      <point x="499.95383986928107" y="253.36111111111111"/>
      <point x="509.15277777777777" y="260.59027777777777"/>
      <point x="509.15277777777777" y="274.5763888888889" type="curve" smooth="yes"/>
      <point x="509.15277777777777" y="279.7055555555556"/>
      <point x="508.25731176153624" y="287.8747054627828"/>
      <point x="506.02777777777777" y="295.8333333333333" type="curve" smooth="yes"/>
      <point x="471.6041666666667" y="418.0416666666667" type="line" smooth="yes"/>
      <point x="466.88194444444446" y="435.875"/>
      <point x="460.81845238095235" y="444.7013888888889"/>
      <point x="446.8125" y="444.7013888888889" type="curve" smooth="yes"/>
      <point x="432.8270502645503" y="444.7013888888889"/>
      <point x="425.50694444444446" y="434.8541666666667"/>
      <point x="418.11805555555554" y="415.90972222222223" type="curve" smooth="yes"/>
      <point x="410.84722222222223" y="387.8263888888889"/>
      <point x="394.36805555555554" y="372.2013888888889"/>
      <point x="358.05555555555554" y="372.2013888888889" type="curve" smooth="yes"/>
    </contour>
    <contour>
      <point x="23.819444444444443" y="678.4791666666666" type="curve" smooth="yes"/>
      <point x="23.819444444444443" y="665.4337121212121"/>
      <point x="32.52083333333333" y="656.7222222222222"/>
      <point x="46.354166666666664" y="653.25" type="curve" smooth="yes"/>
      <point x="90.04166666666667" y="642.6458333333334" type="line" smooth="yes"/>
      <point x="105.56808380271178" y="638.8481998805219"/>
      <point x="113.81944444444444" y="626.9487847222222"/>
      <point x="113.81944444444444" y="609.2847222222222" type="curve" smooth="yes"/>
      <point x="113.81944444444444" y="94.48611111111111" type="line" smooth="yes"/>
      <point x="113.81944444444444" y="71.34722222222223"/>
      <point x="104.61350632690952" y="59.97937430808156"/>
      <point x="83.73611111111111" y="54.625" type="curve" smooth="yes"/>
      <point x="45.798611111111114" y="47.201388888888886" type="line" smooth="yes"/>
      <point x="29.72222222222222" y="43.27777777777778"/>
      <point x="23.819444444444443" y="34.03632478632478"/>
      <point x="23.819444444444443" y="19.520833333333332" type="curve" smooth="yes"/>
      <point x="23.819444444444443" y="6.3125"/>
      <point x="32.8125" y="0.0"/>
      <point x="46.72916666666667" y="0.0" type="curve" smooth="yes"/>
      <point x="457.3333333333333" y="0.0" type="line" smooth="yes"/>
      <point x="478.5032765629381" y="0.0"/>
      <point x="489.68055555555554" y="-17.47222222222222"/>
      <point x="510.02777777777777" y="-17.47222222222222" type="curve" smooth="yes"/>
      <point x="525.4251676245211" y="-17.47222222222222"/>
      <point x="536.4444444444445" y="-9.333333333333332"/>
      <point x="542.2916666666666" y="12.1875" type="curve" smooth="yes"/>
      <point x="582.2777777777778" y="156.24305555555554" type="line" smooth="yes"/>
      <point x="585.875" y="170.50694444444446"/>
      <point x="586.3472222222222" y="179.64583333333334"/>
      <point x="586.3472222222222" y="186.27777777777777" type="curve" smooth="yes"/>
      <point x="586.3472222222222" y="202.51388888888889"/>
      <point x="577.9930555555555" y="212.46527777777777"/>
      <point x="560.6875" y="212.46527777777777" type="curve" smooth="yes"/>
      <point x="547.375" y="212.46527777777777"/>
      <point x="535.6944444444445" y="202.25694444444446"/>
      <point x="517.9375" y="170.29861111111111" type="curve" smooth="yes"/>
      <point x="476.38194444444446" y="72.93055555555556"/>
      <point x="435.69444444444446" y="51.916666666666664"/>
      <point x="376.34722222222223" y="51.916666666666664" type="curve" smooth="yes"/>
      <point x="311.7083333333333" y="51.916666666666664" type="line" smooth="yes"/>
      <point x="264.6736111111111" y="51.916666666666664"/>
      <point x="238.375" y="78.00694444444444"/>
      <point x="238.375" y="117.36111111111111" type="curve" smooth="yes"/>
      <point x="238.375" y="654.5833333333334" type="line"/>
      <point x="340.44444444444446" y="654.5833333333334" type="line" smooth="yes"/>
      <point x="414.5486111111111" y="654.5833333333334"/>
      <point x="462.21527777777777" y="624.5347222222222"/>
      <point x="510.7083333333333" y="540.5972222222222" type="curve" smooth="yes"/>
      <point x="524.3680555555555" y="518.6180555555555"/>
      <point x="537.1180555555555" y="513.3125"/>
      <point x="549.3055555555555" y="513.3125" type="curve" smooth="yes"/>
      <point x="561.7986111111111" y="513.3125"/>
      <point x="571.0972222222222" y="521.0138888888889"/>
      <point x="571.0972222222222" y="533.8194444444445" type="curve" smooth="yes"/>
      <point x="571.0972222222222" y="537.2361111111111"/>
      <point x="570.625" y="543.5972222222222"/>
      <point x="568.6805555555555" y="551.4305555555555" type="curve" smooth="yes"/>
      <point x="532.5833333333334" y="692.7222222222222" type="line" smooth="yes"/>
      <point x="528.1643437648261" y="712.0554416912288"/>
      <point x="521.7308590102708" y="721.5833333333334"/>
      <point x="508.80555555555554" y="721.5833333333334" type="curve" smooth="yes"/>
      <point x="499.3097222222222" y="721.5833333333334"/>
      <point x="492.01703212240596" y="718.5836012285765"/>
      <point x="483.5" y="711.875" type="curve" smooth="yes"/>
      <point x="473.2984736983074" y="702.9408949275202"/>
      <point x="459.8053978600131" y="700.0"/>
      <point x="446.4861111111111" y="700.0" type="curve" smooth="yes"/>
      <point x="46.986111111111114" y="700.0" type="line" smooth="yes"/>
      <point x="32.39583333333333" y="700.0"/>
      <point x="23.819444444444443" y="691.640873015873"/>
    </contour>
  </outline>
</glyph>
<glyph name="G" format="2">
  <advance width="732.6597222222222"/>
  <unicode hex="0047"/>
  <outline>
    <contour>
      <point x="649.0277777777778" y="20.59722222222222" type="curve" smooth="yes"/>
      <point x="649.0277777777778" y="211.48611111111111" type="line" smooth="yes"/>
      <point x="649.0277777777778" y="235.29166666666666"/>
      <point x="657.6388888888889" y="248.15972222222223"/>
      <point x="672.125" y="256.53472222222223" type="curve" smooth="yes"/>
      <point x="700.5833333333334" y="269.9236111111111" type="line" smooth="yes"/>
      <point x="714.1388888888889" y="278.1875"/>
      <point x="718.0277777777778" y="284.4166666666667"/>
      <point x="718.0277777777778" y="296.78472222222223" type="curve" smooth="yes"/>
      <point x="718.0277777777778" y="310.1875"/>
      <point x="708.5277777777778" y="317.9236111111111"/>
      <point x="693.5416666666666" y="317.9236111111111" type="curve" smooth="yes"/>
      <point x="449.31944444444446" y="317.9236111111111" type="line" smooth="yes"/>
      <point x="432.27777777777777" y="317.9236111111111"/>
      <point x="422.72222222222223" y="309.09722222222223"/>
      <point x="422.72222222222223" y="294.0763888888889" type="curve" smooth="yes"/>
      <point x="422.72222222222223" y="278.0208333333333"/>
      <point x="432.93055555555554" y="270.9375"/>
      <point x="451.84027777777777" y="266.6875" type="curve" smooth="yes"/>
      <point x="502.4166666666667" y="256.5" type="line" smooth="yes"/>
      <point x="520.7777777777778" y="252.55555555555554"/>
      <point x="530.7222222222222" y="236.45833333333334"/>
      <point x="530.7222222222222" y="214.34722222222223" type="curve" smooth="yes"/>
      <point x="530.7222222222222" y="121.11111111111111" type="line" smooth="yes"/>
      <point x="530.7222222222222" y="78.47222222222223"/>
      <point x="494.88194444444446" y="56.416666666666664"/>
      <point x="419.0416666666667" y="56.416666666666664" type="curve" smooth="yes"/>
      <point x="267.44444444444446" y="56.416666666666664"/>
      <point x="165.21527777777777" y="176.64318783068782"/>
      <point x="165.21527777777777" y="365.0" type="curve" smooth="yes"/>
      <point x="165.21527777777777" y="545.895229468599"/>
      <point x="254.74647177419354" y="666.7847222222222"/>
      <point x="401.4791666666667" y="666.7847222222222" type="curve" smooth="yes"/>
      <point x="479.15796988577364" y="666.7847222222222"/>
      <point x="558.1606534390711" y="618.6215690062796"/>
      <point x="612.0902777777778" y="517.9791666666666" type="curve" smooth="yes"/>
      <point x="627.8888888888889" y="493.59027777777777"/>
      <point x="641.4722222222222" y="484.0208333333333"/>
      <point x="654.875" y="484.0208333333333" type="curve" smooth="yes"/>
      <point x="668.8058862433862" y="484.0208333333333"/>
      <point x="678.7013888888889" y="494.4819444444444"/>
      <point x="678.7013888888889" y="510.2083333333333" type="curve" smooth="yes"/>
      <point x="678.7013888888889" y="518.6066176470588"/>
      <point x="675.5679075256049" y="524.3179198534821"/>
      <point x="673.2847222222222" y="537.2361111111111" type="curve" smooth="yes"/>
      <point x="643.3819444444445" y="687.2222222222222" type="line" smooth="yes"/>
      <point x="639.0208333333334" y="708.0763888888889"/>
      <point x="628.4861111111111" y="713.5625"/>
      <point x="615.5902777777778" y="713.5625" type="curve" smooth="yes"/>
      <point x="595.0416666666666" y="713.5625"/>
      <point x="570.1111111111111" y="683.4027777777778"/>
      <point x="543.8888888888889" y="683.4027777777778" type="curve" smooth="yes"/>
      <point x="524.9444444444445" y="683.4027777777778"/>
      <point x="488.5625" y="714.0902777777778"/>
      <point x="409.2013888888889" y="714.0902777777778" type="curve" smooth="yes"/>
      <point x="181.03472222222223" y="714.0902777777778"/>
      <point x="34.645833333333336" y="554.1911512027491"/>
      <point x="34.645833333333336" y="330.0" type="curve" smooth="yes"/>
      <point x="34.645833333333336" y="123.05688316993464"/>
      <point x="169.52777777777777" y="-12.88888888888889"/>
      <point x="354.36805555555554" y="-12.88888888888889" type="curve" smooth="yes"/>
      <point x="449.11805555555554" y="-12.88888888888889"/>
      <point x="503.1458333333333" y="32.25"/>
      <point x="530.2847222222222" y="32.25" type="curve" smooth="yes"/>
      <point x="556.8333333333334" y="32.25"/>
      <point x="584.1041666666666" y="-12.88888888888889"/>
      <point x="609.9930555555555" y="-12.88888888888889" type="curve" smooth="yes"/>
      <point x="637.6736111111111" y="-12.88888888888889"/>
      <point x="649.0277777777778" y="0.6111111111111112"/>
    </contour>
  </outline>
</glyph>
<glyph name="L" format="2">
  <advance width="558.9097222222222"/>
  <unicode hex="004C"/>
  <anchor x="201.0625" y="742.0" name="center"/>
  <outline>
    <contour>
      <point x="320.7013888888889" y="654.2152777777778" type="line" smooth="yes"/>
      <point x="335.3611111111111" y="657.1944444444445"/>
      <point x="343.53472222222223" y="666.4930555555555"/>
      <point x="343.53472222222223" y="678.4791666666666" type="curve" smooth="yes"/>
      <point x="343.53472222222223" y="692.8263888888889"/>
      <point x="334.34027777777777" y="700.0"/>
      <point x="323.6736111111111" y="700.0" type="curve" smooth="yes"/>
      <point x="46.951388888888886" y="700.0" type="line" smooth="yes"/>
      <point x="33.15972222222222" y="700.0"/>
      <point x="23.729166666666664" y="692.7736111111111"/>
      <point x="23.729166666666664" y="677.9513888888889" type="curve" smooth="yes"/>
      <point x="23.729166666666664" y="664.7291666666666"/>
      <point x="32.8589061767794" y="656.2432380236885"/>
      <point x="45.11805555555556" y="653.0138888888889" type="curve" smooth="yes"/>
      <point x="83.11805555555556" y="643.2638888888889" type="line" smooth="yes"/>
      <point x="104.36805555555556" y="637.9375"/>
      <point x="113.72916666666666" y="625.4861111111111"/>
      <point x="113.72916666666666" y="601.2916666666666" type="curve" smooth="yes"/>
      <point x="113.72916666666666" y="87.05555555555556" type="line" smooth="yes"/>
      <point x="113.72916666666666" y="70.16666666666667"/>
      <point x="102.72916666666666" y="58.1875"/>
      <point x="86.78472222222223" y="55.27777777777778" type="curve" smooth="yes"/>
      <point x="45.173611111111114" y="47.166666666666664" type="line" smooth="yes"/>
      <point x="31.506944444444443" y="44.3125"/>
      <point x="23.729166666666664" y="36.95833333333333"/>
      <point x="23.729166666666664" y="22.61111111111111" type="curve" smooth="yes"/>
      <point x="23.729166666666664" y="7.173611111111111"/>
      <point x="31.03472222222222" y="0.0"/>
      <point x="44.701388888888886" y="0.0" type="curve" smooth="yes"/>
      <point x="406.80555555555554" y="0.0" type="line" smooth="yes"/>
      <point x="434.332943196005" y="0.0"/>
      <point x="450.25046816479403" y="-17.65277777777778"/>
      <point x="471.86805555555554" y="-17.65277777777778" type="curve" smooth="yes"/>
      <point x="492.5208333333333" y="-17.65277777777778"/>
      <point x="501.5496033548867" y="-4.883555854654279"/>
      <point x="508.4166666666667" y="21.5" type="curve" smooth="yes"/>
      <point x="544.7916666666666" y="165.22222222222223" type="line" smooth="yes"/>
      <point x="552.8962583769454" y="197.123197591968"/>
      <point x="542.2152777777778" y="210.61111111111111"/>
      <point x="527.1041666666666" y="210.61111111111111" type="curve" smooth="yes"/>
      <point x="515.1026234567902" y="210.61111111111111"/>
      <point x="506.097077953244" y="206.04707586693246"/>
      <point x="494.3125" y="184.64583333333334" type="curve" smooth="yes"/>
      <point x="464.25" y="124.6875" type="line" smooth="yes"/>
      <point x="438.59027777777777" y="74.56944444444444"/>
      <point x="404.68055555555554" y="52.09722222222222"/>
      <point x="340.8888888888889" y="52.09722222222222" type="curve" smooth="yes"/>
      <point x="301.81944444444446" y="52.09722222222222" type="line" smooth="yes"/>
      <point x="258.11805555555554" y="52.09722222222222"/>
      <point x="238.28472222222223" y="71.18055555555556"/>
      <point x="238.28472222222223" y="111.90972222222223" type="curve" smooth="yes"/>
      <point x="238.28472222222223" y="598.9861111111111" type="line" smooth="yes"/>
      <point x="238.28472222222223" y="625.3869731800766"/>
      <point x="249.59027777777777" y="637.7569444444445"/>
      <point x="273.3125" y="643.2638888888889" type="curve" smooth="yes"/>
    </contour>
  </outline>
</glyph>
<glyph name="N" format="2">
  <advance width="748.6805555555555"/>
  <unicode hex="004E"/>
  <outline>
    <contour>
      <point x="280.0486111111111" y="23.04861111111111" type="curve" smooth="yes"/>
      <point x="280.0486111111111" y="36.21527777777778"/>
      <point x="274.03472222222223" y="41.826388888888886"/>
      <point x="261.625" y="48.96527777777778" type="curve" smooth="yes"/>
      <point x="215.79861111111111" y="73.04861111111111" type="line" smooth="yes"/>
      <point x="194.71527777777777" y="85.13194444444444"/>
      <point x="182.04861111111111" y="104.70833333333333"/>
      <point x="182.04861111111111" y="126.61805555555556" type="curve" smooth="yes"/>
      <point x="182.04861111111111" y="566.1111111111111" type="line"/>
      <point x="163.60416666666666" y="536.9027777777778" type="line"/>
      <point x="534.6180555555555" y="70.36111111111111" type="line" smooth="yes"/>
      <point x="546.9513888888889" y="56.08333333333333"/>
      <point x="549.8055555555555" y="47.611111111111114"/>
      <point x="549.8055555555555" y="33.798611111111114" type="curve" smooth="yes"/>
      <point x="549.8055555555555" y="17.395833333333332"/>
      <point x="562.8263888888889" y="0.0"/>
      <point x="584.2361111111111" y="0.0" type="curve" smooth="yes"/>
      <point x="670.8680555555555" y="0.0" type="line" smooth="yes"/>
      <point x="686.4437724014336" y="0.0"/>
      <point x="696.5416666666666" y="8.233091787439614"/>
      <point x="696.5416666666666" y="23.72222222222222" type="curve" smooth="yes"/>
      <point x="696.5416666666666" y="34.423611111111114"/>
      <point x="695.3831091306353" y="42.62277760111767"/>
      <point x="683.7083333333334" y="56.88194444444444" type="curve" smooth="yes"/>
      <point x="650.6805555555555" y="98.71527777777777" type="line" smooth="yes"/>
      <point x="641.375" y="109.49305555555556"/>
      <point x="634.125" y="124.27083333333333"/>
      <point x="634.125" y="142.9375" type="curve" smooth="yes"/>
      <point x="634.125" y="564.7222222222222" type="line" smooth="yes"/>
      <point x="634.125" y="596.7222222222222"/>
      <point x="644.9930555555555" y="615.4305555555555"/>
      <point x="664.5069444444445" y="626.2222222222222" type="curve" smooth="yes"/>
      <point x="705.8888888888889" y="646.7847222222222" type="line" smooth="yes"/>
      <point x="723.7083333333334" y="656.5555555555555"/>
      <point x="727.125" y="664.8611111111111"/>
      <point x="727.125" y="677.0069444444445" type="curve" smooth="yes"/>
      <point x="727.125" y="690.2608024691358"/>
      <point x="717.7453703703704" y="700.0"/>
      <point x="702.4722222222222" y="700.0" type="curve" smooth="yes"/>
      <point x="493.2638888888889" y="700.0" type="line" smooth="yes"/>
      <point x="480.1666666666667" y="700.0"/>
      <point x="472.0833333333333" y="691.2638888888889"/>
      <point x="472.0833333333333" y="677.4236111111111" type="curve" smooth="yes"/>
      <point x="472.0833333333333" y="664.6736111111111"/>
      <point x="477.9258765067873" y="655.5081917372017"/>
      <point x="497.15277777777777" y="646.875" type="curve" smooth="yes"/>
      <point x="545.5833333333334" y="625.6805555555555" type="line" smooth="yes"/>
      <point x="567.0" y="615.8819444444445"/>
      <point x="575.0833333333334" y="600.7708333333334"/>
      <point x="575.0833333333334" y="566.5555555555555" type="curve" smooth="yes"/>
      <point x="575.0833333333334" y="126.83333333333333" type="line"/>
      <point x="598.8055555555555" y="176.375" type="line"/>
      <point x="205.90972222222223" y="673.1944444444445" type="line" smooth="yes"/>
      <point x="187.9375" y="694.5486111111111"/>
      <point x="178.53869047619048" y="700.0"/>
      <point x="163.4375" y="700.0" type="curve" smooth="yes"/>
      <point x="59.5" y="700.0" type="line" smooth="yes"/>
      <point x="45.653001792114694" y="700.0"/>
      <point x="36.75" y="693.4236111111111"/>
      <point x="36.75" y="678.6736111111111" type="curve" smooth="yes"/>
      <point x="36.75" y="664.3781362007169"/>
      <point x="43.908953636599" y="657.1161847578968"/>
      <point x="55.44444444444444" y="646.0486111111111" type="curve" smooth="yes"/>
      <point x="99.28472222222223" y="601.4583333333334" type="line" smooth="yes"/>
      <point x="115.29861111111111" y="585.8611111111111"/>
      <point x="123.00694444444444" y="572.8472222222222"/>
      <point x="123.00694444444444" y="543.8611111111111" type="curve" smooth="yes"/>
      <point x="123.00694444444444" y="123.80555555555556" type="line" smooth="yes"/>
      <point x="123.00694444444444" y="100.11805555555556"/>
      <point x="109.70138888888889" y="81.5"/>
      <point x="92.97916666666667" y="73.04861111111111" type="curve" smooth="yes"/>
      <point x="46.0625" y="49.4375" type="line" smooth="yes"/>
      <point x="31.819444444444443" y="41.88194444444444"/>
      <point x="24.006944444444443" y="35.27083333333333"/>
      <point x="24.006944444444443" y="21.104166666666664" type="curve" smooth="yes"/>
      <point x="24.006944444444443" y="5.432098765432099"/>
      <point x="34.50694444444444" y="0.0"/>
      <point x="48.49305555555556" y="0.0" type="curve" smooth="yes"/>
      <point x="252.61805555555554" y="0.0" type="line" smooth="yes"/>
      <point x="269.0763888888889" y="0.0"/>
      <point x="280.0486111111111" y="7.645833333333333"/>
    </contour>
  </outline>
</glyph>
<glyph name="O" format="2">
  <advance width="769.1736111111111"/>
  <unicode hex="004F"/>
  <outline>
    <contour>
      <point x="395.6875" y="711.4166666666666" type="curve" smooth="yes"/>
      <point x="177.61062661498707" y="711.4166666666666"/>
      <point x="34.645833333333336" y="550.4097222222222"/>
      <point x="34.645833333333336" y="343.44444444444446" type="curve" smooth="yes"/>
      <point x="34.645833333333336" y="134.89583333333334"/>
      <point x="170.9627914951989" y="-12.36111111111111"/>
      <point x="374.5763888888889" y="-12.36111111111111" type="curve" smooth="yes"/>
      <point x="589.1776401036605" y="-12.36111111111111"/>
      <point x="734.6180555555555" y="145.36805555555554"/>
      <point x="734.6180555555555" y="365.55555555555554" type="curve" smooth="yes"/>
      <point x="734.6180555555555" y="563.3819444444445"/>
      <point x="596.7589869281046" y="711.4166666666666"/>
    </contour>
    <contour>
      <point x="606.0277777777778" y="307.09722222222223" type="curve" smooth="yes"/>
      <point x="606.0277777777778" y="134.36111111111111"/>
      <point x="528.6953428676201" y="50.861111111111114"/>
      <point x="417.84027777777777" y="50.861111111111114" type="curve" smooth="yes"/>
      <point x="287.43683178319304" y="50.861111111111114"/>
      <point x="162.29166666666666" y="192.09722222222223"/>
      <point x="162.29166666666666" y="399.5416666666667" type="curve" smooth="yes"/>
      <point x="162.29166666666666" y="558.2638888888889"/>
      <point x="239.12105721062198" y="651.4305555555555"/>
      <point x="349.2013888888889" y="651.4305555555555" type="curve" smooth="yes"/>
      <point x="481.3182850064977" y="651.4305555555555"/>
      <point x="606.0277777777778" y="507.97222222222223"/>
    </contour>
  </outline>
</glyph>
<glyph name="P" format="2">
  <advance width="638.6041666666666"/>
  <unicode hex="0050"/>
  <outline>
    <contour>
      <point x="617.8888888888889" y="439.25" type="curve" smooth="yes"/>
      <point x="617.8888888888889" y="594.9661738351255"/>
      <point x="489.05555555555554" y="700.0"/>
      <point x="295.77777777777777" y="700.0" type="curve" smooth="yes"/>
      <point x="46.375" y="700.0" type="line" smooth="yes"/>
      <point x="32.16353046594982" y="700.0"/>
      <point x="24.34722222222222" y="692.0879629629629"/>
      <point x="24.34722222222222" y="678.3333333333334" type="curve" smooth="yes"/>
      <point x="24.34722222222222" y="666.0555555555555"/>
      <point x="30.180555555555557" y="657.8819444444445"/>
      <point x="43.375" y="654.8125" type="curve" smooth="yes"/>
      <point x="84.20833333333333" y="646.7013888888889" type="line" smooth="yes"/>
      <point x="103.84541922457053" y="642.2680045854316"/>
      <point x="114.34722222222223" y="628.0557098765432"/>
      <point x="114.34722222222223" y="608.5625" type="curve" smooth="yes"/>
      <point x="114.34722222222223" y="88.29166666666667" type="line" smooth="yes"/>
      <point x="114.34722222222223" y="69.98611111111111"/>
      <point x="103.98611111111111" y="56.71527777777778"/>
      <point x="83.68055555555556" y="52.20833333333333" type="curve" smooth="yes"/>
      <point x="44.43055555555556" y="44.625" type="line" smooth="yes"/>
      <point x="29.825538820522752" y="41.29606013774005"/>
      <point x="24.34722222222222" y="33.38194444444444"/>
      <point x="24.34722222222222" y="21.104166666666664" type="curve" smooth="yes"/>
      <point x="24.34722222222222" y="8.158333333333333"/>
      <point x="31.65277777777778" y="0.0"/>
      <point x="44.79166666666667" y="0.0" type="curve" smooth="yes"/>
      <point x="307.40277777777777" y="0.0" type="line" smooth="yes"/>
      <point x="320.5801971326165" y="0.0"/>
      <point x="328.90277777777777" y="7.652777777777778"/>
      <point x="328.90277777777777" y="20.04861111111111" type="curve" smooth="yes"/>
      <point x="328.90277777777777" y="32.968900966183575"/>
      <point x="322.1291884257205" y="41.957571801384155"/>
      <point x="309.34722222222223" y="44.625" type="curve" smooth="yes"/>
      <point x="268.5138888888889" y="52.736111111111114" type="line" smooth="yes"/>
      <point x="249.26388888888889" y="57.24305555555556"/>
      <point x="238.90277777777777" y="69.98611111111111"/>
      <point x="238.90277777777777" y="87.23611111111111" type="curve" smooth="yes"/>
      <point x="238.90277777777777" y="653.2222222222222" type="line"/>
      <point x="290.77777777777777" y="653.2222222222222" type="line" smooth="yes"/>
      <point x="406.4571119486321" y="653.2222222222222"/>
      <point x="488.3888888888889" y="570.4305555555555"/>
      <point x="488.3888888888889" y="455.5625" type="curve" smooth="yes"/>
      <point x="488.3888888888889" y="338.3541666666667"/>
      <point x="417.6041666666667" y="270.25694444444446"/>
      <point x="322.59722222222223" y="270.25694444444446" type="curve" smooth="yes"/>
      <point x="254.34027777777777" y="270.25694444444446"/>
      <point x="212.90972222222223" y="284.90972222222223"/>
      <point x="173.47222222222223" y="308.9513888888889" type="curve"/>
      <point x="163.47222222222223" y="265.36805555555554" type="line"/>
      <point x="210.0625" y="236.42361111111111"/>
      <point x="258.68055555555554" y="221.42361111111111"/>
      <point x="351.47222222222223" y="221.42361111111111" type="curve" smooth="yes"/>
      <point x="510.03472222222223" y="221.42361111111111"/>
      <point x="617.8888888888889" y="308.84241452991455"/>
    </contour>
  </outline>
</glyph>
<glyph name="U" format="2">
  <advance width="664.3472222222222"/>
  <unicode hex="0055"/>
  <anchor x="352.19444444444446" y="730.0" name="center"/>
  <outline>
    <contour>
      <point x="529.8888888888889" y="298.71527777777777" type="line" smooth="yes"/>
      <point x="531.4513888888889" y="272.13194444444446"/>
      <point x="533.8888888888889" y="247.07638888888889"/>
      <point x="533.8888888888889" y="200.4375" type="curve" smooth="yes"/>
      <point x="533.8888888888889" y="110.20138888888889"/>
      <point x="474.7361111111111" y="56.20833333333333"/>
      <point x="370.86805555555554" y="56.20833333333333" type="curve" smooth="yes"/>
      <point x="265.68055555555554" y="56.20833333333333"/>
      <point x="203.19444444444446" y="115.57638888888889"/>
      <point x="203.19444444444446" y="225.1875" type="curve" smooth="yes"/>
      <point x="203.19444444444446" y="248.0625"/>
      <point x="204.13888888888889" y="281.99305555555554"/>
      <point x="206.66666666666666" y="320.8333333333333" type="curve" smooth="yes"/>
      <point x="224.74305555555554" y="607.3333333333334" type="line" smooth="yes"/>
      <point x="226.21527777777777" y="629.6875"/>
      <point x="235.86111111111111" y="644.5833333333334"/>
      <point x="257.375" y="650.7777777777778" type="curve" smooth="yes"/>
      <point x="298.1111111111111" y="662.0555555555555" type="line" smooth="yes"/>
      <point x="309.25" y="665.0347222222222"/>
      <point x="315.02777777777777" y="670.1388888888889"/>
      <point x="315.02777777777777" y="682.2361111111111" type="curve" smooth="yes"/>
      <point x="315.02777777777777" y="694.4236111111111"/>
      <point x="309.72222222222223" y="700.0"/>
      <point x="296.6388888888889" y="700.0" type="curve" smooth="yes"/>
      <point x="34.611111111111114" y="700.0" type="line" smooth="yes"/>
      <point x="22.055555555555557" y="700.0"/>
      <point x="16.75" y="694.4236111111111"/>
      <point x="16.75" y="682.2361111111111" type="curve" smooth="yes"/>
      <point x="16.75" y="670.6666666666666"/>
      <point x="23.09027777777778" y="668.1597222222222"/>
      <point x="33.666666666666664" y="662.5833333333334" type="curve" smooth="yes"/>
      <point x="67.72916666666667" y="650.7777777777778" type="line" smooth="yes"/>
      <point x="86.55555555555556" y="642.6041666666666"/>
      <point x="99.02083333333333" y="622.375"/>
      <point x="96.98611111111111" y="595.5208333333334" type="curve" smooth="yes"/>
      <point x="79.09027777777777" y="323.6458333333333" type="line" smooth="yes"/>
      <point x="77.04199640770592" y="291.8015400546243"/>
      <point x="71.0" y="229.27795245212403"/>
      <point x="71.0" y="200.09027777777777" type="curve" smooth="yes"/>
      <point x="71.0" y="71.83221960167714"/>
      <point x="157.57638888888889" y="-15.0"/>
      <point x="320.84722222222223" y="-15.0" type="curve" smooth="yes"/>
      <point x="509.8958333333333" y="-15.0"/>
      <point x="596.9305555555555" y="79.28472222222223"/>
      <point x="596.9305555555555" y="198.54861111111111" type="curve" smooth="yes"/>
      <point x="596.9305555555555" y="234.13194444444446"/>
      <point x="594.4930555555555" y="267.24305555555554"/>
      <point x="591.9305555555555" y="301.8263888888889" type="curve" smooth="yes"/>
      <point x="571.2083333333334" y="592.6319444444445" type="line" smooth="yes"/>
      <point x="569.0833333333334" y="615.7777777777778"/>
      <point x="580.9652777777778" y="634.9305555555555"/>
      <point x="600.9166666666666" y="643.7777777777778" type="curve" smooth="yes"/>
      <point x="639.1527777777778" y="660.5277777777778" type="line" smooth="yes"/>
      <point x="652.9305555555555" y="666.5972222222222"/>
      <point x="657.3472222222222" y="671.6458333333334"/>
      <point x="657.3472222222222" y="683.2361111111111" type="curve" smooth="yes"/>
      <point x="657.3472222222222" y="692.9166666666666"/>
      <point x="650.5138888888889" y="700.0"/>
      <point x="641.7361111111111" y="700.0" type="curve" smooth="yes"/>
      <point x="435.19444444444446" y="700.0" type="line" smooth="yes"/>
      <point x="423.0" y="700.0"/>
      <point x="415.1666666666667" y="694.8958333333334"/>
      <point x="415.1666666666667" y="681.7083333333334" type="curve" smooth="yes"/>
      <point x="415.1666666666667" y="672.625"/>
      <point x="421.94444444444446" y="664.5416666666666"/>
      <point x="434.55555555555554" y="659.5277777777778" type="curve" smooth="yes"/>
      <point x="477.06944444444446" y="643.7777777777778" type="line" smooth="yes"/>
      <point x="502.65972222222223" y="632.9305555555555"/>
      <point x="511.4166666666667" y="624.0"/>
      <point x="513.5416666666666" y="592.6319444444445" type="curve" smooth="yes"/>
    </contour>
  </outline>
</glyph>
<glyph name="X" format="2">
  <advance width="690.4513888888889"/>
  <unicode hex="0058"/>
  <outline>
    <contour>
      <point x="608.5138888888889" y="90.09722222222223" type="curve" smooth="yes"/>
      <point x="251.38888888888889" y="591.5277777777778" type="line" smooth="yes"/>
      <point x="231.95833333333331" y="617.9930555555555"/>
      <point x="236.28472222222223" y="640.25"/>
      <point x="266.0763888888889" y="647.4652777777778" type="curve" smooth="yes"/>
      <point x="288.3125" y="652.9236111111111" type="line" smooth="yes"/>
      <point x="299.65277777777777" y="655.8680555555555"/>
      <point x="307.8263888888889" y="663.6944444444445"/>
      <point x="307.8263888888889" y="678.0069444444445" type="curve" smooth="yes"/>
      <point x="307.8263888888889" y="692.3541666666666"/>
      <point x="298.09027777777777" y="700.0"/>
      <point x="281.65277777777777" y="700.0" type="curve" smooth="yes"/>
      <point x="29.20138888888889" y="700.0" type="line" smooth="yes"/>
      <point x="18.0625" y="700.0"/>
      <point x="9.8125" y="692.8263888888889"/>
      <point x="9.8125" y="678.9513888888889" type="curve" smooth="yes"/>
      <point x="9.8125" y="667.7986111111111"/>
      <point x="14.555555555555555" y="658.9722222222222"/>
      <point x="34.361111111111114" y="651.5416666666666" type="curve" smooth="yes"/>
      <point x="58.77777777777778" y="643.0694444444445"/>
      <point x="68.70833333333333" y="634.4513888888889"/>
      <point x="88.58333333333333" y="606.9027777777778" type="curve" smooth="yes"/>
      <point x="443.0625" y="115.88194444444444" type="line" smooth="yes"/>
      <point x="471.5663626955665" y="77.22274804369567"/>
      <point x="464.0397727272727" y="56.861111111111114"/>
      <point x="413.8125" y="50.111111111111114" type="curve" smooth="yes"/>
      <point x="400.0798611111111" y="47.298611111111114"/>
      <point x="392.3125" y="40.325"/>
      <point x="392.3125" y="25.17361111111111" type="curve" smooth="yes"/>
      <point x="392.3125" y="10.29861111111111"/>
      <point x="403.9375" y="0.0"/>
      <point x="420.72222222222223" y="0.0" type="curve" smooth="yes"/>
      <point x="660.9513888888889" y="0.0" type="line" smooth="yes"/>
      <point x="676.5902777777778" y="0.0"/>
      <point x="685.4375" y="9.208333333333332"/>
      <point x="685.4375" y="22.993055555555557" type="curve" smooth="yes"/>
      <point x="685.4375" y="38.8125"/>
      <point x="678.0972222222222" y="47.05555555555556"/>
      <point x="665.4513888888889" y="48.52777777777778" type="curve" smooth="yes"/>
      <point x="644.2222222222222" y="51.70833333333333"/>
      <point x="628.1666666666666" y="63.298611111111114"/>
    </contour>
    <contour>
      <point x="378.2291666666667" y="333.1666666666667" type="line"/>
      <point x="548.4652777777778" y="567.5972222222222" type="line" smooth="yes"/>
      <point x="582.3402777777778" y="613.8611111111111"/>
      <point x="618.8194444444445" y="636.1597222222222"/>
      <point x="642.3958333333334" y="643.7916666666666" type="curve" smooth="yes"/>
      <point x="663.7083333333334" y="651.5486111111111"/>
      <point x="671.25" y="660.4652777777778"/>
      <point x="671.8125" y="676.7013888888889" type="curve" smooth="yes"/>
      <point x="672.375" y="690.4861111111111"/>
      <point x="662.4583333333334" y="700.0"/>
      <point x="645.1805555555555" y="700.0" type="curve" smooth="yes"/>
      <point x="444.28472222222223" y="700.0" type="line" smooth="yes"/>
      <point x="427.68055555555554" y="700.0"/>
      <point x="419.15972222222223" y="692.3541666666666"/>
      <point x="419.15972222222223" y="678.0069444444445" type="curve" smooth="yes"/>
      <point x="419.15972222222223" y="663.7847222222222"/>
      <point x="426.9375" y="657.2986111111111"/>
      <point x="445.30555555555554" y="650.5972222222222" type="curve" smooth="yes"/>
      <point x="474.8125" y="641.3055555555555" type="line" smooth="yes"/>
      <point x="500.80555555555554" y="632.4027777777778"/>
      <point x="504.86805555555554" y="597.7569444444445"/>
      <point x="479.59722222222223" y="563.2152777777778" type="curve" smooth="yes"/>
      <point x="336.8541666666667" y="358.6666666666667" type="line"/>
    </contour>
    <contour>
      <point x="317.2986111111111" y="369.4166666666667" type="line"/>
      <point x="144.79861111111111" y="135.00694444444446" type="line" smooth="yes"/>
      <point x="111.5" y="88.90277777777777"/>
      <point x="75.40277777777777" y="64.42361111111111"/>
      <point x="37.111111111111114" y="58.13194444444444" type="curve" smooth="yes"/>
      <point x="10.354166666666666" y="53.0625"/>
      <point x="2.8125" y="37.86472222222222"/>
      <point x="2.8125" y="27.11111111111111" type="curve" smooth="yes"/>
      <point x="2.8125" y="8.29861111111111"/>
      <point x="13.854166666666666" y="-0.09027777777777768"/>
      <point x="31.166666666666664" y="-0.09027777777777768" type="curve" smooth="yes"/>
      <point x="236.88194444444446" y="-0.09027777777777768" type="line" smooth="yes"/>
      <point x="254.97844827586206" y="-0.09027777777777768"/>
      <point x="264.11805555555554" y="8.645833333333332"/>
      <point x="264.11805555555554" y="22.48611111111111" type="curve" smooth="yes"/>
      <point x="264.11805555555554" y="32.27430555555556"/>
      <point x="260.41196434767147" y="41.97812345230176"/>
      <point x="240.3125" y="50.3125" type="curve" smooth="yes"/>
      <point x="207.50694444444446" y="62.84027777777778" type="line" smooth="yes"/>
      <point x="183.28472222222223" y="71.84027777777777"/>
      <point x="177.61111111111111" y="95.09722222222223"/>
      <point x="196.22916666666666" y="120.17361111111111" type="curve" smooth="yes"/>
      <point x="358.2013888888889" y="343.3888888888889" type="line"/>
    </contour>
  </outline>
</glyph>
<glyph name="bracketleft" format="2">
  <advance width="373.3125"/>
  <unicode hex="005B"/>
  <outline>
    <contour>
      <point x="219.5" y="659.125" type="line" smooth="yes"/>
      <point x="219.5" y="684.3125"/>
      <point x="239.5625" y="704.375"/>
      <point x="263.75" y="704.375" type="curve" smooth="yes"/>
      <point x="326.875" y="704.375" type="line" smooth="yes"/>
      <point x="351.75" y="704.375"/>
      <point x="361.125" y="711.625"/>
      <point x="361.125" y="728.6875" type="curve" smooth="yes"/>
      <point x="361.125" y="742.625"/>
      <point x="351.75" y="756.0"/>
      <point x="328.875" y="756.0" type="curve" smooth="yes"/>
      <point x="160.0" y="756.0" type="line" smooth="yes"/>
      <point x="130.8125" y="756.0"/>
      <point x="108.75" y="728.9375"/>
      <point x="108.75" y="695.75" type="curve" smooth="yes"/>
      <point x="108.75" y="-116.75" type="line" smooth="yes"/>
      <point x="108.75" y="-149.9375"/>
      <point x="130.8125" y="-177.0"/>
      <point x="160.0" y="-177.0" type="curve" smooth="yes"/>
      <point x="328.875" y="-177.0" type="line" smooth="yes"/>
      <point x="351.75" y="-177.0"/>
      <point x="361.125" y="-163.0625"/>
      <point x="361.125" y="-149.6875" type="curve" smooth="yes"/>
      <point x="361.125" y="-132.625"/>
      <point x="351.75" y="-125.375"/>
      <point x="326.875" y="-125.375" type="curve" smooth="yes"/>
      <point x="263.75" y="-125.375" type="line" smooth="yes"/>
      <point x="239.5625" y="-125.375"/>
      <point x="219.5" y="-105.3125"/>
      <point x="219.5" y="-80.125" type="curve" smooth="yes"/>
    </contour>
  </outline>
</glyph>
<glyph name="backslash" format="2">
  <advance width="420.0"/>
  <unicode hex="005C"/>
  <outline>
    <contour>
      <point x="40.75" y="690.75" type="curve" smooth="yes"/>
      <point x="35.75" y="702.75"/>
      <point x="32.75" y="712.75"/>
      <point x="32.75" y="720.75" type="curve" smooth="yes"/>
      <point x="32.75" y="748.5"/>
      <point x="52.86363636363637" y="767.0"/>
      <point x="77.0" y="767.0" type="curve" smooth="yes"/>
      <point x="103.08108108108108" y="767.0"/>
      <point x="120.125" y="744.375"/>
      <point x="125.25" y="720.75" type="curve" smooth="yes"/>
      <point x="147.1875" y="626.75"/>
      <point x="179.875" y="491.75"/>
      <point x="229.6875" y="344.125" type="curve" smooth="yes"/>
      <point x="282.0" y="187.5625"/>
      <point x="342.875" y="63.75"/>
      <point x="379.25" y="-26.75" type="curve" smooth="yes"/>
      <point x="386.6875" y="-44.75"/>
      <point x="388.25" y="-55.75"/>
      <point x="388.25" y="-65.75" type="curve" smooth="yes"/>
      <point x="388.25" y="-85.18103448275862"/>
      <point x="370.375" y="-106.0"/>
      <point x="347.0" y="-106.0" type="curve" smooth="yes"/>
      <point x="322.1086956521739" y="-106.0"/>
      <point x="298.875" y="-89.625"/>
      <point x="289.75" y="-50.75" type="curve" smooth="yes"/>
      <point x="269.125" y="39.375"/>
      <point x="244.4375" y="156.1875"/>
      <point x="188.875" y="327.875" type="curve" smooth="yes"/>
      <point x="139.4375" y="484.6875"/>
      <point x="78.5625" y="606.9375"/>
    </contour>
  </outline>
</glyph>
<glyph name="asciicircum" format="2">
  <advance width="430.0"/>
  <unicode hex="005E"/>
  <outline>
    <contour>
      <point x="54.625" y="496.6875" type="curve" smooth="yes"/>
      <point x="136.125" y="644.6875" type="line" smooth="yes"/>
      <point x="165.6575209132577" y="697.9705296543046"/>
      <point x="184.2171052631579" y="715.0"/>
      <point x="216.0" y="715.0" type="curve" smooth="yes"/>
      <point x="244.61486486486487" y="715.0"/>
      <point x="264.799920545751" y="697.907854272123"/>
      <point x="293.875" y="646.6875" type="curve" smooth="yes"/>
      <point x="376.9375" y="496.6875" type="line" smooth="yes"/>
      <point x="384.592050346988" y="483.38116388603817"/>
      <point x="393.125" y="467.45454545454544"/>
      <point x="393.125" y="450.75" type="curve" smooth="yes"/>
      <point x="393.125" y="435.27500000000003"/>
      <point x="385.3491379310345" y="425.6875"/>
      <point x="368.3125" y="425.6875" type="curve" smooth="yes"/>
      <point x="355.8662587412587" y="425.6875"/>
      <point x="341.7563167351194" y="430.384590251679"/>
      <point x="321.8125" y="453.3125" type="curve" smooth="yes"/>
      <point x="187.4375" y="613.625" type="line"/>
      <point x="243.5625" y="613.625" type="line"/>
      <point x="109.1875" y="453.3125" type="line" smooth="yes"/>
      <point x="89.36076392417952" y="430.76717562101004"/>
      <point x="75.76442307692308" y="425.6875"/>
      <point x="63.8125" y="425.6875" type="curve" smooth="yes"/>
      <point x="46.375" y="425.6875"/>
      <point x="37.4375" y="435.05"/>
      <point x="37.4375" y="450.1875" type="curve" smooth="yes"/>
      <point x="37.4375" y="467.09659090909093"/>
      <point x="46.323448005970945" y="482.14699019591524"/>
    </contour>
  </outline>
</glyph>
<glyph name="b" format="2">
  <advance width="537.7777777777778"/>
  <unicode hex="0062"/>
  <outline>
    <contour>
      <point x="15.604166666666668" y="631.1736111111111" type="curve" smooth="yes"/>
      <point x="34.479166666666664" y="631.1736111111111" type="line" smooth="yes"/>
      <point x="46.27777777777778" y="631.1736111111111"/>
      <point x="55.40277777777778" y="621.5833333333334"/>
      <point x="55.40277777777778" y="603.3055555555555" type="curve" smooth="yes"/>
      <point x="55.40277777777778" y="13.645833333333332" type="line" smooth="yes"/>
      <point x="55.40277777777778" y="0.8175505050505052"/>
      <point x="62.61805555555556" y="-6.375"/>
      <point x="73.07638888888889" y="-6.375" type="curve" smooth="yes"/>
      <point x="85.29207516339869" y="-6.375"/>
      <point x="94.125" y="-4.430555555555555"/>
      <point x="110.86805555555556" y="3.1458333333333335" type="curve" smooth="yes"/>
      <point x="169.5625" y="34.44444444444444" type="line" smooth="yes"/>
      <point x="169.5625" y="692.8125" type="line" smooth="yes"/>
      <point x="169.5625" y="708.4722222222222"/>
      <point x="160.77083333333334" y="720.625"/>
      <point x="146.90972222222223" y="720.625" type="curve" smooth="yes"/>
      <point x="132.61111111111111" y="720.625"/>
      <point x="124.50694444444444" y="715.2291666666666"/>
      <point x="106.61111111111111" y="708.6319444444445" type="curve" smooth="yes"/>
      <point x="11.402777777777777" y="669.5902777777778" type="line" smooth="yes"/>
      <point x="-4.659722222222222" y="663.6458333333334"/>
      <point x="-8.833333333333332" y="654.4722222222222"/>
      <point x="-8.833333333333332" y="645.0833333333334" type="curve" smooth="yes"/>
      <point x="-8.833333333333332" y="636.3125"/>
      <point x="-0.45833333333333304" y="631.1736111111111"/>
    </contour>
    <contour>
      <point x="128.24305555555554" y="330.65972222222223" type="line"/>
      <point x="164.30555555555554" y="370.125"/>
      <point x="211.31944444444446" y="392.9861111111111"/>
      <point x="262.4236111111111" y="392.9861111111111" type="curve" smooth="yes"/>
      <point x="347.1388888888889" y="392.9861111111111"/>
      <point x="399.3958333333333" y="314.25694444444446"/>
      <point x="399.3958333333333" y="210.3125" type="curve" smooth="yes"/>
      <point x="399.3958333333333" y="111.91666666666667"/>
      <point x="342.8541666666667" y="43.041666666666664"/>
      <point x="259.18055555555554" y="43.041666666666664" type="curve" smooth="yes"/>
      <point x="206.71527777777777" y="43.041666666666664"/>
      <point x="163.40972222222223" y="62.138888888888886"/>
      <point x="135.71527777777777" y="105.125" type="curve"/>
      <point x="112.29166666666667" y="74.43055555555556" type="line"/>
      <point x="153.59722222222223" y="16.180555555555557"/>
      <point x="212.28472222222223" y="-11.36111111111111"/>
      <point x="282.3333333333333" y="-11.36111111111111" type="curve" smooth="yes"/>
      <point x="419.59027777777777" y="-11.36111111111111"/>
      <point x="518.7708333333334" y="95.95833333333333"/>
      <point x="518.7708333333334" y="243.72916666666666" type="curve" smooth="yes"/>
      <point x="518.7708333333334" y="370.7986111111111"/>
      <point x="436.4861111111111" y="464.5138888888889"/>
      <point x="320.88194444444446" y="464.5138888888889" type="curve" smooth="yes"/>
      <point x="237.74305555555554" y="464.5138888888889"/>
      <point x="172.41666666666666" y="423.4375"/>
      <point x="114.48611111111111" y="356.3541666666667" type="curve"/>
    </contour>
  </outline>
</glyph>
<glyph name="e" format="2">
  <advance width="453.1875"/>
  <unicode hex="0065"/>
  <anchor x="245.88888888888889" y="506.94444444444446" name="center"/>
  <outline>
    <contour>
      <point x="435.06944444444446" y="288.2083333333333" type="curve" smooth="yes"/>
      <point x="435.06944444444446" y="390.5416666666667"/>
      <point x="363.86805555555554" y="464.0416666666667"/>
      <point x="257.5625" y="464.0416666666667" type="curve" smooth="yes"/>
      <point x="112.02777777777777" y="464.0416666666667"/>
      <point x="19.006944444444443" y="363.0763888888889"/>
      <point x="19.006944444444443" y="212.36805555555554" type="curve" smooth="yes"/>
      <point x="19.006944444444443" y="74.84264248084291"/>
      <point x="108.85702614379085" y="-12.36111111111111"/>
      <point x="239.60416666666666" y="-12.36111111111111" type="curve" smooth="yes"/>
      <point x="348.31030512377663" y="-12.36111111111111"/>
      <point x="428.31944444444446" y="56.65972222222222"/>
      <point x="433.06944444444446" y="127.67361111111111" type="curve" smooth="yes"/>
      <point x="433.59722222222223" y="142.4375"/>
      <point x="427.1921296296296" y="149.48611111111111"/>
      <point x="418.63194444444446" y="149.48611111111111" type="curve" smooth="yes"/>
      <point x="410.9555555555556" y="149.48611111111111"/>
      <point x="402.90277777777777" y="145.125"/>
      <point x="390.72222222222223" y="133.40972222222223" type="curve" smooth="yes"/>
      <point x="363.83117199414824" y="90.59173035364142"/>
      <point x="331.69444444444446" y="72.36111111111111"/>
      <point x="278.81944444444446" y="72.36111111111111" type="curve" smooth="yes"/>
      <point x="195.40972222222223" y="72.36111111111111"/>
      <point x="125.72222222222223" y="141.27453703703702"/>
      <point x="125.72222222222223" y="250.28472222222223" type="curve" smooth="yes"/>
      <point x="125.72222222222223" y="357.9166666666667"/>
      <point x="166.89727011494253" y="414.06944444444446"/>
      <point x="226.1875" y="414.06944444444446" type="curve" smooth="yes"/>
      <point x="279.6449121315193" y="414.06944444444446"/>
      <point x="315.5833333333333" y="371.4236111111111"/>
      <point x="315.5833333333333" y="305.5138888888889" type="curve" smooth="yes"/>
      <point x="315.5833333333333" y="286.0833333333333"/>
      <point x="302.78472222222223" y="274.5416666666667"/>
      <point x="283.9166666666667" y="274.5416666666667" type="curve" smooth="yes"/>
      <point x="91.04861111111111" y="274.5416666666667" type="line"/>
      <point x="91.04861111111111" y="239.625" type="line"/>
      <point x="383.34027777777777" y="239.625" type="line" smooth="yes"/>
      <point x="414.9166666666667" y="239.625"/>
      <point x="435.06944444444446" y="257.7916666666667"/>
    </contour>
  </outline>
</glyph>
<glyph name="f" format="2">
  <advance width="326.7916666666667"/>
  <unicode hex="0066"/>
  <outline>
    <contour>
      <point x="212.45833333333334" y="88.84722222222223" type="curve" smooth="yes"/>
      <point x="212.45833333333334" y="403.4583333333333" type="line"/>
      <point x="275.75694444444446" y="403.4583333333333" type="line" smooth="yes"/>
      <point x="301.5833333333333" y="403.4583333333333"/>
      <point x="318.1111111111111" y="415.0833333333333"/>
      <point x="318.1111111111111" y="433.68055555555554" type="curve" smooth="yes"/>
      <point x="318.1111111111111" y="445.9583333333333"/>
      <point x="309.90277777777777" y="452.15277777777777"/>
      <point x="296.3541666666667" y="452.15277777777777" type="curve" smooth="yes"/>
      <point x="203.33333333333334" y="452.15277777777777" type="line"/>
      <point x="213.45833333333334" y="444.0763888888889" type="line" smooth="yes"/>
      <point x="213.45833333333334" y="470.7113095238095"/>
      <point x="203.9875089985806" y="483.8371259779529"/>
      <point x="182.51388888888889" y="506.5208333333333" type="curve" smooth="yes"/>
      <point x="146.07967187178838" y="544.2296294878977"/>
      <point x="132.1875" y="573.8489583333333"/>
      <point x="132.1875" y="605.5" type="curve" smooth="yes"/>
      <point x="132.1875" y="645.702380952381"/>
      <point x="156.73661924119241" y="673.8472222222222"/>
      <point x="196.13194444444446" y="673.8472222222222" type="curve" smooth="yes"/>
      <point x="218.59166666666667" y="673.8472222222222"/>
      <point x="231.13194444444446" y="661.0"/>
      <point x="231.13194444444446" y="638.1597222222222" type="curve" smooth="yes"/>
      <point x="231.13194444444446" y="619.3611111111111" type="line" smooth="yes"/>
      <point x="231.13194444444446" y="588.7091894977169"/>
      <point x="255.22537878787878" y="567.6875"/>
      <point x="287.43055555555554" y="567.6875" type="curve" smooth="yes"/>
      <point x="318.6155437352246" y="567.6875"/>
      <point x="342.53472222222223" y="586.588219870328"/>
      <point x="342.53472222222223" y="624.7013888888889" type="curve" smooth="yes"/>
      <point x="342.53472222222223" y="678.5819246031746"/>
      <point x="301.1458333333333" y="715.0"/>
      <point x="222.3125" y="715.0" type="curve" smooth="yes"/>
      <point x="125.26388888888889" y="715.0"/>
      <point x="58.66666666666667" y="653.926511954993"/>
      <point x="58.66666666666667" y="574.6388888888889" type="curve" smooth="yes"/>
      <point x="58.66666666666667" y="506.546626984127"/>
      <point x="100.44444444444444" y="477.24305555555554"/>
      <point x="100.44444444444444" y="433.52777777777777" type="curve" smooth="yes"/>
      <point x="100.44444444444444" y="424.80555555555554" type="line"/>
      <point x="125.81944444444444" y="452.15277777777777" type="line"/>
      <point x="37.138888888888886" y="452.15277777777777" type="line" smooth="yes"/>
      <point x="23.98611111111111" y="452.15277777777777"/>
      <point x="16.430555555555557" y="445.0138888888889"/>
      <point x="16.430555555555557" y="434.3888888888889" type="curve" smooth="yes"/>
      <point x="16.430555555555557" y="423.7986111111111"/>
      <point x="25.368055555555557" y="416.3333333333333"/>
      <point x="38.02777777777778" y="412.2291666666667" type="curve" smooth="yes"/>
      <point x="72.51388888888889" y="400.2013888888889" type="line" smooth="yes"/>
      <point x="91.39622967406959" y="393.52700954693756"/>
      <point x="99.68055555555556" y="381.21527777777777"/>
      <point x="99.68055555555556" y="358.11805555555554" type="curve" smooth="yes"/>
      <point x="99.68055555555556" y="78.91666666666666" type="line" smooth="yes"/>
      <point x="99.68055555555556" y="60.24158249158249"/>
      <point x="89.84722222222223" y="51.0"/>
      <point x="77.54166666666666" y="48.05555555555556" type="curve" smooth="yes"/>
      <point x="43.236111111111114" y="39.888888888888886" type="line" smooth="yes"/>
      <point x="31.396512086973022" y="36.56395763104243"/>
      <point x="26.680555555555557" y="30.29861111111111"/>
      <point x="26.680555555555557" y="19.23611111111111" type="curve" smooth="yes"/>
      <point x="26.680555555555557" y="6.378472222222222"/>
      <point x="33.130050505050505" y="0.0"/>
      <point x="43.70833333333333" y="0.0" type="curve" smooth="yes"/>
      <point x="285.7916666666667" y="0.0" type="line" smooth="yes"/>
      <point x="301.25" y="0.0"/>
      <point x="307.2083333333333" y="5.8978174603174605"/>
      <point x="307.2083333333333" y="18.708333333333332" type="curve" smooth="yes"/>
      <point x="307.2083333333333" y="31.15674603174603"/>
      <point x="297.35386882168683" y="36.31917127225402"/>
      <point x="282.0" y="40.611111111111114" type="curve" smooth="yes"/>
      <point x="239.59722222222223" y="50.83333333333333" type="line" smooth="yes"/>
      <point x="222.02083333333334" y="55.72222222222222"/>
      <point x="212.45833333333334" y="69.60416666666667"/>
    </contour>
  </outline>
</glyph>
<glyph name="k" format="2">
  <advance width="549.1319444444445"/>
  <unicode hex="006B"/>
  <outline>
    <contour>
      <point x="321.0138888888889" y="318.3958333333333" type="line"/>
      <point x="485.9375" y="81.86805555555556" type="line" smooth="yes"/>
      <point x="502.0138888888889" y="58.951388888888886"/>
      <point x="517.8125" y="48.513888888888886"/>
      <point x="532.5138888888889" y="43.44444444444444" type="curve" smooth="yes"/>
      <point x="543.0" y="38.15972222222222"/>
      <point x="548.8888888888889" y="31.333333333333332"/>
      <point x="548.8888888888889" y="19.743055555555557" type="curve" smooth="yes"/>
      <point x="548.8888888888889" y="8.118055555555555"/>
      <point x="539.0277777777778" y="0.0"/>
      <point x="519.3888888888889" y="0.0" type="curve" smooth="yes"/>
      <point x="348.93055555555554" y="0.0" type="line" smooth="yes"/>
      <point x="338.2638888888889" y="0.0"/>
      <point x="331.0138888888889" y="6.611111111111111"/>
      <point x="331.0138888888889" y="17.708333333333332" type="curve" smooth="yes"/>
      <point x="331.0138888888889" y="28.118055555555557"/>
      <point x="338.31944444444446" y="32.53472222222222"/>
      <point x="347.31944444444446" y="38.416666666666664" type="curve" smooth="yes"/>
      <point x="362.5486111111111" y="44.138888888888886"/>
      <point x="369.56944444444446" y="52.354166666666664"/>
      <point x="369.56944444444446" y="64.19444444444444" type="curve" smooth="yes"/>
      <point x="369.56944444444446" y="72.57638888888889"/>
      <point x="366.09722222222223" y="79.39583333333333"/>
      <point x="361.80555555555554" y="86.77777777777777" type="curve" smooth="yes"/>
      <point x="251.32638888888889" y="255.78472222222223" type="line"/>
    </contour>
    <contour>
      <point x="160.63194444444446" y="208.84027777777777" type="line"/>
      <point x="342.5" y="349.0625" type="line" smooth="yes"/>
      <point x="365.77777777777777" y="367.34027777777777"/>
      <point x="369.34722222222223" y="379.99305555555554"/>
      <point x="369.34722222222223" y="390.84722222222223" type="curve" smooth="yes"/>
      <point x="369.34722222222223" y="402.5"/>
      <point x="363.78472222222223" y="407.46527777777777"/>
      <point x="341.9583333333333" y="413.59027777777777" type="curve" smooth="yes"/>
      <point x="330.61805555555554" y="418.25694444444446"/>
      <point x="325.81944444444446" y="425.4513888888889"/>
      <point x="325.81944444444446" y="436.0416666666667" type="curve" smooth="yes"/>
      <point x="325.81944444444446" y="448.1041666666667"/>
      <point x="334.25" y="453.11805555555554"/>
      <point x="348.65972222222223" y="453.11805555555554" type="curve" smooth="yes"/>
      <point x="516.1875" y="452.0625" type="line" smooth="yes"/>
      <point x="529.1111111111111" y="452.0625"/>
      <point x="536.1597222222222" y="443.9236111111111"/>
      <point x="536.1597222222222" y="433.24305555555554" type="curve" smooth="yes"/>
      <point x="536.1597222222222" y="421.09027777777777"/>
      <point x="529.6736111111111" y="414.8611111111111"/>
      <point x="509.7291666666667" y="409.1041666666667" type="curve" smooth="yes"/>
      <point x="477.2708333333333" y="400.3958333333333"/>
      <point x="446.28472222222223" y="376.86805555555554"/>
      <point x="407.36805555555554" y="346.36805555555554" type="curve" smooth="yes"/>
      <point x="189.03472222222223" y="176.45138888888889" type="line"/>
    </contour>
    <component base="l"/>
  </outline>
</glyph>
<glyph name="l" format="2">
  <advance width="279.8611111111111"/>
  <unicode hex="006C"/>
  <outline>
    <contour>
      <point x="199.95833333333334" y="698.7847222222222" type="curve" smooth="yes"/>
      <point x="199.95833333333334" y="74.89583333333333" type="line" smooth="yes"/>
      <point x="199.95833333333334" y="60.736111111111114"/>
      <point x="205.18055555555554" y="50.99305555555556"/>
      <point x="215.52777777777777" y="47.39583333333333" type="curve" smooth="yes"/>
      <point x="243.40972222222223" y="39.013888888888886" type="line" smooth="yes"/>
      <point x="256.38194444444446" y="34.4375"/>
      <point x="262.9583333333333" y="29.98611111111111"/>
      <point x="262.9583333333333" y="18.79861111111111" type="curve" smooth="yes"/>
      <point x="262.9583333333333" y="6.048611111111111"/>
      <point x="255.60416666666666" y="0.0"/>
      <point x="242.375" y="0.0" type="curve" smooth="yes"/>
      <point x="43.111111111111114" y="0.0" type="line" smooth="yes"/>
      <point x="30.25" y="0.0"/>
      <point x="22.47222222222222" y="7.173611111111111"/>
      <point x="22.47222222222222" y="19.270833333333332" type="curve" smooth="yes"/>
      <point x="22.47222222222222" y="30.42361111111111"/>
      <point x="28.25" y="34.78472222222222"/>
      <point x="39.84027777777778" y="38.979166666666664" type="curve" smooth="yes"/>
      <point x="65.82638888888889" y="46.14583333333333" type="line" smooth="yes"/>
      <point x="77.26388888888889" y="50.77777777777778"/>
      <point x="86.65277777777777" y="55.361111111111114"/>
      <point x="86.65277777777777" y="74.89583333333333" type="curve" smooth="yes"/>
      <point x="86.65277777777777" y="605.6666666666666" type="line" smooth="yes"/>
      <point x="86.65277777777777" y="621.6944444444445"/>
      <point x="76.36805555555556" y="629.6180555555555"/>
      <point x="66.96527777777777" y="629.6180555555555" type="curve" smooth="yes"/>
      <point x="41.88194444444444" y="629.6180555555555" type="line" smooth="yes"/>
      <point x="29.006944444444443" y="629.6180555555555"/>
      <point x="21.270833333333332" y="634.5763888888889"/>
      <point x="21.270833333333332" y="646.6527777777778" type="curve" smooth="yes"/>
      <point x="21.270833333333332" y="654.1180555555555"/>
      <point x="25.48611111111111" y="662.0555555555555"/>
      <point x="39.18055555555556" y="667.6319444444445" type="curve" smooth="yes"/>
      <point x="143.07638888888889" y="710.6875" type="line" smooth="yes"/>
      <point x="159.86111111111111" y="717.2638888888889"/>
      <point x="169.32638888888889" y="720.625"/>
      <point x="180.53472222222223" y="720.625" type="curve" smooth="yes"/>
      <point x="192.47222222222223" y="720.625"/>
      <point x="199.95833333333334" y="711.5763888888889"/>
    </contour>
  </outline>
</glyph>
<glyph name="m" format="2">
  <advance width="847.6319444444445"/>
  <unicode hex="006D"/>
  <outline>
    <contour>
      <point x="58.94444444444444" y="46.14583333333333" type="curve" smooth="yes"/>
      <point x="35.701388888888886" y="39.541666666666664" type="line" smooth="yes"/>
      <point x="23.20138888888889" y="34.81944444444444"/>
      <point x="18.368055555555557" y="29.770833333333332"/>
      <point x="18.368055555555557" y="19.743055555555557" type="curve" smooth="yes"/>
      <point x="18.368055555555557" y="7.083333333333333"/>
      <point x="26.92361111111111" y="0.0"/>
      <point x="41.05555555555556" y="0.0" type="curve" smooth="yes"/>
      <point x="232.91666666666666" y="0.0" type="line" smooth="yes"/>
      <point x="248.40972222222223" y="0.0"/>
      <point x="256.4375" y="6.048611111111111"/>
      <point x="256.4375" y="18.743055555555557" type="curve" smooth="yes"/>
      <point x="256.4375" y="30.895833333333332"/>
      <point x="250.04166666666666" y="34.81944444444444"/>
      <point x="237.375" y="39.451388888888886" type="curve" smooth="yes"/>
      <point x="211.25694444444446" y="47.30555555555556" type="line" smooth="yes"/>
      <point x="200.16666666666666" y="50.90277777777778"/>
      <point x="194.85416666666666" y="60.15277777777778"/>
      <point x="194.85416666666666" y="79.36111111111111" type="curve" smooth="yes"/>
      <point x="194.85416666666666" y="442.81944444444446" type="line" smooth="yes"/>
      <point x="194.85416666666666" y="455.6111111111111"/>
      <point x="187.36805555555554" y="464.5138888888889"/>
      <point x="175.95833333333334" y="464.5138888888889" type="curve" smooth="yes"/>
      <point x="163.75" y="464.5138888888889"/>
      <point x="153.75694444444446" y="460.40972222222223"/>
      <point x="136.53472222222223" y="453.5763888888889" type="curve" smooth="yes"/>
      <point x="35.64583333333333" y="412.8263888888889" type="line" smooth="yes"/>
      <point x="20.1875" y="406.34027777777777"/>
      <point x="15.534722222222221" y="398.22222222222223"/>
      <point x="15.534722222222221" y="389.7013888888889" type="curve" smooth="yes"/>
      <point x="15.534722222222221" y="377.2986111111111"/>
      <point x="23.145833333333332" y="372.06944444444446"/>
      <point x="36.423611111111114" y="372.06944444444446" type="curve" smooth="yes"/>
      <point x="59.888888888888886" y="372.06944444444446" type="line" smooth="yes"/>
      <point x="70.19444444444444" y="372.06944444444446"/>
      <point x="80.38888888888889" y="364.7638888888889"/>
      <point x="80.38888888888889" y="346.59027777777777" type="curve" smooth="yes"/>
      <point x="80.38888888888889" y="75.98611111111111" type="line" smooth="yes"/>
      <point x="80.38888888888889" y="61.076388888888886"/>
      <point x="73.31944444444444" y="51.52083333333333"/>
    </contour>
    <contour>
      <point x="489.00694444444446" y="334.72222222222223" type="line" smooth="yes"/>
      <point x="489.00694444444446" y="417.21527777777777"/>
      <point x="427.72222222222223" y="464.5138888888889"/>
      <point x="359.71527777777777" y="464.5138888888889" type="curve" smooth="yes"/>
      <point x="287.2361111111111" y="464.5138888888889"/>
      <point x="226.75" y="431.0763888888889"/>
      <point x="176.63194444444446" y="377.0763888888889" type="curve"/>
      <point x="152.59722222222223" y="351.69444444444446" type="line"/>
      <point x="175.97222222222223" y="326.65277777777777" type="line"/>
      <point x="194.63194444444446" y="346.3125" type="line" smooth="yes"/>
      <point x="224.24305555555554" y="377.7986111111111"/>
      <point x="258.71527777777777" y="387.75694444444446"/>
      <point x="291.06944444444446" y="387.75694444444446" type="curve" smooth="yes"/>
      <point x="341.0" y="387.75694444444446"/>
      <point x="376.1388888888889" y="355.8333333333333"/>
      <point x="376.1388888888889" y="291.0208333333333" type="curve" smooth="yes"/>
      <point x="376.1388888888889" y="83.13888888888889" type="line" smooth="yes"/>
      <point x="376.1388888888889" y="57.798611111111114"/>
      <point x="369.9375" y="47.798611111111114"/>
      <point x="354.3263888888889" y="44.854166666666664" type="curve" smooth="yes"/>
      <point x="333.25694444444446" y="40.30555555555556" type="line" smooth="yes"/>
      <point x="321.59027777777777" y="37.888888888888886"/>
      <point x="313.6875" y="31.27777777777778"/>
      <point x="313.6875" y="20.125" type="curve" smooth="yes"/>
      <point x="313.6875" y="6.520833333333333"/>
      <point x="321.59027777777777" y="0.0"/>
      <point x="332.0" y="0.0" type="curve" smooth="yes"/>
      <point x="525.8333333333334" y="0.0" type="line" smooth="yes"/>
      <point x="537.5902777777778" y="0.0"/>
      <point x="545.6736111111111" y="6.631944444444445"/>
      <point x="545.6736111111111" y="18.47222222222222" type="curve" smooth="yes"/>
      <point x="545.6736111111111" y="30.27777777777778"/>
      <point x="538.8055555555555" y="35.70833333333333"/>
      <point x="529.2986111111111" y="38.74305555555556" type="curve" smooth="yes"/>
      <point x="511.2986111111111" y="43.81944444444444" type="line" smooth="yes"/>
      <point x="498.8958333333333" y="46.729166666666664"/>
      <point x="489.00694444444446" y="57.14583333333333"/>
      <point x="489.00694444444446" y="76.31944444444444" type="curve" smooth="yes"/>
    </contour>
    <contour>
      <point x="462.40972222222223" y="328.1458333333333" type="line" smooth="yes"/>
      <point x="479.4583333333333" y="345.84722222222223" type="line" smooth="yes"/>
      <point x="509.50694444444446" y="376.6388888888889"/>
      <point x="540.3125" y="386.7916666666667"/>
      <point x="571.3541666666666" y="386.7916666666667" type="curve" smooth="yes"/>
      <point x="610.5277777777778" y="386.7916666666667"/>
      <point x="638.6388888888889" y="363.22222222222223"/>
      <point x="646.4791666666666" y="304.9583333333333" type="curve" smooth="yes"/>
      <point x="676.1527777777778" y="89.09722222222223" type="line" smooth="yes"/>
      <point x="679.625" y="60.63194444444444"/>
      <point x="672.5902777777778" y="50.798611111111114"/>
      <point x="653.7708333333334" y="46.18055555555556" type="curve" smooth="yes"/>
      <point x="634.1041666666666" y="41.013888888888886" type="line" smooth="yes"/>
      <point x="622.0763888888889" y="37.888888888888886"/>
      <point x="613.7361111111111" y="30.479166666666664"/>
      <point x="613.7361111111111" y="20.21527777777778" type="curve" smooth="yes"/>
      <point x="613.7361111111111" y="6.520833333333333"/>
      <point x="622.0763888888889" y="0.0"/>
      <point x="632.7430555555555" y="0.0" type="curve" smooth="yes"/>
      <point x="824.4097222222222" y="0.0" type="line" smooth="yes"/>
      <point x="835.1875" y="0.0"/>
      <point x="843.8888888888889" y="6.555555555555555"/>
      <point x="843.8888888888889" y="18.743055555555557" type="curve" smooth="yes"/>
      <point x="843.8888888888889" y="29.84027777777778"/>
      <point x="838.1666666666666" y="35.979166666666664"/>
      <point x="829.4444444444445" y="38.923611111111114" type="curve" smooth="yes"/>
      <point x="814.4930555555555" y="45.673611111111114" type="line" smooth="yes"/>
      <point x="804.5833333333334" y="49.673611111111114"/>
      <point x="799.0555555555555" y="59.541666666666664"/>
      <point x="796.0555555555555" y="82.24305555555556" type="curve" smooth="yes"/>
      <point x="760.4027777777778" y="335.6875" type="line" smooth="yes"/>
      <point x="749.0" y="419.4791666666667"/>
      <point x="700.7013888888889" y="464.5138888888889"/>
      <point x="636.8333333333334" y="464.5138888888889" type="curve" smooth="yes"/>
      <point x="569.9652777777778" y="464.5138888888889"/>
      <point x="513.7638888888889" y="433.9583333333333"/>
      <point x="459.5138888888889" y="375.5416666666667" type="curve" smooth="yes"/>
      <point x="440.09027777777777" y="355.11805555555554" type="line"/>
    </contour>
  </outline>
</glyph>
<glyph name="n" format="2">
  <advance width="563.5"/>
  <unicode hex="006E"/>
  <outline>
    <contour>
      <point x="195.38194444444446" y="442.2916666666667" type="line" smooth="yes"/>
      <point x="195.38194444444446" y="455.0833333333333"/>
      <point x="188.42361111111111" y="464.5138888888889"/>
      <point x="175.95833333333334" y="464.5138888888889" type="curve" smooth="yes"/>
      <point x="164.80555555555554" y="464.5138888888889"/>
      <point x="153.75694444444446" y="459.97222222222223"/>
      <point x="138.11805555555554" y="454.1041666666667" type="curve" smooth="yes"/>
      <point x="33.53472222222222" y="411.31944444444446" type="line" smooth="yes"/>
      <point x="19.75319244919777" y="405.24075252448006"/>
      <point x="15.534722222222221" y="397.18621399176953"/>
      <point x="15.534722222222221" y="389.6875" type="curve" smooth="yes"/>
      <point x="15.534722222222221" y="376.82314814814816"/>
      <point x="22.618055555555557" y="371.61805555555554"/>
      <point x="34.84027777777778" y="371.61805555555554" type="curve" smooth="yes"/>
      <point x="60.14583333333333" y="371.61805555555554" type="line" smooth="yes"/>
      <point x="70.09027777777777" y="371.61805555555554"/>
      <point x="80.91666666666667" y="363.78472222222223"/>
      <point x="80.91666666666667" y="346.65277777777777" type="curve" smooth="yes"/>
      <point x="80.91666666666667" y="75.90972222222223" type="line" smooth="yes"/>
      <point x="80.91666666666667" y="60.89583333333333"/>
      <point x="73.48611111111111" y="51.15972222222222"/>
      <point x="59.02083333333333" y="46.05555555555556" type="curve" smooth="yes"/>
      <point x="35.173611111111114" y="39.72222222222222" type="line" smooth="yes"/>
      <point x="23.729166666666664" y="35.61805555555556"/>
      <point x="18.895833333333332" y="29.86111111111111"/>
      <point x="18.895833333333332" y="19.743055555555557" type="curve" smooth="yes"/>
      <point x="18.895833333333332" y="7.083333333333333"/>
      <point x="27.979166666666664" y="0.0"/>
      <point x="42.111111111111114" y="0.0" type="curve" smooth="yes"/>
      <point x="233.44444444444446" y="0.0" type="line" smooth="yes"/>
      <point x="248.9375" y="0.0"/>
      <point x="256.96527777777777" y="6.048611111111111"/>
      <point x="256.96527777777777" y="19.270833333333332" type="curve" smooth="yes"/>
      <point x="256.96527777777777" y="30.458333333333332"/>
      <point x="251.1875" y="35.18055555555556"/>
      <point x="240.01388888888889" y="39.104166666666664" type="curve" smooth="yes"/>
      <point x="212.32638888888889" y="47.125" type="line" smooth="yes"/>
      <point x="201.05555555555554" y="50.541666666666664"/>
      <point x="195.38194444444446" y="61.02777777777778"/>
      <point x="195.38194444444446" y="79.28472222222223" type="curve" smooth="yes"/>
    </contour>
    <contour>
      <point x="177.22222222222223" y="326.2916666666667" type="line" smooth="yes"/>
      <point x="197.34722222222223" y="347.15972222222223" type="line" smooth="yes"/>
      <point x="226.35416666666666" y="377.0"/>
      <point x="253.375" y="389.0833333333333"/>
      <point x="285.2916666666667" y="389.0833333333333" type="curve" smooth="yes"/>
      <point x="327.0138888888889" y="389.0833333333333"/>
      <point x="356.0" y="362.25694444444446"/>
      <point x="363.40277777777777" y="303.375" type="curve" smooth="yes"/>
      <point x="391.49305555555554" y="86.48611111111111" type="line" smooth="yes"/>
      <point x="394.52777777777777" y="59.83333333333333"/>
      <point x="385.4583333333333" y="49.47222222222222"/>
      <point x="366.88194444444446" y="46.0" type="curve" smooth="yes"/>
      <point x="350.6041666666667" y="42.43055555555556" type="line" smooth="yes"/>
      <point x="337.77777777777777" y="39.39583333333333"/>
      <point x="328.5486111111111" y="32.166666666666664"/>
      <point x="328.5486111111111" y="20.92361111111111" type="curve" smooth="yes"/>
      <point x="328.5486111111111" y="7.048611111111111"/>
      <point x="337.4166666666667" y="0.0"/>
      <point x="348.0833333333333" y="0.0" type="curve" smooth="yes"/>
      <point x="540.3541666666666" y="0.0" type="line" smooth="yes"/>
      <point x="552.5486111111111" y="0.0"/>
      <point x="560.2847222222222" y="8.13888888888889"/>
      <point x="560.2847222222222" y="20.069444444444443" type="curve" smooth="yes"/>
      <point x="560.2847222222222" y="31.4375"/>
      <point x="553.5833333333334" y="38.19444444444444"/>
      <point x="543.7916666666666" y="41.138888888888886" type="curve" smooth="yes"/>
      <point x="532.5763888888889" y="45.49305555555556" type="line" smooth="yes"/>
      <point x="520.6319444444445" y="49.84027777777778"/>
      <point x="513.4305555555555" y="61.90972222222222"/>
      <point x="510.86805555555554" y="82.60416666666667" type="curve" smooth="yes"/>
      <point x="474.6875" y="334.1041666666667" type="line" smooth="yes"/>
      <point x="462.2291666666667" y="420.53472222222223"/>
      <point x="413.40277777777777" y="464.5138888888889"/>
      <point x="350.59027777777777" y="464.5138888888889" type="curve" smooth="yes"/>
      <point x="285.30555555555554" y="464.5138888888889"/>
      <point x="233.67361111111111" y="433.9583333333333"/>
      <point x="182.24305555555554" y="381.6041666666667" type="curve" smooth="yes"/>
      <point x="154.55555555555554" y="353.1736111111111" type="line"/>
    </contour>
  </outline>
</glyph>
<glyph name="p" format="2">
  <advance width="553.6944444444445"/>
  <unicode hex="0070"/>
  <outline>
    <contour>
      <point x="186.54861111111111" y="433.09027777777777" type="line" smooth="yes"/>
      <point x="186.54861111111111" y="453.21527777777777"/>
      <point x="177.9375" y="464.5138888888889"/>
      <point x="164.25694444444446" y="464.5138888888889" type="curve" smooth="yes"/>
      <point x="151.57638888888889" y="464.5138888888889"/>
      <point x="139.42361111111111" y="458.375"/>
      <point x="121.58333333333333" y="451.3611111111111" type="curve" smooth="yes"/>
      <point x="22.055555555555554" y="410.4513888888889" type="line" smooth="yes"/>
      <point x="11.027777777777777" y="406.0"/>
      <point x="5.25" y="398.15277777777777"/>
      <point x="5.25" y="389.5416666666667" type="curve" smooth="yes"/>
      <point x="5.25" y="379.0833333333333"/>
      <point x="11.95138888888889" y="371.34722222222223"/>
      <point x="24.26388888888889" y="371.34722222222223" type="curve" smooth="yes"/>
      <point x="48.59722222222222" y="371.34722222222223" type="line" smooth="yes"/>
      <point x="64.08333333333333" y="371.34722222222223"/>
      <point x="73.24305555555556" y="362.8263888888889"/>
      <point x="73.24305555555556" y="341.27777777777777" type="curve" smooth="yes"/>
      <point x="73.24305555555556" y="-159.38888888888889" type="line" smooth="yes"/>
      <point x="73.24305555555556" y="-173.58333333333334"/>
      <point x="66.26388888888889" y="-186.97916666666666"/>
      <point x="51.46527777777778" y="-192.19444444444446" type="curve" smooth="yes"/>
      <point x="30.868055555555554" y="-198.83333333333334" type="line" smooth="yes"/>
      <point x="17.65302957856762" y="-203.49575779309637"/>
      <point x="8.159722222222221" y="-206.2685185185185"/>
      <point x="7.6875" y="-219.06944444444446" type="curve" smooth="yes"/>
      <point x="7.215277777777777" y="-231.99074074074073"/>
      <point x="14.208333333333332" y="-239.72222222222223"/>
      <point x="32.701388888888886" y="-239.72222222222223" type="curve" smooth="yes"/>
      <point x="248.67361111111111" y="-239.72222222222223" type="line" smooth="yes"/>
      <point x="263.80555555555554" y="-239.72222222222223"/>
      <point x="270.8541666666667" y="-231.5625"/>
      <point x="270.8541666666667" y="-220.06944444444446" type="curve" smooth="yes"/>
      <point x="270.8541666666667" y="-208.81111111111113"/>
      <point x="263.36011300470585" y="-205.68959301339143"/>
      <point x="249.67361111111111" y="-201.30555555555554" type="curve" smooth="yes"/>
      <point x="216.40972222222223" y="-193.08333333333334" type="line" smooth="yes"/>
      <point x="197.88888888888889" y="-186.88888888888889"/>
      <point x="186.54861111111111" y="-178.88888888888889"/>
      <point x="186.54861111111111" y="-157.38888888888889" type="curve" smooth="yes"/>
    </contour>
    <contour>
      <point x="141.52083333333334" y="330.65972222222223" type="line"/>
      <point x="188.66666666666666" y="374.875"/>
      <point x="232.51388888888889" y="392.9861111111111"/>
      <point x="281.50694444444446" y="392.9861111111111" type="curve" smooth="yes"/>
      <point x="363.05555555555554" y="392.9861111111111"/>
      <point x="415.3125" y="320.0625"/>
      <point x="415.3125" y="211.89583333333334" type="curve" smooth="yes"/>
      <point x="415.3125" y="111.91666666666667"/>
      <point x="359.8263888888889" y="41.45833333333333"/>
      <point x="277.2083333333333" y="41.45833333333333" type="curve" smooth="yes"/>
      <point x="223.15972222222223" y="41.45833333333333"/>
      <point x="177.74305555555554" y="58.97222222222222"/>
      <point x="151.10416666666666" y="101.43055555555556" type="curve"/>
      <point x="127.15277777777777" y="71.79166666666667" type="line"/>
      <point x="168.45833333333334" y="14.069444444444445"/>
      <point x="225.5625" y="-12.416666666666666"/>
      <point x="295.0833333333333" y="-12.416666666666666" type="curve" smooth="yes"/>
      <point x="433.9236111111111" y="-12.416666666666666"/>
      <point x="534.6875" y="95.95833333333333"/>
      <point x="534.6875" y="245.3125" type="curve" smooth="yes"/>
      <point x="534.6875" y="373.96527777777777"/>
      <point x="453.4583333333333" y="464.5138888888889"/>
      <point x="338.90972222222223" y="464.5138888888889" type="curve" smooth="yes"/>
      <point x="259.99305555555554" y="464.5138888888889"/>
      <point x="196.25" y="427.65972222222223"/>
      <point x="128.29166666666666" y="355.8263888888889" type="curve"/>
    </contour>
  </outline>
</glyph>
<glyph name="q" format="2">
  <advance width="519.9097222222222"/>
  <unicode hex="0071"/>
  <outline>
    <contour>
      <point x="474.9166666666667" y="-156.15277777777777" type="curve" smooth="yes"/>
      <point x="474.9166666666667" y="438.7916666666667" type="line" smooth="yes"/>
      <point x="474.9166666666667" y="456.0854392764858"/>
      <point x="467.19152046783626" y="465.1666666666667"/>
      <point x="455.7916666666667" y="465.1666666666667" type="curve" smooth="yes"/>
      <point x="444.5059523809524" y="465.1666666666667"/>
      <point x="435.5227857452862" y="460.2212979760125"/>
      <point x="420.2083333333333" y="451.55555555555554" type="curve" smooth="yes"/>
      <point x="359.03472222222223" y="412.24305555555554" type="line" smooth="yes"/>
      <point x="359.03472222222223" y="-150.45833333333334" type="line" smooth="yes"/>
      <point x="359.03472222222223" y="-177.23678315412184"/>
      <point x="345.984025874626" y="-188.11928889831134"/>
      <point x="322.80555555555554" y="-193.04861111111111" type="curve" smooth="yes"/>
      <point x="292.25" y="-199.125" type="line" smooth="yes"/>
      <point x="280.875" y="-201.72222222222223"/>
      <point x="272.2291666666667" y="-207.49652777777777"/>
      <point x="272.2291666666667" y="-220.06944444444446" type="curve" smooth="yes"/>
      <point x="272.2291666666667" y="-231.16666666666666"/>
      <point x="280.54671717171715" y="-239.72222222222223"/>
      <point x="292.8125" y="-239.72222222222223" type="curve" smooth="yes"/>
      <point x="500.0416666666667" y="-239.72222222222223" type="line" smooth="yes"/>
      <point x="517.375" y="-239.72222222222223"/>
      <point x="523.7710551050085" y="-231.84146276073383"/>
      <point x="523.2986111111111" y="-219.06944444444446" type="curve" smooth="yes"/>
      <point x="522.8262872387253" y="-205.87980979100806"/>
      <point x="514.5945776890661" y="-202.42923328897749"/>
      <point x="505.6736111111111" y="-197.74305555555554" type="curve" smooth="yes"/>
      <point x="492.2291666666667" y="-192.15972222222223" type="line" smooth="yes"/>
      <point x="481.8214077020575" y="-187.4133695042668"/>
      <point x="474.9166666666667" y="-173.0820707070707"/>
    </contour>
    <contour>
      <point x="396.7361111111111" y="118.54861111111111" type="line"/>
      <point x="354.93055555555554" y="77.4375"/>
      <point x="317.27777777777777" y="63.166666666666664"/>
      <point x="270.6875" y="63.166666666666664" type="curve" smooth="yes"/>
      <point x="190.5" y="63.166666666666664"/>
      <point x="139.03472222222223" y="134.25"/>
      <point x="139.03472222222223" y="242.49305555555554" type="curve" smooth="yes"/>
      <point x="139.03472222222223" y="348.0763888888889"/>
      <point x="203.88194444444446" y="413.09027777777777"/>
      <point x="285.0486111111111" y="413.09027777777777" type="curve" smooth="yes"/>
      <point x="339.9375" y="413.09027777777777"/>
      <point x="370.63194444444446" y="390.49305555555554"/>
      <point x="399.34722222222223" y="343.84722222222223" type="curve"/>
      <point x="421.2013888888889" y="383.47222222222223" type="line"/>
      <point x="380.49305555555554" y="440.0"/>
      <point x="331.7638888888889" y="464.5138888888889"/>
      <point x="260.72222222222223" y="464.5138888888889" type="curve" smooth="yes"/>
      <point x="127.01388888888889" y="464.5138888888889"/>
      <point x="19.006944444444443" y="358.9166666666667"/>
      <point x="19.006944444444443" y="208.36805555555554" type="curve" smooth="yes"/>
      <point x="19.006944444444443" y="78.48611111111111"/>
      <point x="106.70138888888889" y="-11.88888888888889"/>
      <point x="215.31944444444446" y="-11.88888888888889" type="curve" smooth="yes"/>
      <point x="294.38194444444446" y="-11.88888888888889"/>
      <point x="349.2361111111111" y="19.28472222222222"/>
      <point x="415.55555555555554" y="88.98611111111111" type="curve"/>
    </contour>
  </outline>
</glyph>
<glyph name="r" format="2">
  <advance width="402.21527777777777"/>
  <unicode hex="0072"/>
  <outline>
    <contour>
      <point x="181.19444444444446" y="238.19444444444446" type="line"/>
      <point x="182.5024466345699" y="379.86270163629644"/>
      <point x="233.8652777777778" y="464.9861111111111"/>
      <point x="311.9513888888889" y="464.9861111111111" type="curve" smooth="yes"/>
      <point x="363.398322851153" y="464.9861111111111"/>
      <point x="396.15972222222223" y="429.02500000000003"/>
      <point x="396.15972222222223" y="377.3333333333333" type="curve" smooth="yes"/>
      <point x="396.15972222222223" y="331.6736111111111"/>
      <point x="370.9583333333333" y="307.1041666666667"/>
      <point x="334.5625" y="307.1041666666667" type="curve" smooth="yes"/>
      <point x="308.0833333333333" y="307.1041666666667"/>
      <point x="290.25" y="323.55555555555554"/>
      <point x="282.4236111111111" y="347.0138888888889" type="curve" smooth="yes"/>
      <point x="275.35663117553145" y="371.13395987115933"/>
      <point x="270.3045634920635" y="380.0208333333333"/>
      <point x="253.29861111111111" y="380.0208333333333" type="curve" smooth="yes"/>
      <point x="224.0873015873016" y="380.0208333333333"/>
      <point x="196.77777777777777" y="333.1853448275862"/>
      <point x="196.77777777777777" y="235.36111111111111" type="curve"/>
    </contour>
    <contour>
      <point x="196.77777777777777" y="444.25694444444446" type="curve" smooth="yes"/>
      <point x="196.77777777777777" y="92.78472222222223" type="line" smooth="yes"/>
      <point x="196.77777777777777" y="76.38888888888889"/>
      <point x="205.25" y="61.38194444444444"/>
      <point x="223.98611111111111" y="55.89583333333333" type="curve" smooth="yes"/>
      <point x="277.56944444444446" y="42.263888888888886" type="line" smooth="yes"/>
      <point x="293.56944444444446" y="37.59722222222222"/>
      <point x="301.61805555555554" y="31.368055555555557"/>
      <point x="301.61805555555554" y="19.5625" type="curve" smooth="yes"/>
      <point x="301.61805555555554" y="6.520833333333333"/>
      <point x="293.40972222222223" y="0.0"/>
      <point x="280.8888888888889" y="0.0" type="curve" smooth="yes"/>
      <point x="39.47916666666667" y="0.0" type="line" smooth="yes"/>
      <point x="25.90972222222222" y="0.0"/>
      <point x="17.479166666666664" y="7.173611111111111"/>
      <point x="17.479166666666664" y="19.743055555555557" type="curve" smooth="yes"/>
      <point x="17.479166666666664" y="28.555555555555557"/>
      <point x="22.131944444444443" y="32.916666666666664"/>
      <point x="33.673611111111114" y="37.45833333333333" type="curve" smooth="yes"/>
      <point x="63.40972222222222" y="46.4375" type="line" smooth="yes"/>
      <point x="75.75" y="51.06944444444444"/>
      <point x="84.0" y="62.65972222222222"/>
      <point x="84.0" y="78.5625" type="curve" smooth="yes"/>
      <point x="84.0" y="347.375" type="line" smooth="yes"/>
      <point x="84.0" y="364.9861111111111"/>
      <point x="75.3125" y="372.38194444444446"/>
      <point x="63.78472222222222" y="372.38194444444446" type="curve" smooth="yes"/>
      <point x="38.798611111111114" y="372.38194444444446" type="line" smooth="yes"/>
      <point x="26.520833333333332" y="372.38194444444446"/>
      <point x="18.819444444444443" y="377.86805555555554"/>
      <point x="18.819444444444443" y="389.7986111111111" type="curve" smooth="yes"/>
      <point x="18.819444444444443" y="397.97222222222223"/>
      <point x="24.618055555555557" y="407.125"/>
      <point x="38.80555555555556" y="412.6666666666667" type="curve" smooth="yes"/>
      <point x="140.07638888888889" y="454.6666666666667" type="line" smooth="yes"/>
      <point x="156.68055555555554" y="461.0625"/>
      <point x="166.76388888888889" y="464.5138888888889"/>
      <point x="177.88194444444446" y="464.5138888888889" type="curve" smooth="yes"/>
      <point x="188.85416666666666" y="464.5138888888889"/>
      <point x="196.77777777777777" y="456.6111111111111"/>
    </contour>
  </outline>
</glyph>
<glyph name="t" format="2">
  <advance width="330.81944444444446"/>
  <unicode hex="0074"/>
  <outline>
    <contour>
      <point x="54.763888888888886" y="389.00694444444446" type="line" smooth="yes"/>
      <point x="65.91195407857852" y="382.57264178597075"/>
      <point x="70.69444444444444" y="371.50198412698415"/>
      <point x="70.69444444444444" y="348.72222222222223" type="curve" smooth="yes"/>
      <point x="70.69444444444444" y="113.59027777777777" type="line" smooth="yes"/>
      <point x="70.69444444444444" y="33.111111111111114"/>
      <point x="112.17361111111111" y="-12.8125"/>
      <point x="189.32638888888889" y="-12.8125" type="curve" smooth="yes"/>
      <point x="263.0138888888889" y="-12.8125"/>
      <point x="309.68055555555554" y="22.3125"/>
      <point x="321.86805555555554" y="81.52777777777777" type="curve" smooth="yes"/>
      <point x="322.6875" y="89.86805555555556"/>
      <point x="318.21641414141413" y="98.04166666666667"/>
      <point x="310.59027777777777" y="98.04166666666667" type="curve" smooth="yes"/>
      <point x="305.69916666666666" y="98.04166666666667"/>
      <point x="300.10972944601224" y="96.10889322316292"/>
      <point x="295.40277777777777" y="89.99305555555556" type="curve" smooth="yes"/>
      <point x="282.70177533737774" y="68.96110556474734"/>
      <point x="264.84027777777777" y="58.14583333333333"/>
      <point x="243.76388888888889" y="58.14583333333333" type="curve" smooth="yes"/>
      <point x="207.09027777777777" y="58.14583333333333"/>
      <point x="183.38194444444446" y="84.57318376068376"/>
      <point x="183.38194444444446" y="137.18055555555554" type="curve" smooth="yes"/>
      <point x="183.38194444444446" y="542.4444444444445" type="line" smooth="yes"/>
      <point x="183.38194444444446" y="557.1041666666666"/>
      <point x="174.70138888888889" y="565.6597222222222"/>
      <point x="161.29861111111111" y="565.6597222222222" type="curve" smooth="yes"/>
      <point x="151.65277777777777" y="565.6597222222222"/>
      <point x="138.8125" y="557.9583333333334"/>
      <point x="130.85416666666666" y="542.9166666666666" type="curve" smooth="yes"/>
      <point x="89.57638888888889" y="472.86805555555554" type="line" smooth="yes"/>
      <point x="82.59722222222223" y="459.75"/>
      <point x="70.36805555555556" y="452.15277777777777"/>
      <point x="57.56944444444444" y="452.15277777777777" type="curve" smooth="yes"/>
      <point x="29.041666666666664" y="452.15277777777777" type="line" smooth="yes"/>
      <point x="12.275883838383837" y="452.15277777777777"/>
      <point x="2.361111111111111" y="443.5625"/>
      <point x="2.361111111111111" y="429.5416666666667" type="curve" smooth="yes"/>
      <point x="2.361111111111111" y="419.9861111111111"/>
      <point x="8.791666666666666" y="410.74305555555554"/>
      <point x="23.76388888888889" y="401.9166666666667" type="curve" smooth="yes"/>
    </contour>
    <contour>
      <point x="122.38888888888889" y="398.4861111111111" type="line"/>
      <point x="122.38888888888889" y="398.4861111111111"/>
      <point x="247.7938355988055" y="398.4861111111111"/>
      <point x="273.59027777777777" y="398.4861111111111" type="curve" smooth="yes"/>
      <point x="301.7547619047619" y="398.4861111111111"/>
      <point x="319.8333333333333" y="413.5416666666667"/>
      <point x="319.8333333333333" y="434.2986111111111" type="curve" smooth="yes"/>
      <point x="319.8333333333333" y="446.0138888888889"/>
      <point x="312.4696789321789" y="452.15277777777777"/>
      <point x="300.3263888888889" y="452.15277777777777" type="curve" smooth="yes"/>
      <point x="281.85680806387677" y="452.15277777777777"/>
      <point x="128.86111111111111" y="452.15277777777777"/>
      <point x="128.86111111111111" y="452.15277777777777" type="curve"/>
    </contour>
  </outline>
</glyph>
<glyph name="u" format="2">
  <advance width="545.4305555555555"/>
  <unicode hex="0075"/>
  <outline>
    <contour>
      <point x="474.15277777777777" y="440.3888888888889" type="line" smooth="yes"/>
      <point x="474.15277777777777" y="456.0486111111111"/>
      <point x="466.06944444444446" y="465.13194444444446"/>
      <point x="452.40972222222223" y="465.13194444444446" type="curve" smooth="yes"/>
      <point x="442.3263888888889" y="465.13194444444446"/>
      <point x="433.7708333333333" y="462.71527777777777"/>
      <point x="417.2013888888889" y="457.2083333333333" type="curve" smooth="yes"/>
      <point x="318.7708333333333" y="421.18055555555554" type="line" smooth="yes"/>
      <point x="306.2013888888889" y="417.2013888888889"/>
      <point x="298.02777777777777" y="408.7361111111111"/>
      <point x="298.02777777777777" y="399.96527777777777" type="curve" smooth="yes"/>
      <point x="298.02777777777777" y="390.3569444444444"/>
      <point x="307.3168859649123" y="382.6388888888889"/>
      <point x="318.8263888888889" y="382.6388888888889" type="curve" smooth="yes"/>
      <point x="338.7638888888889" y="382.6388888888889" type="line" smooth="yes"/>
      <point x="353.99305555555554" y="382.6388888888889"/>
      <point x="358.2708333333333" y="374.80555555555554"/>
      <point x="358.2708333333333" y="356.63194444444446" type="curve" smooth="yes"/>
      <point x="358.2708333333333" y="44.979166666666664" type="line" smooth="yes"/>
      <point x="358.2708333333333" y="16.743055555555557"/>
      <point x="377.3958333333333" y="0.0"/>
      <point x="406.25" y="0.0" type="curve" smooth="yes"/>
      <point x="510.0486111111111" y="0.0" type="line" smooth="yes"/>
      <point x="527.5972222222222" y="0.0"/>
      <point x="534.1180555555555" y="8.555555555555555"/>
      <point x="534.1180555555555" y="21.21527777777778" type="curve" smooth="yes"/>
      <point x="534.1180555555555" y="32.78472222222222"/>
      <point x="526.3055555555555" y="36.798611111111114"/>
      <point x="517.6736111111111" y="39.86805555555556" type="curve" smooth="yes"/>
      <point x="496.3263888888889" y="46.5625" type="line" smooth="yes"/>
      <point x="482.0763888888889" y="51.72222222222222"/>
      <point x="474.15277777777777" y="62.736111111111114"/>
      <point x="474.15277777777777" y="86.125" type="curve" smooth="yes"/>
    </contour>
    <contour>
      <point x="176.28472222222223" y="440.3888888888889" type="line" smooth="yes"/>
      <point x="176.28472222222223" y="455.5208333333333"/>
      <point x="168.67361111111111" y="464.6041666666667"/>
      <point x="156.52083333333334" y="464.6041666666667" type="curve" smooth="yes"/>
      <point x="145.90972222222223" y="464.6041666666667"/>
      <point x="137.38888888888889" y="461.65972222222223"/>
      <point x="119.69444444444444" y="456.68055555555554" type="curve" smooth="yes"/>
      <point x="22.333333333333332" y="421.77777777777777" type="line" smooth="yes"/>
      <point x="8.07638888888889" y="417.7986111111111"/>
      <point x="0.5208333333333321" y="410.3634259259259"/>
      <point x="0.5208333333333321" y="399.3125" type="curve" smooth="yes"/>
      <point x="0.5208333333333321" y="390.3208333333333"/>
      <point x="8.157163742690058" y="382.6388888888889"/>
      <point x="18.57638888888889" y="382.6388888888889" type="curve" smooth="yes"/>
      <point x="41.78472222222222" y="382.6388888888889" type="line" smooth="yes"/>
      <point x="57.451388888888886" y="382.6388888888889"/>
      <point x="62.854166666666664" y="375.3333333333333"/>
      <point x="62.854166666666664" y="357.6875" type="curve" smooth="yes"/>
      <point x="62.854166666666664" y="133.13194444444446" type="line" smooth="yes"/>
      <point x="62.854166666666664" y="46.395833333333336"/>
      <point x="128.25694444444446" y="-7.416666666666666"/>
      <point x="210.23611111111111" y="-7.416666666666666" type="curve" smooth="yes"/>
      <point x="279.52777777777777" y="-7.416666666666666"/>
      <point x="331.09722222222223" y="21.5"/>
      <point x="378.99305555555554" y="83.18055555555556" type="curve"/>
      <point x="368.61805555555554" y="112.27083333333333" type="line"/>
      <point x="330.2986111111111" y="73.95138888888889"/>
      <point x="295.3541666666667" y="59.50694444444444"/>
      <point x="257.38194444444446" y="59.50694444444444" type="curve" smooth="yes"/>
      <point x="209.15972222222223" y="59.50694444444444"/>
      <point x="176.28472222222223" y="92.23611111111111"/>
      <point x="176.28472222222223" y="151.47916666666666" type="curve" smooth="yes"/>
    </contour>
  </outline>
</glyph>
<glyph name="v" format="2">
  <advance width="504.61805555555554"/>
  <unicode hex="0076"/>
  <outline>
    <contour>
      <point x="235.68055555555554" y="-10.0" type="curve" smooth="yes"/>
      <point x="273.25" y="-10.0" type="line" smooth="yes"/>
      <point x="286.7708333333333" y="-10.0"/>
      <point x="302.07589512456696" y="-2.385322825906142"/>
      <point x="311.02777777777777" y="20.09722222222222" type="curve" smooth="yes"/>
      <point x="439.1736111111111" y="338.1041666666667" type="line" smooth="yes"/>
      <point x="453.7013888888889" y="374.7986111111111"/>
      <point x="468.84027777777777" y="398.1458333333333"/>
      <point x="481.2986111111111" y="403.52777777777777" type="curve" smooth="yes"/>
      <point x="496.1041666666667" y="411.1736111111111"/>
      <point x="500.68055555555554" y="416.9513888888889"/>
      <point x="500.68055555555554" y="429.99305555555554" type="curve" smooth="yes"/>
      <point x="500.68055555555554" y="442.5625"/>
      <point x="492.63194444444446" y="452.15277777777777"/>
      <point x="476.40972222222223" y="452.15277777777777" type="curve" smooth="yes"/>
      <point x="339.0" y="452.15277777777777" type="line" smooth="yes"/>
      <point x="324.90277777777777" y="452.15277777777777"/>
      <point x="316.81944444444446" y="444.952614379085"/>
      <point x="316.81944444444446" y="434.3541666666667" type="curve" smooth="yes"/>
      <point x="316.81944444444446" y="424.29501028806584"/>
      <point x="323.8181327170141" y="419.4071067471862"/>
      <point x="338.0" y="412.6666666666667" type="curve" smooth="yes"/>
      <point x="362.7708333333333" y="402.25" type="line" smooth="yes"/>
      <point x="382.1167523581244" y="394.5791381028474"/>
      <point x="390.0486111111111" y="382.97499999999997"/>
      <point x="390.0486111111111" y="366.7708333333333" type="curve" smooth="yes"/>
      <point x="390.0486111111111" y="352.65247584541066"/>
      <point x="387.125" y="340.46527777777777"/>
      <point x="377.7986111111111" y="315.59722222222223" type="curve" smooth="yes"/>
      <point x="275.68055555555554" y="49.65277777777778" type="line" smooth="yes"/>
      <point x="302.49305555555554" y="46.14583333333333" type="line"/>
      <point x="185.63194444444446" y="349.9375" type="line" smooth="yes"/>
      <point x="181.15972222222223" y="362.40972222222223"/>
      <point x="177.27083333333334" y="370.88194444444446"/>
      <point x="177.27083333333334" y="383.44444444444446" type="curve" smooth="yes"/>
      <point x="177.27083333333334" y="395.97222222222223"/>
      <point x="186.25" y="399.8125"/>
      <point x="202.61111111111111" y="405.44444444444446" type="curve" smooth="yes"/>
      <point x="228.90277777777777" y="413.02777777777777" type="line" smooth="yes"/>
      <point x="241.52777777777777" y="418.25694444444446"/>
      <point x="249.64583333333334" y="424.18055555555554"/>
      <point x="249.64583333333334" y="434.7708333333333" type="curve" smooth="yes"/>
      <point x="249.64583333333334" y="444.4513888888889"/>
      <point x="242.59722222222223" y="452.15277777777777"/>
      <point x="227.90277777777777" y="452.15277777777777" type="curve" smooth="yes"/>
      <point x="27.26388888888889" y="452.15277777777777" type="line" smooth="yes"/>
      <point x="11.51388888888889" y="452.15277777777777"/>
      <point x="4.465277777777778" y="443.9791666666667"/>
      <point x="4.465277777777778" y="431.88194444444446" type="curve" smooth="yes"/>
      <point x="4.465277777777778" y="421.4375"/>
      <point x="11.097222222222221" y="414.00694444444446"/>
      <point x="24.375" y="406.8888888888889" type="curve" smooth="yes"/>
      <point x="42.270833333333336" y="399.65277777777777"/>
      <point x="48.951388888888886" y="385.2708333333333"/>
      <point x="56.861111111111114" y="364.21527777777777" type="curve" smooth="yes"/>
      <point x="192.74305555555554" y="26.104166666666664" type="line" smooth="yes"/>
      <point x="202.80338530796507" y="1.3478953640753528"/>
      <point x="216.22222222222223" y="-10.0"/>
    </contour>
  </outline>
</glyph>
<glyph name="w" format="2">
  <advance width="789.8611111111111"/>
  <unicode hex="0077"/>
  <outline>
    <contour>
      <point x="229.48611111111111" y="-10.0" type="curve" smooth="yes"/>
      <point x="262.9166666666667" y="-10.0" type="line" smooth="yes"/>
      <point x="283.11474867724866" y="-10.0"/>
      <point x="291.48048576116196" y="-2.269780656830095"/>
      <point x="300.5138888888889" y="18.38888888888889" type="curve" smooth="yes"/>
      <point x="428.8333333333333" y="326.0208333333333" type="line"/>
      <point x="391.50694444444446" y="363.47222222222223" type="line"/>
      <point x="263.15277777777777" y="50.70833333333333" type="line" smooth="yes"/>
      <point x="293.0138888888889" y="47.201388888888886" type="line"/>
      <point x="177.66666666666666" y="350.46527777777777" type="line" smooth="yes"/>
      <point x="173.19444444444446" y="362.97222222222223"/>
      <point x="169.21527777777777" y="371.23333333333335"/>
      <point x="169.21527777777777" y="383.44444444444446" type="curve" smooth="yes"/>
      <point x="169.21527777777777" y="395.8549382716049"/>
      <point x="177.44825471258358" y="402.08576181681997"/>
      <point x="195.66666666666666" y="406.53472222222223" type="curve" smooth="yes"/>
      <point x="222.88888888888889" y="413.0625" type="line" smooth="yes"/>
      <point x="234.375" y="416.09722222222223"/>
      <point x="239.70138888888889" y="423.0486111111111"/>
      <point x="239.70138888888889" y="434.7708333333333" type="curve" smooth="yes"/>
      <point x="239.70138888888889" y="446.4861111111111"/>
      <point x="233.15924329501917" y="452.15277777777777"/>
      <point x="221.11111111111111" y="452.15277777777777" type="curve" smooth="yes"/>
      <point x="24.875" y="452.15277777777777" type="line" smooth="yes"/>
      <point x="9.280753968253968" y="452.15277777777777"/>
      <point x="4.013888888888889" y="443.4483024691358"/>
      <point x="4.013888888888889" y="431.40972222222223" type="curve" smooth="yes"/>
      <point x="4.013888888888889" y="421.90972222222223"/>
      <point x="11.201652016718707" y="413.16449459123265"/>
      <point x="23.569444444444443" y="406.3611111111111" type="curve" smooth="yes"/>
      <point x="36.25526628737331" y="401.72828895210444"/>
      <point x="47.263888888888886" y="389.30555555555554"/>
      <point x="54.88194444444444" y="369.6666666666667" type="curve" smooth="yes"/>
      <point x="188.45138888888889" y="25.34722222222222" type="line" smooth="yes"/>
      <point x="198.41973204111517" y="0.0487666560280533"/>
      <point x="210.22222222222223" y="-10.0"/>
    </contour>
    <contour>
      <point x="566.6458333333334" y="-10.0" type="line" smooth="yes"/>
      <point x="583.3489379084967" y="-10.0"/>
      <point x="592.9095090708934" y="-4.519753920182895"/>
      <point x="600.9027777777778" y="16.9375" type="curve" smooth="yes"/>
      <point x="726.1388888888889" y="339.15972222222223" type="line" smooth="yes"/>
      <point x="738.6724501074148" y="372.25918490201957"/>
      <point x="753.1360575816866" y="393.11168081335103"/>
      <point x="771.2569444444445" y="404.0" type="curve" smooth="yes"/>
      <point x="781.7050618671134" y="412.4301240395818"/>
      <point x="786.375" y="420.19984567901236"/>
      <point x="786.375" y="431.88194444444446" type="curve" smooth="yes"/>
      <point x="786.375" y="443.8587962962963"/>
      <point x="777.8878968253969" y="452.15277777777777"/>
      <point x="759.2152777777778" y="452.15277777777777" type="curve" smooth="yes"/>
      <point x="622.8263888888889" y="452.15277777777777" type="line" smooth="yes"/>
      <point x="609.6736111111111" y="452.15277777777777"/>
      <point x="602.0625" y="446.0138888888889"/>
      <point x="602.0625" y="434.3541666666667" type="curve" smooth="yes"/>
      <point x="602.0625" y="423.6388888888889"/>
      <point x="610.1150517334856" y="419.1087679770906"/>
      <point x="621.4791666666666" y="410.8888888888889" type="curve" smooth="yes"/>
      <point x="647.8402777777778" y="397.2013888888889" type="line" smooth="yes"/>
      <point x="663.3888888888889" y="388.00694444444446"/>
      <point x="670.1180555555555" y="373.59027777777777"/>
      <point x="670.1180555555555" y="355.02777777777777" type="curve" smooth="yes"/>
      <point x="670.1180555555555" y="339.8263888888889"/>
      <point x="665.5763888888889" y="323.2013888888889"/>
      <point x="657.6527777777778" y="301.46527777777777" type="curve" smooth="yes"/>
      <point x="566.1805555555555" y="53.34722222222222" type="line" smooth="yes"/>
      <point x="599.4444444444445" y="48.78472222222222" type="line"/>
      <point x="481.78472222222223" y="343.50694444444446" type="line" smooth="yes"/>
      <point x="474.46527777777777" y="360.74305555555554"/>
      <point x="473.55555555555554" y="367.5625"/>
      <point x="473.55555555555554" y="376.38194444444446" type="curve" smooth="yes"/>
      <point x="473.55555555555554" y="391.125"/>
      <point x="481.8958333333333" y="402.36805555555554"/>
      <point x="496.8958333333333" y="407.22222222222223" type="curve" smooth="yes"/>
      <point x="516.1805555555555" y="413.53472222222223" type="line" smooth="yes"/>
      <point x="527.1944444444445" y="417.4236111111111"/>
      <point x="531.9930555555555" y="423.65277777777777"/>
      <point x="531.9930555555555" y="434.24305555555554" type="curve" smooth="yes"/>
      <point x="531.9930555555555" y="446.4861111111111"/>
      <point x="523.4375" y="452.15277777777777"/>
      <point x="507.77777777777777" y="452.15277777777777" type="curve" smooth="yes"/>
      <point x="320.625" y="452.15277777777777" type="line" smooth="yes"/>
      <point x="307.8541666666667" y="452.15277777777777"/>
      <point x="301.75" y="444.4513888888889"/>
      <point x="301.75" y="433.71527777777777" type="curve" smooth="yes"/>
      <point x="301.75" y="425.15972222222223"/>
      <point x="306.9861111111111" y="418.5138888888889"/>
      <point x="322.3611111111111" y="411.11805555555554" type="curve" smooth="yes"/>
      <point x="338.27367217230585" y="404.18053374798603"/>
      <point x="350.76362615563494" y="386.462242522809"/>
      <point x="357.24305555555554" y="370.72222222222223" type="curve" smooth="yes"/>
      <point x="501.0208333333333" y="21.694444444444443" type="line" smooth="yes"/>
      <point x="510.96251356961335" y="-1.3131507656337873"/>
      <point x="521.4513888888889" y="-10.0"/>
      <point x="536.625" y="-10.0" type="curve" smooth="yes"/>
    </contour>
  </outline>
</glyph>
<glyph name="x" format="2">
  <advance width="512.3333333333334"/>
  <unicode hex="0078"/>
  <outline>
    <contour>
      <point x="210.22222222222223" y="227.84027777777777" type="line"/>
      <point x="124.29166666666667" y="123.32638888888889" type="line" smooth="yes"/>
      <point x="97.4166796642338" y="90.82690718579306"/>
      <point x="70.56464461899532" y="68.46645847643305"/>
      <point x="35.22222222222222" y="57.85416666666667" type="curve" smooth="yes"/>
      <point x="14.152777777777777" y="50.20833333333333"/>
      <point x="5.104166666666666" y="40.00694444444444"/>
      <point x="5.104166666666666" y="25.583333333333332" type="curve" smooth="yes"/>
      <point x="5.104166666666666" y="9.333333333333332"/>
      <point x="13.4375" y="0.0"/>
      <point x="29.930555555555557" y="0.0" type="curve" smooth="yes"/>
      <point x="177.76388888888889" y="0.0" type="line" smooth="yes"/>
      <point x="191.27777777777777" y="0.0"/>
      <point x="200.30555555555554" y="6.048611111111111"/>
      <point x="200.30555555555554" y="18.743055555555557" type="curve" smooth="yes"/>
      <point x="200.30555555555554" y="30.23611111111111"/>
      <point x="195.58333333333334" y="35.46527777777778"/>
      <point x="185.29861111111111" y="41.27777777777778" type="curve" smooth="yes"/>
      <point x="177.95833333333334" y="44.701388888888886" type="line" smooth="yes"/>
      <point x="164.15277777777777" y="51.701388888888886"/>
      <point x="157.13194444444446" y="62.08333333333333"/>
      <point x="157.13194444444446" y="76.375" type="curve" smooth="yes"/>
      <point x="157.13194444444446" y="86.31944444444444"/>
      <point x="161.81944444444446" y="97.96527777777777"/>
      <point x="173.07638888888889" y="112.71527777777777" type="curve" smooth="yes"/>
      <point x="241.19444444444446" y="199.39583333333334" type="line"/>
    </contour>
    <contour>
      <point x="221.19444444444446" y="355.40972222222223" type="line" smooth="yes"/>
      <point x="211.125" y="368.00694444444446"/>
      <point x="207.59722222222223" y="373.88194444444446"/>
      <point x="207.59722222222223" y="382.9166666666667" type="curve" smooth="yes"/>
      <point x="207.59722222222223" y="394.3888888888889"/>
      <point x="214.59722222222223" y="400.3888888888889"/>
      <point x="221.06944444444446" y="404.3888888888889" type="curve" smooth="yes"/>
      <point x="233.21527777777777" y="411.97222222222223" type="line" smooth="yes"/>
      <point x="243.13888888888889" y="418.4791666666667"/>
      <point x="249.40972222222223" y="422.17147435897436"/>
      <point x="249.40972222222223" y="434.24305555555554" type="curve" smooth="yes"/>
      <point x="249.40972222222223" y="446.4861111111111"/>
      <point x="239.85416666666666" y="451.59027777777777"/>
      <point x="225.66666666666666" y="451.59027777777777" type="curve" smooth="yes"/>
      <point x="30.208333333333332" y="451.59027777777777" type="line" smooth="yes"/>
      <point x="14.875" y="451.59027777777777"/>
      <point x="6.048611111111111" y="444.50694444444446"/>
      <point x="6.048611111111111" y="430.5763888888889" type="curve" smooth="yes"/>
      <point x="6.048611111111111" y="418.4236111111111"/>
      <point x="13.1875" y="410.8125"/>
      <point x="23.055555555555557" y="407.77777777777777" type="curve" smooth="yes"/>
      <point x="39.53472222222222" y="402.84722222222223"/>
      <point x="57.96527777777778" y="394.1875"/>
      <point x="83.72222222222223" y="363.40972222222223" type="curve" smooth="yes"/>
      <point x="306.0416666666667" y="91.44444444444444" type="line" smooth="yes"/>
      <point x="317.1736111111111" y="78.36805555555556"/>
      <point x="316.47222222222223" y="70.70138888888889"/>
      <point x="316.47222222222223" y="64.375" type="curve" smooth="yes"/>
      <point x="316.47222222222223" y="56.125"/>
      <point x="310.5443794306167" y="48.893981973117036"/>
      <point x="303.09722222222223" y="45.36805555555556" type="curve" smooth="yes"/>
      <point x="278.50694444444446" y="38.50694444444444" type="line" smooth="yes"/>
      <point x="269.78472222222223" y="33.45833333333333"/>
      <point x="263.9166666666667" y="27.791666666666664"/>
      <point x="263.9166666666667" y="17.854166666666664" type="curve" smooth="yes"/>
      <point x="263.9166666666667" y="5.576388888888889"/>
      <point x="271.25694444444446" y="0.0"/>
      <point x="283.1388888888889" y="0.0" type="curve" smooth="yes"/>
      <point x="485.9583333333333" y="0.0" type="line" smooth="yes"/>
      <point x="503.03472222222223" y="0.0"/>
      <point x="510.0833333333333" y="8.083333333333332"/>
      <point x="510.0833333333333" y="20.32638888888889" type="curve" smooth="yes"/>
      <point x="510.0833333333333" y="28.444444444444443"/>
      <point x="504.6875" y="37.5625"/>
      <point x="492.69444444444446" y="41.923611111111114" type="curve" smooth="yes"/>
      <point x="477.01937153210946" y="46.68612933919486"/>
      <point x="467.7638888888889" y="55.63194444444444"/>
      <point x="444.6736111111111" y="83.18055555555556" type="curve" smooth="yes"/>
    </contour>
    <contour>
      <point x="297.3611111111111" y="198.52083333333334" type="line"/>
      <point x="415.8611111111111" y="344.44444444444446" type="line" smooth="yes"/>
      <point x="441.72162878193353" y="376.57815548982614"/>
      <point x="458.1666666666667" y="392.15972222222223"/>
      <point x="478.2013888888889" y="400.59722222222223" type="curve" smooth="yes"/>
      <point x="496.05463808308633" y="408.0367786701932"/>
      <point x="504.4513888888889" y="414.0"/>
      <point x="504.4513888888889" y="426.93055555555554" type="curve" smooth="yes"/>
      <point x="504.4513888888889" y="441.6388888888889"/>
      <point x="494.59027777777777" y="451.59027777777777"/>
      <point x="477.5138888888889" y="451.59027777777777" type="curve" smooth="yes"/>
      <point x="345.8611111111111" y="451.59027777777777" type="line" smooth="yes"/>
      <point x="330.98148148148147" y="451.59027777777777"/>
      <point x="321.59027777777777" y="446.4861111111111"/>
      <point x="321.59027777777777" y="435.24305555555554" type="curve" smooth="yes"/>
      <point x="321.59027777777777" y="425.9791666666667"/>
      <point x="323.95901354793136" y="418.29051716472947"/>
      <point x="335.05555555555554" y="412.4861111111111" type="curve" smooth="yes"/>
      <point x="346.30555555555554" y="406.625" type="line" smooth="yes"/>
      <point x="359.54889877285666" y="399.72207839134944"/>
      <point x="366.25" y="388.88194444444446"/>
      <point x="366.25" y="377.3541666666667" type="curve" smooth="yes"/>
      <point x="366.25" y="360.8263888888889"/>
      <point x="358.12002720636264" y="344.9182565268505"/>
      <point x="345.74305555555554" y="328.18055555555554" type="curve" smooth="yes"/>
      <point x="270.72222222222223" y="228.59722222222223" type="line"/>
    </contour>
  </outline>
</glyph>
<glyph name="y" format="2">
  <advance width="522.6736111111111"/>
  <unicode hex="0079"/>
  <anchor x="279.15277777777777" y="489.94444444444446" name="center"/>
  <outline>
    <contour>
      <point x="318.875" y="61.770833333333336" type="line"/>
      <point x="199.38194444444446" y="330.75" type="line" smooth="yes"/>
      <point x="191.44444444444446" y="348.11805555555554"/>
      <point x="189.44444444444446" y="357.24305555555554"/>
      <point x="189.44444444444446" y="367.13194444444446" type="curve" smooth="yes"/>
      <point x="189.44444444444446" y="382.0486111111111"/>
      <point x="199.72916666666666" y="392.9861111111111"/>
      <point x="210.76388888888889" y="398.2361111111111" type="curve" smooth="yes"/>
      <point x="233.00694444444446" y="406.36805555555554" type="line" smooth="yes"/>
      <point x="242.13194444444446" y="410.52777777777777"/>
      <point x="247.4375" y="419.2083333333333"/>
      <point x="247.4375" y="431.99305555555554" type="curve" smooth="yes"/>
      <point x="247.4375" y="445.9236111111111"/>
      <point x="236.79166666666666" y="452.15277777777777"/>
      <point x="219.60416666666666" y="452.15277777777777" type="curve" smooth="yes"/>
      <point x="15.5" y="452.15277777777777" type="line" smooth="yes"/>
      <point x="1.8888888888888893" y="452.15277777777777"/>
      <point x="-5.416666666666667" y="442.4166666666667"/>
      <point x="-5.416666666666667" y="428.63194444444446" type="curve" smooth="yes"/>
      <point x="-5.416666666666667" y="417.00694444444446"/>
      <point x="1.5763888888888884" y="408.4513888888889"/>
      <point x="15.88888888888889" y="402.36805555555554" type="curve" smooth="yes"/>
      <point x="36.55711927963619" y="395.19405351342425"/>
      <point x="46.17001741214649" y="383.24543613990085"/>
      <point x="57.111111111111114" y="358.5625" type="curve" smooth="yes"/>
      <point x="254.13888888888889" y="-68.1875" type="line"/>
    </contour>
    <contour>
      <point x="231.65277777777777" y="-96.35416666666666" type="line" smooth="yes"/>
      <point x="205.43055555555554" y="-161.34027777777777"/>
      <point x="189.70833333333334" y="-174.65972222222223"/>
      <point x="169.14583333333334" y="-174.65972222222223" type="curve" smooth="yes"/>
      <point x="153.54861111111111" y="-174.65972222222223"/>
      <point x="145.04166666666666" y="-164.04166666666666"/>
      <point x="137.90972222222223" y="-150.94444444444446" type="curve" smooth="yes"/>
      <point x="124.02777777777777" y="-123.78472222222223" type="line" smooth="yes"/>
      <point x="108.24612347007437" y="-92.58492937889764"/>
      <point x="91.2545803782506" y="-79.31944444444444"/>
      <point x="61.99305555555556" y="-79.31944444444444" type="curve" smooth="yes"/>
      <point x="30.77683933933934" y="-79.31944444444444"/>
      <point x="5.944444444444445" y="-103.47718253968253"/>
      <point x="5.944444444444445" y="-147.77083333333334" type="curve" smooth="yes"/>
      <point x="5.944444444444445" y="-203.21130952380952"/>
      <point x="47.527777777777786" y="-245.0"/>
      <point x="115.78472222222223" y="-245.0" type="curve" smooth="yes"/>
      <point x="187.3780487804878" y="-245.0"/>
      <point x="238.16915632218257" y="-206.65355763292985"/>
      <point x="277.4513888888889" y="-107.70138888888889" type="curve" smooth="yes"/>
      <point x="440.47222222222223" y="303.75" type="line" smooth="yes"/>
      <point x="459.59266023180237" y="351.11591339872354"/>
      <point x="480.8958333333333" y="377.05555555555554"/>
      <point x="500.9513888888889" y="388.84722222222223" type="curve" smooth="yes"/>
      <point x="514.6111111111111" y="399.86805555555554"/>
      <point x="524.2569444444445" y="412.84241452991455"/>
      <point x="524.2569444444445" y="422.59027777777777" type="curve" smooth="yes"/>
      <point x="524.2569444444445" y="442.47222222222223"/>
      <point x="513.9236111111111" y="452.15277777777777"/>
      <point x="494.34027777777777" y="452.15277777777777" type="curve" smooth="yes"/>
      <point x="356.7986111111111" y="452.15277777777777" type="line" smooth="yes"/>
      <point x="342.9236111111111" y="452.15277777777777"/>
      <point x="334.40277777777777" y="443.7018229166667"/>
      <point x="334.40277777777777" y="431.99305555555554" type="curve" smooth="yes"/>
      <point x="334.40277777777777" y="419.11265432098764"/>
      <point x="341.4595758264445" y="412.6635965650833"/>
      <point x="353.7916666666667" y="402.625" type="curve" smooth="yes"/>
      <point x="373.0833333333333" y="392.56944444444446" type="line" smooth="yes"/>
      <point x="389.7322479919095" y="380.9741016622258"/>
      <point x="396.75694444444446" y="370.8382936507936"/>
      <point x="396.75694444444446" y="347.27777777777777" type="curve" smooth="yes"/>
      <point x="396.75694444444446" y="331.03688524590166"/>
      <point x="395.73525908301497" y="315.59377634107403"/>
      <point x="378.6041666666667" y="273.75694444444446" type="curve" smooth="yes"/>
    </contour>
  </outline>
</glyph>
<glyph name="z" format="2">
  <advance width="451.46527777777777"/>
  <unicode hex="007A"/>
  <outline>
    <contour>
      <point x="405.8958333333333" y="385.6388888888889" type="line" smooth="yes"/>
      <point x="421.15972222222223" y="405.6111111111111"/>
      <point x="425.2638888888889" y="416.4030172413793"/>
      <point x="425.2638888888889" y="426.31944444444446" type="curve" smooth="yes"/>
      <point x="425.2638888888889" y="442.15972222222223"/>
      <point x="414.05555555555554" y="452.15277777777777"/>
      <point x="391.6388888888889" y="452.15277777777777" type="curve" smooth="yes"/>
      <point x="132.79166666666666" y="452.15277777777777" type="line" smooth="yes"/>
      <point x="115.22222222222223" y="452.15277777777777"/>
      <point x="100.51861111111111" y="465.1666666666667"/>
      <point x="85.15277777777777" y="465.1666666666667" type="curve" smooth="yes"/>
      <point x="74.00694444444444" y="465.1666666666667"/>
      <point x="66.75" y="459.8611111111111"/>
      <point x="61.173611111111114" y="436.86805555555554" type="curve" smooth="yes"/>
      <point x="40.291666666666664" y="351.4236111111111" type="line" smooth="yes"/>
      <point x="38.25694444444444" y="342.06944444444446"/>
      <point x="36.75" y="335.8958333333333"/>
      <point x="36.75" y="327.63194444444446" type="curve" smooth="yes"/>
      <point x="36.75" y="315.4791666666667"/>
      <point x="46.395833333333336" y="307.77777777777777"/>
      <point x="56.513888888888886" y="307.77777777777777" type="curve" smooth="yes"/>
      <point x="68.52083333333333" y="307.77777777777777"/>
      <point x="76.29861111111111" y="314.3333333333333"/>
      <point x="88.34027777777777" y="331.3541666666667" type="curve" smooth="yes"/>
      <point x="101.4375" y="353.8958333333333" type="line" smooth="yes"/>
      <point x="125.78653357907466" y="393.6380581150127"/>
      <point x="149.61111111111111" y="409.55555555555554"/>
      <point x="189.30555555555554" y="409.55555555555554" type="curve" smooth="yes"/>
      <point x="319.11805555555554" y="409.55555555555554" type="line"/>
      <point x="310.11805555555554" y="430.5625" type="line"/>
      <point x="42.50694444444444" y="67.15277777777777" type="line" smooth="yes"/>
      <point x="32.326388888888886" y="53.68055555555556"/>
      <point x="26.95138888888889" y="41.5625"/>
      <point x="26.95138888888889" y="29.61111111111111" type="curve" smooth="yes"/>
      <point x="26.95138888888889" y="13.805555555555555"/>
      <point x="40.9375" y="-0.4722222222222222"/>
      <point x="63.979166666666664" y="-0.4722222222222222" type="curve" smooth="yes"/>
      <point x="297.49305555555554" y="-0.4722222222222222" type="line" smooth="yes"/>
      <point x="333.2986111111111" y="-0.4722222222222222"/>
      <point x="347.25694444444446" y="-12.36111111111111"/>
      <point x="363.74305555555554" y="-12.36111111111111" type="curve" smooth="yes"/>
      <point x="383.7083333333333" y="-12.36111111111111"/>
      <point x="394.65972222222223" y="-4.965277777777778"/>
      <point x="399.6388888888889" y="16.67361111111111" type="curve" smooth="yes"/>
      <point x="422.55555555555554" y="107.49305555555556" type="line" smooth="yes"/>
      <point x="426.7708333333333" y="123.77083333333333"/>
      <point x="427.8611111111111" y="130.5625"/>
      <point x="427.8611111111111" y="138.9375" type="curve" smooth="yes"/>
      <point x="427.8611111111111" y="152.59722222222223"/>
      <point x="420.30555555555554" y="160.15277777777777"/>
      <point x="409.11805555555554" y="160.15277777777777" type="curve" smooth="yes"/>
      <point x="397.61805555555554" y="160.15277777777777"/>
      <point x="389.53472222222223" y="152.06944444444446"/>
      <point x="380.59722222222223" y="136.46527777777777" type="curve" smooth="yes"/>
      <point x="368.9166666666667" y="115.15972222222223" type="line" smooth="yes"/>
      <point x="340.43055555555554" y="63.854166666666664"/>
      <point x="310.71527777777777" y="43.125"/>
      <point x="251.61805555555554" y="43.125" type="curve" smooth="yes"/>
      <point x="132.65277777777777" y="43.125" type="line"/>
      <point x="139.90277777777777" y="22.17361111111111" type="line"/>
    </contour>
  </outline>
</glyph>
<glyph name="braceleft" format="2">
  <advance width="425.875"/>
  <unicode hex="007B"/>
  <outline>
    <contour>
      <point x="230.125" y="289.0" type="curve" smooth="yes"/>
      <point x="230.125" y="297.25"/>
      <point x="236.8125" y="304.5"/>
      <point x="247.1875" y="304.5" type="curve" smooth="yes"/>
      <point x="281.0625" y="304.5"/>
      <point x="303.5" y="337.1875"/>
      <point x="303.5" y="383.4375" type="curve" smooth="yes"/>
      <point x="303.5" y="460.625"/>
      <point x="251.125" y="527.8125"/>
      <point x="251.125" y="598.0" type="curve" smooth="yes"/>
      <point x="251.125" y="656.0"/>
      <point x="293.3125" y="702.25"/>
      <point x="343.5" y="702.25" type="curve" smooth="yes"/>
      <point x="376.625" y="702.25" type="line" smooth="yes"/>
      <point x="397.375" y="702.25"/>
      <point x="410.875" y="712.0625"/>
      <point x="410.875" y="729.125" type="curve" smooth="yes"/>
      <point x="410.875" y="743.625"/>
      <point x="400.5" y="755.0"/>
      <point x="378.625" y="755.0" type="curve" smooth="yes"/>
      <point x="315.375" y="755.0" type="line" smooth="yes"/>
      <point x="204.375" y="755.0"/>
      <point x="125.375" y="692.0"/>
      <point x="125.375" y="600.0" type="curve" smooth="yes"/>
      <point x="125.375" y="507.625"/>
      <point x="210.0" y="448.0"/>
      <point x="210.0" y="373.0625" type="curve" smooth="yes"/>
      <point x="210.0" y="345.4505208333333"/>
      <point x="186.74659609342635" y="329.9998690805164"/>
      <point x="160.3125" y="329.4375" type="curve" smooth="yes"/>
      <point x="135.125" y="329.4375"/>
      <point x="119.25" y="346.375"/>
      <point x="93.0625" y="346.375" type="curve" smooth="yes"/>
      <point x="66.6875" y="346.375"/>
      <point x="43.4375" y="318.875"/>
      <point x="43.4375" y="290.0" type="curve" smooth="yes"/>
      <point x="43.4375" y="258.5625"/>
      <point x="64.125" y="233.625"/>
      <point x="93.9375" y="233.625" type="curve" smooth="yes"/>
      <point x="121.375" y="233.625"/>
      <point x="139.625" y="250.5625"/>
      <point x="161.4375" y="250.5625" type="curve" smooth="yes"/>
      <point x="189.3094594384386" y="250.00011261339117"/>
      <point x="210.0" y="231.0884433962264"/>
      <point x="210.0" y="201.9375" type="curve" smooth="yes"/>
      <point x="210.0" y="131.4375"/>
      <point x="125.375" y="69.8125"/>
      <point x="125.375" y="-30.0" type="curve" smooth="yes"/>
      <point x="125.375" y="-120.0"/>
      <point x="204.375" y="-185.0"/>
      <point x="315.375" y="-185.0" type="curve" smooth="yes"/>
      <point x="378.625" y="-185.0" type="line" smooth="yes"/>
      <point x="400.5" y="-185.0"/>
      <point x="410.875" y="-170.5"/>
      <point x="410.875" y="-159.125" type="curve" smooth="yes"/>
      <point x="410.875" y="-139.5"/>
      <point x="397.375" y="-132.25"/>
      <point x="376.625" y="-132.25" type="curve" smooth="yes"/>
      <point x="343.5" y="-132.25" type="line" smooth="yes"/>
      <point x="293.3125" y="-132.25"/>
      <point x="251.125" y="-84.5625"/>
      <point x="251.125" y="-28.0" type="curve" smooth="yes"/>
      <point x="251.125" y="47.1875"/>
      <point x="303.5" y="118.375"/>
      <point x="303.5" y="192.5625" type="curve" smooth="yes"/>
      <point x="303.5" y="237.25"/>
      <point x="284.0625" y="273.9375"/>
      <point x="247.1875" y="273.9375" type="curve" smooth="yes"/>
      <point x="236.8125" y="273.9375"/>
      <point x="230.125" y="278.625"/>
    </contour>
  </outline>
</glyph>
<glyph name="bar" format="2">
  <advance width="357.0"/>
  <unicode hex="007C"/>
  <outline>
    <contour>
      <point x="124.125" y="694.125" type="curve" smooth="yes"/>
      <point x="135.402585010991" y="577.979082130696"/>
      <point x="151.875" y="343.7200704225352"/>
      <point x="151.875" y="265.0" type="curve" smooth="yes"/>
      <point x="151.875" y="171.4609375"/>
      <point x="135.46147409374655" y="-52.844513670325426"/>
      <point x="124.125" y="-170.125" type="curve" smooth="yes"/>
      <point x="123.12837842893776" y="-178.09797256849782"/>
      <point x="123.125" y="-185.125"/>
      <point x="123.125" y="-193.125" type="curve" smooth="yes"/>
      <point x="123.125" y="-228.34375"/>
      <point x="145.37162162162164" y="-250.0"/>
      <point x="178.0" y="-250.0" type="curve" smooth="yes"/>
      <point x="210.60714285714283" y="-250.0"/>
      <point x="229.875" y="-228.31776315789472"/>
      <point x="229.875" y="-196.125" type="curve" smooth="yes"/>
      <point x="229.875" y="-186.96975806451613"/>
      <point x="229.9651291430767" y="-178.06116228769034"/>
      <point x="228.875" y="-167.125" type="curve" smooth="yes"/>
      <point x="221.78591362127122" y="-50.02604195403907"/>
      <point x="203.125" y="165.09031030444964"/>
      <point x="203.125" y="263.0" type="curve" smooth="yes"/>
      <point x="203.125" y="336.35084894613584"/>
      <point x="217.88321302943868" y="579.0839214796811"/>
      <point x="224.875" y="693.125" type="curve" smooth="yes"/>
      <point x="225.875" y="707.125"/>
      <point x="225.875" y="708.125"/>
      <point x="225.875" y="710.125" type="curve" smooth="yes"/>
      <point x="225.875" y="740.4159482758621"/>
      <point x="206.42279411764704" y="765.0"/>
      <point x="175.0" y="765.0" type="curve" smooth="yes"/>
      <point x="145.07352941176472" y="765.0"/>
      <point x="124.125" y="744.0"/>
      <point x="124.125" y="708.125" type="curve" smooth="yes"/>
      <point x="124.125" y="704.125"/>
      <point x="124.125" y="699.1647727272727"/>
    </contour>
  </outline>
</glyph>
<glyph name="cent" format="2">
  <advance width="436.375"/>
  <unicode hex="00A2"/>
  <outline>
    <contour>
      <point x="191.5" y="32.5625" type="curve" smooth="yes"/>
      <point x="191.5" y="-0.75"/>
      <point x="211.4375" y="-16.4375"/>
      <point x="233.625" y="-16.4375" type="curve" smooth="yes"/>
      <point x="259.125" y="-16.4375"/>
      <point x="277.625" y="3.0625"/>
      <point x="278.0625" y="32.5625" type="curve" smooth="yes"/>
      <point x="278.5" y="69.0"/>
      <point x="251.875" y="112.4375"/>
      <point x="251.875" y="335.375" type="curve" smooth="yes"/>
      <point x="251.875" y="537.5625"/>
      <point x="280.0" y="575.125"/>
      <point x="280.0" y="609.4375" type="curve" smooth="yes"/>
      <point x="280.0" y="641.75"/>
      <point x="257.9375" y="658.4375"/>
      <point x="236.4375" y="658.4375" type="curve" smooth="yes"/>
      <point x="212.8125" y="658.4375"/>
      <point x="191.3125" y="642.75"/>
      <point x="191.3125" y="611.4375" type="curve" smooth="yes"/>
      <point x="191.3125" y="580.5625"/>
      <point x="220.4375" y="541.5625"/>
      <point x="220.4375" y="335.375" type="curve" smooth="yes"/>
      <point x="220.4375" y="114.4375"/>
      <point x="191.5" y="69.0"/>
    </contour>
    <contour>
      <point x="402.0" y="430.8125" type="curve" smooth="yes"/>
      <point x="402.0" y="494.5"/>
      <point x="342.0625" y="541.3125"/>
      <point x="259.25" y="541.3125" type="curve" smooth="yes"/>
      <point x="129.6875" y="541.3125"/>
      <point x="34.375" y="445.0"/>
      <point x="34.375" y="313.625" type="curve" smooth="yes"/>
      <point x="34.375" y="198.5625"/>
      <point x="120.3125" y="113.9375"/>
      <point x="233.1875" y="113.9375" type="curve" smooth="yes"/>
      <point x="326.0" y="113.9375"/>
      <point x="397.0625" y="172.6875"/>
      <point x="397.0625" y="228.3125" type="curve" smooth="yes"/>
      <point x="397.0625" y="241.9375"/>
      <point x="389.6875" y="251.0"/>
      <point x="379.4375" y="251.0" type="curve" smooth="yes"/>
      <point x="370.75" y="251.0"/>
      <point x="361.9375" y="246.4375"/>
      <point x="348.125" y="233.9375" type="curve" smooth="yes"/>
      <point x="330.6875" y="216.5"/>
      <point x="305.4375" y="205.1875"/>
      <point x="265.4375" y="205.1875" type="curve" smooth="yes"/>
      <point x="190.5" y="205.1875"/>
      <point x="130.0" y="266.875"/>
      <point x="130.0" y="354.75" type="curve" smooth="yes"/>
      <point x="130.0" y="427.5625"/>
      <point x="173.1875" y="483.75"/>
      <point x="233.625" y="483.75" type="curve" smooth="yes"/>
      <point x="272.6875" y="483.75"/>
      <point x="295.875" y="467.1875"/>
      <point x="295.875" y="444.0625" type="curve" smooth="yes"/>
      <point x="295.875" y="431.0625" type="line" smooth="yes"/>
      <point x="295.875" y="397.1875"/>
      <point x="319.25" y="372.875"/>
      <point x="350.0" y="372.875" type="curve" smooth="yes"/>
      <point x="379.1875" y="372.875"/>
      <point x="402.0" y="398.5"/>
    </contour>
  </outline>
</glyph>
<glyph name="sterling" format="2">
  <advance width="555.625"/>
  <unicode hex="00A3"/>
  <outline>
    <contour>
      <point x="55.9375" y="314.375" type="curve" smooth="yes"/>
      <point x="55.9375" y="298.0"/>
      <point x="65.1875" y="287.75"/>
      <point x="82.125" y="287.75" type="curve" smooth="yes"/>
      <point x="371.125" y="287.75" type="line" smooth="yes"/>
      <point x="388.0625" y="287.75"/>
      <point x="399.3125" y="298.0"/>
      <point x="399.3125" y="314.375" type="curve" smooth="yes"/>
      <point x="399.3125" y="330.3125"/>
      <point x="388.0625" y="341.5625"/>
      <point x="371.125" y="341.5625" type="curve" smooth="yes"/>
      <point x="83.125" y="341.5625" type="line" smooth="yes"/>
      <point x="67.1875" y="341.5625"/>
      <point x="55.9375" y="330.3125"/>
    </contour>
    <contour>
      <point x="118.25" y="102.1875" type="curve" smooth="yes"/>
      <point x="186.4375" y="102.1875"/>
      <point x="272.875" y="-15.0"/>
      <point x="394.625" y="-15.0" type="curve" smooth="yes"/>
      <point x="478.1875" y="-15.0"/>
      <point x="529.375" y="40.125"/>
      <point x="529.375" y="138.75" type="curve" smooth="yes"/>
      <point x="529.375" y="161.5"/>
      <point x="517.0" y="174.4375"/>
      <point x="501.625" y="174.4375" type="curve" smooth="yes"/>
      <point x="484.375" y="174.4375"/>
      <point x="473.875" y="160.0625"/>
      <point x="467.625" y="143.5625" type="curve" smooth="yes"/>
      <point x="454.25" y="110.1875"/>
      <point x="431.625" y="91.5"/>
      <point x="380.0" y="91.5" type="curve" smooth="yes"/>
      <point x="315.8125" y="91.5"/>
      <point x="223.6875" y="168.9375"/>
      <point x="133.8125" y="168.9375" type="curve" smooth="yes"/>
      <point x="65.1875" y="168.9375"/>
      <point x="19.375" y="129.8125"/>
      <point x="19.375" y="74.4375" type="curve" smooth="yes"/>
      <point x="19.375" y="21.375"/>
      <point x="63.4375" y="-15.0"/>
      <point x="132.3125" y="-15.0" type="curve" smooth="yes"/>
      <point x="192.8125" y="-15.0"/>
      <point x="261.5" y="27.125"/>
      <point x="261.5" y="118.5" type="curve" smooth="yes"/>
      <point x="261.5" y="226.0625"/>
      <point x="233.625" y="349.6875"/>
      <point x="233.625" y="481.0625" type="curve" smooth="yes"/>
      <point x="233.625" y="570.0"/>
      <point x="260.9375" y="608.125"/>
      <point x="311.25" y="608.125" type="curve" smooth="yes"/>
      <point x="342.4375" y="608.125"/>
      <point x="365.1875" y="590.0"/>
      <point x="365.1875" y="551.625" type="curve" smooth="yes"/>
      <point x="365.1875" y="527.625" type="line" smooth="yes"/>
      <point x="365.1875" y="484.75"/>
      <point x="397.375" y="455.125"/>
      <point x="433.125" y="455.125" type="curve" smooth="yes"/>
      <point x="476.0" y="455.125"/>
      <point x="502.5" y="481.0625"/>
      <point x="502.5" y="526.9375" type="curve" smooth="yes"/>
      <point x="502.5" y="602.25"/>
      <point x="446.625" y="658.3125"/>
      <point x="325.1875" y="658.3125" type="curve" smooth="yes"/>
      <point x="199.125" y="658.3125"/>
      <point x="111.5" y="580.9375"/>
      <point x="111.5" y="453.4375" type="curve" smooth="yes"/>
      <point x="111.5" y="334.5625"/>
      <point x="206.25" y="215.75"/>
      <point x="206.25" y="119.625" type="curve" smooth="yes"/>
      <point x="206.25" y="50.0"/>
      <point x="171.1875" y="25.9375"/>
      <point x="132.375" y="25.9375" type="curve" smooth="yes"/>
      <point x="96.625" y="25.9375"/>
      <point x="72.8125" y="43.125"/>
      <point x="72.8125" y="66.5625" type="curve" smooth="yes"/>
      <point x="72.8125" y="87.4375"/>
      <point x="88.6875" y="102.1875"/>
    </contour>
  </outline>
</glyph>
<glyph name="currency" format="2">
  <advance width="516.5"/>
  <unicode hex="00A4"/>
  <outline>
    <contour>
      <point x="257.25" y="143.4375" type="curve" smooth="yes"/>
      <point x="157.625" y="143.4375"/>
      <point x="76.6875" y="227.9375"/>
      <point x="76.6875" y="326.0" type="curve" smooth="yes"/>
      <point x="76.6875" y="425.0625"/>
      <point x="157.625" y="506.5625"/>
      <point x="257.25" y="506.5625" type="curve" smooth="yes"/>
      <point x="358.875" y="506.5625"/>
      <point x="438.8125" y="425.0625"/>
      <point x="438.8125" y="326.0" type="curve" smooth="yes"/>
      <point x="438.8125" y="227.9375"/>
      <point x="358.875" y="143.4375"/>
    </contour>
    <contour>
      <point x="258.25" y="221.1875" type="curve" smooth="yes"/>
      <point x="313.875" y="221.1875"/>
      <point x="362.0625" y="267.375"/>
      <point x="362.0625" y="326.0" type="curve" smooth="yes"/>
      <point x="362.0625" y="384.625"/>
      <point x="313.875" y="429.8125"/>
      <point x="258.25" y="429.8125" type="curve" smooth="yes"/>
      <point x="199.625" y="429.8125"/>
      <point x="155.4375" y="384.625"/>
      <point x="155.4375" y="326.0" type="curve" smooth="yes"/>
      <point x="155.4375" y="267.375"/>
      <point x="199.625" y="221.1875"/>
    </contour>
    <contour>
      <point x="58.5625" y="527.6875" type="curve" smooth="yes"/>
      <point x="71.25" y="539.9375"/>
      <point x="90.4375" y="538.6875"/>
      <point x="105.25" y="524.3125" type="curve" smooth="yes"/>
      <point x="182.375" y="447.1875" type="line"/>
      <point x="138.0625" y="402.875" type="line"/>
      <point x="61.375" y="478.4375" type="line" smooth="yes"/>
      <point x="47.0" y="492.25"/>
      <point x="44.1875" y="513.4375"/>
    </contour>
    <contour>
      <point x="372.5625" y="396.875" type="line"/>
      <point x="327.125" y="441.3125" type="line"/>
      <point x="411.375" y="525.0" type="line" smooth="yes"/>
      <point x="425.75" y="539.375"/>
      <point x="444.6875" y="540.5"/>
      <point x="458.9375" y="526.6875" type="curve" smooth="yes"/>
      <point x="471.75" y="513.4375"/>
      <point x="470.625" y="495.5"/>
      <point x="455.6875" y="480.5625" type="curve" smooth="yes"/>
    </contour>
    <contour>
      <point x="379.25" y="249.3125" type="line"/>
      <point x="453.4375" y="175.6875" type="line" smooth="yes"/>
      <point x="468.9375" y="160.1875"/>
      <point x="471.1875" y="139.4375"/>
      <point x="458.9375" y="127.3125" type="curve" smooth="yes"/>
      <point x="443.5625" y="113.5"/>
      <point x="424.625" y="115.1875"/>
      <point x="410.25" y="129.5625" type="curve" smooth="yes"/>
      <point x="338.1875" y="202.75" type="line"/>
    </contour>
    <contour>
      <point x="58.5625" y="126.3125" type="curve" smooth="yes"/>
      <point x="45.875" y="140.5625"/>
      <point x="46.4375" y="160.0625"/>
      <point x="60.8125" y="174.4375" type="curve" smooth="yes"/>
      <point x="139.9375" y="253.5625" type="line"/>
      <point x="180.3125" y="205.1875" type="line"/>
      <point x="104.6875" y="129.125" type="line" smooth="yes"/>
      <point x="90.4375" y="115.3125"/>
      <point x="70.125" y="114.0625"/>
    </contour>
  </outline>
</glyph>
<glyph name="yen" format="2">
  <advance width="611.0"/>
  <unicode hex="00A5"/>
  <outline>
    <contour>
      <point x="558.0" y="185.0" type="curve" smooth="yes"/>
      <point x="583.0" y="185.0"/>
      <point x="594.0" y="198.0"/>
      <point x="594.0" y="212.0" type="curve" smooth="yes"/>
      <point x="594.0" y="231.0"/>
      <point x="582.0" y="244.0"/>
      <point x="558.0" y="245.0" type="curve" smooth="yes"/>
      <point x="527.0" y="246.0"/>
      <point x="490.0" y="230.0"/>
      <point x="299.0" y="230.0" type="curve" smooth="yes"/>
      <point x="119.0" y="230.0"/>
      <point x="87.0" y="242.0"/>
      <point x="56.0" y="242.0" type="curve" smooth="yes"/>
      <point x="32.0" y="242.0"/>
      <point x="20.0" y="225.0"/>
      <point x="20.0" y="208.0" type="curve" smooth="yes"/>
      <point x="20.0" y="194.0"/>
      <point x="31.0" y="181.0"/>
      <point x="54.0" y="181.0" type="curve" smooth="yes"/>
      <point x="81.0" y="181.0"/>
      <point x="116.0" y="193.0"/>
      <point x="299.0" y="193.0" type="curve" smooth="yes"/>
      <point x="489.0" y="193.0"/>
      <point x="527.0" y="185.0"/>
    </contour>
    <contour>
      <point x="238.25" y="335.8125" type="line"/>
      <point x="111.0" y="338.375"/>
      <point x="83.0" y="347.375"/>
      <point x="56.0" y="347.375" type="curve" smooth="yes"/>
      <point x="32.0" y="347.375"/>
      <point x="20.0" y="330.375"/>
      <point x="20.0" y="313.375" type="curve" smooth="yes"/>
      <point x="20.0" y="299.375"/>
      <point x="31.0" y="286.375"/>
      <point x="54.0" y="286.375" type="curve" smooth="yes"/>
      <point x="79.0" y="286.375"/>
      <point x="110.0" y="296.375"/>
      <point x="258.125" y="298.375" type="curve"/>
    </contour>
    <contour>
      <point x="558.0" y="290.375" type="curve" smooth="yes"/>
      <point x="583.0" y="290.375"/>
      <point x="594.0" y="303.375"/>
      <point x="594.0" y="317.375" type="curve" smooth="yes"/>
      <point x="594.0" y="336.375"/>
      <point x="582.0" y="349.375"/>
      <point x="558.0" y="350.375" type="curve" smooth="yes"/>
      <point x="534.25" y="351.375"/>
      <point x="507.5" y="341.5"/>
      <point x="406.5" y="337.5" type="curve"/>
      <point x="385.6875" y="297.8125" type="line"/>
      <point x="502.375" y="295.8125"/>
      <point x="532.6875" y="290.375"/>
    </contour>
    <component base="Y" xScale="0.9135172474836407" yScale="0.9135172474836407" xOffset="10.0"/>
  </outline>
</glyph>
<glyph name="brokenbar" format="2">
  <advance width="357.0"/>
  <unicode hex="00A6"/>
  <outline>
    <contour>
      <point x="218.25" y="722.75" type="line" smooth="yes"/>
      <point x="218.25" y="744.375"/>
      <point x="206.94151392926065" y="764.5820255826704"/>
      <point x="180.0" y="766.0" type="curve" smooth="yes"/>
      <point x="153.8504699750846" y="767.3762910539429"/>
      <point x="138.75" y="745.9375"/>
      <point x="138.75" y="722.75" type="curve" smooth="yes"/>
      <point x="138.75" y="352.625" type="line" smooth="yes"/>
      <point x="138.75" y="329.4375"/>
      <point x="153.6875" y="307.8125"/>
      <point x="180.0" y="309.375" type="curve" smooth="yes"/>
      <point x="206.875" y="310.9375"/>
      <point x="218.25" y="331.0"/>
      <point x="218.25" y="352.625" type="curve" smooth="yes"/>
    </contour>
    <contour>
      <point x="218.25" y="168.375" type="line" smooth="yes"/>
      <point x="218.25" y="190.0"/>
      <point x="206.875" y="210.0625"/>
      <point x="180.0" y="211.625" type="curve" smooth="yes"/>
      <point x="153.6875" y="213.1875"/>
      <point x="138.75" y="191.5625"/>
      <point x="138.75" y="168.375" type="curve" smooth="yes"/>
      <point x="138.75" y="-201.75" type="line" smooth="yes"/>
      <point x="138.75" y="-224.9375"/>
      <point x="153.8504699750846" y="-246.37629105394294"/>
      <point x="180.0" y="-245.0" type="curve" smooth="yes"/>
      <point x="206.94151392926065" y="-243.5820255826705"/>
      <point x="218.25" y="-223.375"/>
      <point x="218.25" y="-201.75" type="curve" smooth="yes"/>
    </contour>
  </outline>
</glyph>
<glyph name="section" format="2">
  <advance width="546.75"/>
  <unicode hex="00A7"/>
  <outline>
    <contour>
      <point x="289.0" y="-177.75" type="curve" smooth="yes"/>
      <point x="231.0" y="-177.75"/>
      <point x="179.1875" y="-152.375"/>
      <point x="136.0" y="-77.0" type="curve" smooth="yes"/>
      <point x="116.625" y="-44.9375"/>
      <point x="105.625" y="-34.375"/>
      <point x="90.375" y="-34.375" type="curve" smooth="yes"/>
      <point x="70.4375" y="-34.375"/>
      <point x="61.75" y="-46.625"/>
      <point x="61.75" y="-66.0" type="curve" smooth="yes"/>
      <point x="61.75" y="-77.0"/>
      <point x="65.875" y="-92.0"/>
      <point x="70.75" y="-110.0" type="curve" smooth="yes"/>
      <point x="97.3125" y="-209.75" type="line" smooth="yes"/>
      <point x="103.4375" y="-235.75"/>
      <point x="113.8125" y="-243.5625"/>
      <point x="124.625" y="-243.5625" type="curve" smooth="yes"/>
      <point x="139.1875" y="-243.5625"/>
      <point x="150.1875" y="-220.0"/>
      <point x="165.75" y="-220.0" type="curve" smooth="yes"/>
      <point x="185.0" y="-220.0"/>
      <point x="229.9375" y="-243.0"/>
      <point x="287.0" y="-243.0" type="curve" smooth="yes"/>
      <point x="413.125" y="-243.0"/>
      <point x="491.875" y="-163.0"/>
      <point x="491.875" y="-68.0" type="curve" smooth="yes"/>
      <point x="491.875" y="2.6875"/>
      <point x="456.1875" y="66.6875"/>
      <point x="318.75" y="132.125" type="curve" smooth="yes"/>
      <point x="185.6875" y="195.4375"/>
      <point x="156.875" y="241.8125"/>
      <point x="156.875" y="280.5" type="curve" smooth="yes"/>
      <point x="156.875" y="325.3125"/>
      <point x="187.875" y="355.0"/>
      <point x="224.875" y="355.0" type="curve"/>
      <point x="224.5" y="410.8125" type="line"/>
      <point x="124.75" y="410.8125"/>
      <point x="44.375" y="330.75"/>
      <point x="44.375" y="241.125" type="curve" smooth="yes"/>
      <point x="44.375" y="159.75"/>
      <point x="107.125" y="96.5625"/>
      <point x="223.6875" y="45.4375" type="curve" smooth="yes"/>
      <point x="349.5625" y="-10.125"/>
      <point x="376.5625" y="-45.4375"/>
      <point x="376.125" y="-96.1875" type="curve" smooth="yes"/>
      <point x="375.6875" y="-141.4375"/>
      <point x="343.875" y="-177.75"/>
    </contour>
    <contour>
      <point x="333.375" y="104.625" type="curve"/>
      <point x="342.625" y="49.375" type="line"/>
      <point x="444.375" y="49.375"/>
      <point x="506.875" y="125.1875"/>
      <point x="506.875" y="214.0" type="curve" smooth="yes"/>
      <point x="506.875" y="285.75"/>
      <point x="465.0625" y="351.1875"/>
      <point x="330.375" y="417.75" type="curve" smooth="yes"/>
      <point x="201.75" y="481.0625"/>
      <point x="167.875" y="520.0"/>
      <point x="167.875" y="569.375" type="curve" smooth="yes"/>
      <point x="167.875" y="618.0"/>
      <point x="209.625" y="649.75"/>
      <point x="261.9375" y="649.75" type="curve" smooth="yes"/>
      <point x="314.375" y="649.75"/>
      <point x="369.0625" y="624.8125"/>
      <point x="425.125" y="543.0" type="curve" smooth="yes"/>
      <point x="440.375" y="519.0625"/>
      <point x="455.5" y="504.8125"/>
      <point x="475.75" y="504.8125" type="curve" smooth="yes"/>
      <point x="496.6875" y="504.8125"/>
      <point x="504.375" y="517.0625"/>
      <point x="504.375" y="536.0" type="curve" smooth="yes"/>
      <point x="504.375" y="544.0"/>
      <point x="499.8125" y="558.0"/>
      <point x="495.375" y="570.0" type="curve" smooth="yes"/>
      <point x="451.0" y="686.375" type="line" smooth="yes"/>
      <point x="442.875" y="707.875"/>
      <point x="429.9375" y="716.0"/>
      <point x="416.125" y="716.0" type="curve" smooth="yes"/>
      <point x="401.4375" y="716.0"/>
      <point x="394.4375" y="693.0"/>
      <point x="375.75" y="693.0" type="curve" smooth="yes"/>
      <point x="356.1875" y="693.0"/>
      <point x="319.0625" y="715.0"/>
      <point x="264.9375" y="715.0" type="curve" smooth="yes"/>
      <point x="146.875" y="715.0"/>
      <point x="53.75" y="629.1875"/>
      <point x="53.75" y="534.375" type="curve" smooth="yes"/>
      <point x="53.75" y="450.125"/>
      <point x="103.875" y="385.5"/>
      <point x="238.125" y="324.125" type="curve" smooth="yes"/>
      <point x="367.4375" y="264.875"/>
      <point x="401.75" y="216.125"/>
      <point x="401.75" y="179.625" type="curve" smooth="yes"/>
      <point x="401.75" y="135.625"/>
      <point x="376.0" y="104.625"/>
    </contour>
  </outline>
</glyph>
<glyph name="copyright" format="2">
  <advance width="774.5"/>
  <unicode hex="00A9"/>
  <outline>
    <contour>
      <point x="386.75" y="-15.0" type="curve" smooth="yes"/>
      <point x="190.9375" y="-15.0"/>
      <point x="51.6875" y="130.25"/>
      <point x="51.6875" y="326.0625" type="curve" smooth="yes"/>
      <point x="51.6875" y="520.4375"/>
      <point x="192.375" y="660.8125"/>
      <point x="386.75" y="660.8125" type="curve" smooth="yes"/>
      <point x="582.125" y="660.8125"/>
      <point x="722.8125" y="521.4375"/>
      <point x="722.8125" y="326.0625" type="curve" smooth="yes"/>
      <point x="722.8125" y="129.6875"/>
      <point x="583.125" y="-15.0"/>
    </contour>
    <contour>
      <point x="386.75" y="30.625" type="curve" smooth="yes"/>
      <point x="556.1875" y="30.625"/>
      <point x="677.1875" y="156.625"/>
      <point x="677.1875" y="326.0625" type="curve" smooth="yes"/>
      <point x="677.1875" y="494.0625"/>
      <point x="554.75" y="615.625"/>
      <point x="386.75" y="615.625" type="curve" smooth="yes"/>
      <point x="218.1875" y="615.625"/>
      <point x="97.3125" y="494.625"/>
      <point x="97.3125" y="326.0625" type="curve" smooth="yes"/>
      <point x="97.3125" y="156.0625"/>
      <point x="216.75" y="30.625"/>
    </contour>
    <contour>
      <point x="557.625" y="229.8125" type="curve" smooth="yes"/>
      <point x="557.625" y="237.1875"/>
      <point x="553.5" y="243.4375"/>
      <point x="547.8125" y="243.4375" type="curve" smooth="yes"/>
      <point x="541.6875" y="243.4375"/>
      <point x="537.125" y="240.5625"/>
      <point x="528.875" y="230.0625" type="curve" smooth="yes"/>
      <point x="506.5625" y="203.8125"/>
      <point x="464.4375" y="185.25"/>
      <point x="423.125" y="185.25" type="curve" smooth="yes"/>
      <point x="339.65517241379314" y="185.25"/>
      <point x="281.5625" y="249.72770700636943"/>
      <point x="281.5625" y="340.625" type="curve" smooth="yes"/>
      <point x="281.5625" y="432.8125"/>
      <point x="329.8755733944954" y="486.6875"/>
      <point x="396.0625" y="486.6875" type="curve" smooth="yes"/>
      <point x="435.5" y="486.6875"/>
      <point x="468.00399812335695" y="470.26013135958397"/>
      <point x="504.0625" y="420.8125" type="curve" smooth="yes"/>
      <point x="515.75" y="404.875"/>
      <point x="525.4375" y="399.875"/>
      <point x="535.125" y="399.875" type="curve" smooth="yes"/>
      <point x="545.5" y="399.875"/>
      <point x="553.1875" y="406.5625"/>
      <point x="553.1875" y="415.8125" type="curve" smooth="yes"/>
      <point x="553.1875" y="421.9375"/>
      <point x="551.75" y="426.0625"/>
      <point x="547.625" y="440.4375" type="curve" smooth="yes"/>
      <point x="526.875" y="509.0" type="line" smooth="yes"/>
      <point x="520.625" y="529.875"/>
      <point x="514.5" y="537.125"/>
      <point x="504.125" y="537.125" type="curve" smooth="yes"/>
      <point x="490.75" y="537.125"/>
      <point x="488.75" y="521.6875"/>
      <point x="473.8125" y="521.6875" type="curve" smooth="yes"/>
      <point x="460.5" y="521.6875"/>
      <point x="439.625" y="535.5625"/>
      <point x="401.0" y="535.5625" type="curve" smooth="yes"/>
      <point x="283.375" y="535.5625"/>
      <point x="197.125" y="445.4375"/>
      <point x="197.125" y="318.0625" type="curve" smooth="yes"/>
      <point x="197.125" y="197.6875"/>
      <point x="275.0947882569558" y="113.0"/>
      <point x="395.1875" y="113.0" type="curve" smooth="yes"/>
      <point x="487.70028409090907" y="113.0"/>
      <point x="557.625" y="174.271875"/>
    </contour>
  </outline>
</glyph>
<glyph name="logicalnot" format="2">
  <advance width="530.5"/>
  <unicode hex="00AC"/>
  <outline>
    <contour>
      <point x="421.8125" y="155.875" type="curve" smooth="yes"/>
      <point x="444.9125" y="155.875"/>
      <point x="460.5" y="170.725"/>
      <point x="460.5" y="197.125" type="curve" smooth="yes"/>
      <point x="460.5" y="376.125" type="line" smooth="yes"/>
      <point x="460.5" y="399.4375"/>
      <point x="445.4375" y="413.9375"/>
      <point x="423.125" y="413.9375" type="curve" smooth="yes"/>
      <point x="398.5162037037037" y="413.9375"/>
      <point x="381.5625" y="397.875"/>
      <point x="381.5625" y="376.125" type="curve" smooth="yes"/>
      <point x="381.5625" y="198.125" type="line" smooth="yes"/>
      <point x="381.5625" y="173.42548076923077"/>
      <point x="397.966796875" y="155.875"/>
    </contour>
    <component base="minus" xOffset="1.25" yOffset="73.125"/>
  </outline>
</glyph>
